<svg xmlns="http://www.w3.org/2000/svg" xml:lang="en" height="147.3pt" width="399.896pt" viewBox="-90.14800000000001 -140.0 399.896 147.3"><circle cx="3.3065463576978533e-15" cy="-54.0" r="18.0" style="stroke:black;fill:none;stroke-width:2.0;" /><path d="M 0.0,-0.0 L 2.204364238465236e-15,-36.0 L 2.204364238465236e-15,-36.0 M 4.408728476930472e-15,-72.0 L 4.408728476930472e-15,-72.0 L 6.613092715395707e-15,-108.0" id="na" class="na" style="stroke:black;fill:none;stroke-width:2.0;stroke-linecap:round;stroke-linejoin:round;" /><path d="M 3.600000000000003,-45.0 L -3.599999999999997,-45.0" id="na" class="na" style="stroke:black;fill:none;stroke-width:2.0;stroke-linecap:round;stroke-linejoin:round;" /><path d="M 3.637200993467639e-15,-59.4 L 4.078073841160686e-15,-66.60000000000001" id="na" class="na" style="stroke:black;fill:none;stroke-width:2.0;stroke-linecap:round;stroke-linejoin:round;" /><path d="M 3.600000000000004,-63.0 L -3.599999999999996,-63.0" id="na" class="na" style="stroke:black;fill:none;stroke-width:2.0;stroke-linecap:round;stroke-linejoin:round;" /><path d="M 23.400000000000002,-37.800000000000004 L 23.400000000000006,-81.0" id="na" class="voltage-label arrow U1" style="stroke:black;fill:none;stroke-width:2.0;stroke-linecap:round;stroke-linejoin:round;" /><path d="M 23.400000000000002 -29.0 L 19.800000000000004 -37.8 L 27.000000000000004 -37.8 Z" style="stroke:black;fill:black;stroke-linecap:butt;stroke-linejoin:miter;" class="voltage-label arrow U1" /><path d="M 6.613092715395707e-15,-108.0 L 36.00000000000001,-108.0 L 36.00000000000001,-117.0 L 72.0,-117.0 L 72.0,-99.0 L 36.00000000000001,-99.0 L 36.00000000000001,-108.0 M 72.0,-108.0 L 108.0,-108.0" id="R1" class="2.0 \Omega" style="stroke:black;fill:transparent;stroke-width:2.0;stroke-linecap:round;stroke-linejoin:round;" /><path d="M 27.000000000000007,-93.60000000000001 L 70.2,-93.60000000000001" id="na" class="voltage-label arrow U1" style="stroke:black;fill:none;stroke-width:2.0;stroke-linecap:round;stroke-linejoin:round;" /><path d="M 79.0 -93.60000000000001 L 70.19999999999999 -90.00000000000001 L 70.19999999999999 -97.2 Z" style="stroke:black;fill:black;stroke-linecap:butt;stroke-linejoin:miter;" class="voltage-label arrow U1" /><path d="M 108.0,-108.0 L 144.0,-108.0 L 144.0,-117.0 L 180.0,-117.0 L 180.0,-99.0 L 144.0,-99.0 L 144.0,-108.0 M 180.0,-108.0 L 216.0,-108.0" id="R2" class="1.0 \Omega" style="stroke:black;fill:transparent;stroke-width:2.0;stroke-linecap:round;stroke-linejoin:round;" /><path d="M 135.0,-93.60000000000001 L 178.20000000000002,-93.60000000000001" id="na" class="voltage-label arrow U2" style="stroke:black;fill:none;stroke-width:2.0;stroke-linecap:round;stroke-linejoin:round;" /><path d="M 187.0 -93.60000000000001 L 178.2 -90.00000000000001 L 178.2 -97.2 Z" style="stroke:black;fill:black;stroke-linecap:butt;stroke-linejoin:miter;" class="voltage-label arrow U2" /><path d="M 108.0,-108.0 L 108.0,-72.0 L 117.0,-72.0 L 116.99999999999999,-36.0 L 98.99999999999999,-36.0 L 99.0,-72.0 L 108.0,-72.0 M 107.99999999999999,-36.0 L 107.99999999999999,-0.0" id="R3" class="4.0 \Omega" style="stroke:black;fill:transparent;stroke-width:2.0;stroke-linecap:round;stroke-linejoin:round;" /><path d="M 122.39999999999998,-81.0 L 122.39999999999998,-37.800000000000004" id="na" class="voltage-label arrow U3" style="stroke:black;fill:none;stroke-width:2.0;stroke-linecap:round;stroke-linejoin:round;" /><path d="M 122.39999999999998 -29.0 L 118.79999999999998 -37.8 L 125.99999999999997 -37.8 Z" style="stroke:black;fill:black;stroke-linecap:butt;stroke-linejoin:miter;" class="voltage-label arrow U3" /><path d="M 216.0,-108.0 L 216.0,-72.0 L 225.0,-72.0 L 225.0,-36.0 L 207.0,-36.0 L 207.0,-72.0 L 216.0,-72.0 M 216.0,-36.0 L 215.99999999999997,-0.0" id="R4" class="3.0 \Omega" style="stroke:black;fill:transparent;stroke-width:2.0;stroke-linecap:round;stroke-linejoin:round;" /><path d="M 230.4,-81.0 L 230.39999999999998,-37.800000000000004" id="na" class="voltage-label arrow U4" style="stroke:black;fill:none;stroke-width:2.0;stroke-linecap:round;stroke-linejoin:round;" /><path d="M 230.39999999999998 -29.0 L 226.79999999999998 -37.800000000000004 L 233.99999999999997 -37.8 Z" style="stroke:black;fill:black;stroke-linecap:butt;stroke-linejoin:miter;" class="voltage-label arrow U4" /><path d="M 107.99999999999999,-0.0 L 53.99999999999999,-6.613092715395706e-15 L 0.0,-1.3226185430791412e-14" id="na" class="na" style="stroke:black;fill:none;stroke-width:2.0;stroke-linecap:round;stroke-linejoin:round;" /><path d="M 215.99999999999997,-0.0 L 161.99999999999997,-6.613092715395706e-15 L 107.99999999999999,-1.3226185430791412e-14" id="na" class="na" style="stroke:black;fill:none;stroke-width:2.0;stroke-linecap:round;stroke-linejoin:round;" /><text x="-14.399999999999999" y="-45.2" fill="black" font-size="14.0" font-family="sans" text-anchor="end" class="element-label ###.### ##"><tspan x="-14.399999999999999" dy="14.0">###.### ##</tspan></text><text x="27.000000000000004" y="-52.400000000000006" fill="black" font-size="14.0" font-family="sans" text-anchor="start" class="voltage-label arrow Uges"><tspan x="27.000000000000004" dy="14.0">###.### ##</tspan></text><text x="54.00000000000001" y="-135.4" fill="black" font-size="14.0" font-family="sans" text-anchor="middle" class="element-label ###.### ##"><tspan x="54.00000000000001" dy="14.0">###.### ##</tspan></text><text x="61.2" y="-82.8" fill="black" font-size="14.0" font-family="sans" text-anchor="middle" class="voltage-label arrow U1"><tspan x="61.2" dy="14.0">###.### ##</tspan></text><text x="162.0" y="-135.4" fill="black" font-size="14.0" font-family="sans" text-anchor="middle" class="element-label ###.### ##"><tspan x="162.0" dy="14.0">###.### ##</tspan></text><text x="169.20000000000002" y="-82.8" fill="black" font-size="14.0" font-family="sans" text-anchor="middle" class="voltage-label arrow U2"><tspan x="169.20000000000002" dy="14.0">###.### ##</tspan></text><text x="95.39999999999999" y="-73.99999999999999" fill="black" font-size="14.0" font-family="sans" text-anchor="end" class="element-label ###.### ##"><tspan x="95.39999999999999" dy="14.0">###.### ##</tspan></text><text x="125.99999999999999" y="-52.4" fill="black" font-size="14.0" font-family="sans" text-anchor="start" class="voltage-label arrow U3"><tspan x="125.99999999999999" dy="14.0">###.### ##</tspan></text><text x="203.39999999999998" y="-73.99999999999999" fill="black" font-size="14.0" font-family="sans" text-anchor="end" class="element-label ###.### ##"><tspan x="203.39999999999998" dy="14.0">###.### ##</tspan></text><text x="234.0" y="-52.4" fill="black" font-size="14.0" font-family="sans" text-anchor="start" class="voltage-label arrow U4"><tspan x="234.0" dy="14.0">###.### ##</tspan></text><path d="M 8.817456953860937e-16,-14.399999999999997 L 8.81745695386094e-16,-14.399999999999999" id="na" class="current-label arrow I1" style="stroke:black;fill:none;stroke-width:2.0;stroke-linecap:round;stroke-linejoin:round;" /><path d="M 1.4205902870109293e-15 -23.2 L 5.4 -14.400000000000002 L -5.399999999999999 -14.400000000000002 Z" style="stroke:black;fill:black;stroke-linecap:butt;stroke-linejoin:miter;" class="current-label arrow I1" /><text x="-10.799999999999997" y="-29.0" fill="black" font-size="14.0" font-family="sans" text-anchor="end" class="current-label arrow Iges"><tspan x="-10.799999999999997" dy="14.0">###.### ##</tspan></text><path d="M 14.400000000000006,-108.0 L 14.400000000000007,-108.0" id="na" class="current-label arrow I1" style="stroke:black;fill:none;stroke-width:2.0;stroke-linecap:round;stroke-linejoin:round;" /><path d="M 23.200000000000006 -108.0 L 14.40000000000001 -102.6 L 14.40000000000001 -113.4 Z" style="stroke:black;fill:black;stroke-linecap:butt;stroke-linejoin:miter;" class="current-label arrow I1" /><text x="16.200000000000006" y="-130.0" fill="black" font-size="14.0" font-family="sans" text-anchor="middle" class="current-label arrow I1"><tspan x="16.200000000000006" dy="14.0">###.### ##</tspan></text><path d="M 122.39999999999999,-108.0 L 122.4,-108.0" id="na" class="current-label arrow I2" style="stroke:black;fill:none;stroke-width:2.0;stroke-linecap:round;stroke-linejoin:round;" /><path d="M 131.20000000000002 -108.0 L 122.4 -102.6 L 122.4 -113.4 Z" style="stroke:black;fill:black;stroke-linecap:butt;stroke-linejoin:miter;" class="current-label arrow I2" /><text x="124.2" y="-130.0" fill="black" font-size="14.0" font-family="sans" text-anchor="middle" class="current-label arrow I2"><tspan x="124.2" dy="14.0">###.### ##</tspan></text><path d="M 107.99999999999999,-93.60000000000001 L 107.99999999999999,-93.6" id="na" class="current-label arrow I3" style="stroke:black;fill:none;stroke-width:2.0;stroke-linecap:round;stroke-linejoin:round;" /><path d="M 107.99999999999999 -84.8 L 102.59999999999998 -93.60000000000001 L 113.39999999999999 -93.60000000000001 Z" style="stroke:black;fill:black;stroke-linecap:butt;stroke-linejoin:miter;" class="current-label arrow I3" /><text x="97.19999999999999" y="-97.4" fill="black" font-size="14.0" font-family="sans" text-anchor="end" class="current-label arrow I3"><tspan x="97.19999999999999" dy="14.0">###.### ##</tspan></text><path d="M 216.0,-93.60000000000001 L 216.0,-93.6" id="na" class="current-label arrow I4" style="stroke:black;fill:none;stroke-width:2.0;stroke-linecap:round;stroke-linejoin:round;" /><path d="M 216.0 -84.8 L 210.6 -93.60000000000001 L 221.4 -93.60000000000001 Z" style="stroke:black;fill:black;stroke-linecap:butt;stroke-linejoin:miter;" class="current-label arrow I4" /><text x="205.20000000000002" y="-97.4" fill="black" font-size="14.0" font-family="sans" text-anchor="end" class="current-label arrow I4"><tspan x="205.20000000000002" dy="14.0">###.### ##</tspan></text><circle cx="108.0" cy="-108.0" r="2.6999999999999997" style="stroke:black;fill:black;stroke-width:2.0;" /><circle cx="107.99999999999999" cy="-0.0" r="2.6999999999999997" style="stroke:black;fill:black;stroke-width:2.0;" /></svg>