<svg xmlns="http://www.w3.org/2000/svg" xml:lang="en" height="664.4pt" width="415.196pt" viewBox="-45.808 -227.79999999999998 415.196 664.4"><circle cx="3.3065463576978533e-15" cy="-54.0" r="18.0" style="stroke:black;fill:none;stroke-width:2.0;" /><path d="M 0.0,-0.0 L 2.204364238465236e-15,-36.0 L 2.204364238465236e-15,-36.0 M 4.408728476930472e-15,-72.0 L 4.408728476930472e-15,-72.0 L 6.613092715395707e-15,-108.0" id="na" class="na" style="stroke:black;fill:none;stroke-width:2.0;stroke-linecap:round;stroke-linejoin:round;" /><path d="M 2.7554552980815448e-15,-45.0 L 3.3065463576978533e-15,-54.0" id="na" class="na" style="stroke:black;fill:none;stroke-width:2.0;stroke-linecap:round;stroke-linejoin:round;" /><path d="M 3.7351727373994275e-15 -61.0 L 2.700000000000003 -54.0 L -2.6999999999999966 -54.0 Z" style="stroke:black;fill:black;stroke-linecap:butt;stroke-linejoin:miter;" class="na" /><path d="M 28.8,-28.8 L 28.800000000000004,-90.0" id="na" class="arrow" style="stroke:black;fill:none;stroke-width:2.0;stroke-linecap:round;stroke-linejoin:round;" /><path d="M 28.8 -20.0 L 25.200000000000003 -28.799999999999997 L 32.4 -28.799999999999997 Z" style="stroke:black;fill:black;stroke-linecap:butt;stroke-linejoin:miter;" class="arrow" /><path d="M 6.613092715395707e-15,-108.0 L 9.919639073093561e-15,-162.0 L 1.3226185430791413e-14,-216.0" id="na" class="na" style="stroke:black;fill:none;stroke-width:2.0;stroke-linecap:round;stroke-linejoin:round;" /><path d="M 1.3226185430791413e-14,-216.0 L 54.000000000000014,-216.0 L 108.00000000000001,-216.0" id="na" class="na" style="stroke:black;fill:none;stroke-width:2.0;stroke-linecap:round;stroke-linejoin:round;" /><path d="M 108.00000000000001,-216.0 L 162.0,-216.0 L 216.0,-216.0" id="na" class="na" style="stroke:black;fill:none;stroke-width:2.0;stroke-linecap:round;stroke-linejoin:round;" /><path d="M 216.0,-216.0 L 216.0,-162.0 L 215.99999999999997,-108.0" id="na" class="na" style="stroke:black;fill:none;stroke-width:2.0;stroke-linecap:round;stroke-linejoin:round;" /><path d="M 215.99999999999997,-108.0 L 161.99999999999997,-108.0 L 107.99999999999997,-108.00000000000001" id="na" class="na" style="stroke:black;fill:none;stroke-width:2.0;stroke-linecap:round;stroke-linejoin:round;" /><path d="M 215.99999999999997,-108.0 L 215.99999999999997,-72.0 L 224.99999999999997,-72.0 L 224.99999999999997,-36.0 L 206.99999999999997,-36.0 L 206.99999999999997,-72.0 L 215.99999999999997,-72.0 M 215.99999999999997,-36.0 L 215.99999999999994,-0.0" id="R2" class="6.0 \Omega" style="stroke:black;fill:none;stroke-width:2.0;stroke-linecap:round;stroke-linejoin:round;" /><path d="M 235.79999999999995,-90.0 L 235.79999999999995,-28.8" id="na" class="arrow" style="stroke:black;fill:none;stroke-width:2.0;stroke-linecap:round;stroke-linejoin:round;" /><path d="M 235.79999999999995 -20.0 L 232.19999999999996 -28.799999999999997 L 239.39999999999995 -28.799999999999997 Z" style="stroke:black;fill:black;stroke-linecap:butt;stroke-linejoin:miter;" class="arrow" /><path d="M 215.99999999999997,-108.0 L 269.99999999999994,-108.0 L 324.0,-108.0" id="na" class="na" style="stroke:black;fill:none;stroke-width:2.0;stroke-linecap:round;stroke-linejoin:round;" /><path d="M 324.0,-108.0 L 324.0,-72.0 L 333.0,-72.0 L 333.0,-36.0 L 315.0,-36.0 L 315.0,-72.0 L 324.0,-72.0 M 324.0,-36.0 L 324.0,-0.0" id="R3" class="2.0 \Omega" style="stroke:black;fill:none;stroke-width:2.0;stroke-linecap:round;stroke-linejoin:round;" /><path d="M 343.8,-90.0 L 343.8,-28.8" id="na" class="arrow" style="stroke:black;fill:none;stroke-width:2.0;stroke-linecap:round;stroke-linejoin:round;" /><path d="M 343.8 -20.0 L 340.2 -28.799999999999997 L 347.40000000000003 -28.799999999999997 Z" style="stroke:black;fill:black;stroke-linecap:butt;stroke-linejoin:miter;" class="arrow" /><path d="M 107.99999999999997,-108.00000000000001 L 107.99999999999997,-72.00000000000001 L 116.99999999999997,-72.00000000000001 L 116.99999999999996,-36.000000000000014 L 98.99999999999996,-36.000000000000014 L 98.99999999999997,-72.00000000000001 L 107.99999999999997,-72.00000000000001 M 107.99999999999996,-36.000000000000014 L 107.99999999999996,-1.5987211554602254e-14" id="R1" class="3.0 \Omega" style="stroke:black;fill:none;stroke-width:2.0;stroke-linecap:round;stroke-linejoin:round;" /><path d="M 127.79999999999995,-90.00000000000001 L 127.79999999999994,-28.80000000000002" id="na" class="arrow" style="stroke:black;fill:none;stroke-width:2.0;stroke-linecap:round;stroke-linejoin:round;" /><path d="M 127.79999999999994 -20.000000000000014 L 124.19999999999995 -28.80000000000001 L 131.39999999999995 -28.80000000000001 Z" style="stroke:black;fill:black;stroke-linecap:butt;stroke-linejoin:miter;" class="arrow" /><path d="M 107.99999999999996,-1.5987211554602254e-14 L 161.99999999999994,-7.993605777301127e-15 L 215.99999999999994,-0.0" id="na" class="na" style="stroke:black;fill:none;stroke-width:2.0;stroke-linecap:round;stroke-linejoin:round;" /><path d="M 215.99999999999994,-0.0 L 215.99999999999994,54.0 L 215.99999999999991,108.0" id="na" class="na" style="stroke:black;fill:none;stroke-width:2.0;stroke-linecap:round;stroke-linejoin:round;" /><path d="M 324.0,-0.0 L 269.99999999999994,-6.6130927153957114e-15 L 215.99999999999994,-1.3226185430791423e-14" id="na" class="na" style="stroke:black;fill:none;stroke-width:2.0;stroke-linecap:round;stroke-linejoin:round;" /><path d="M 215.99999999999991,108.0 L 215.99999999999991,144.0 L 224.99999999999991,144.0 L 224.99999999999991,180.0 L 206.99999999999991,180.0 L 206.99999999999991,144.0 L 215.99999999999991,144.0 M 215.99999999999991,180.0 L 215.9999999999999,216.0" id="R4" class="20.0 \Omega" style="stroke:black;fill:none;stroke-width:2.0;stroke-linecap:round;stroke-linejoin:round;" /><path d="M 235.7999999999999,126.0 L 235.7999999999999,187.20000000000002" id="na" class="arrow" style="stroke:black;fill:none;stroke-width:2.0;stroke-linecap:round;stroke-linejoin:round;" /><path d="M 235.7999999999999 196.0 L 232.1999999999999 187.2 L 239.3999999999999 187.2 Z" style="stroke:black;fill:black;stroke-linecap:butt;stroke-linejoin:miter;" class="arrow" /><path d="M 215.99999999999991,108.0 L 269.9999999999999,108.0 L 323.9999999999999,108.0" id="na" class="na" style="stroke:black;fill:none;stroke-width:2.0;stroke-linecap:round;stroke-linejoin:round;" /><path d="M 323.9999999999999,108.0 L 323.9999999999999,144.0 L 332.9999999999999,144.0 L 332.9999999999999,180.0 L 314.9999999999999,180.0 L 314.9999999999999,144.0 L 323.9999999999999,144.0 M 323.9999999999999,180.0 L 323.9999999999999,216.0" id="R5" class="30.0 \Omega" style="stroke:black;fill:none;stroke-width:2.0;stroke-linecap:round;stroke-linejoin:round;" /><path d="M 343.7999999999999,126.0 L 343.7999999999999,187.20000000000002" id="na" class="arrow" style="stroke:black;fill:none;stroke-width:2.0;stroke-linecap:round;stroke-linejoin:round;" /><path d="M 343.7999999999999 196.0 L 340.1999999999999 187.2 L 347.3999999999999 187.2 Z" style="stroke:black;fill:black;stroke-linecap:butt;stroke-linejoin:miter;" class="arrow" /><path d="M 215.9999999999999,216.0 L 215.9999999999999,270.0 L 215.99999999999983,324.0" id="na" class="na" style="stroke:black;fill:none;stroke-width:2.0;stroke-linecap:round;stroke-linejoin:round;" /><path d="M 323.9999999999999,216.0 L 269.9999999999999,216.0 L 215.9999999999999,216.0" id="na" class="na" style="stroke:black;fill:none;stroke-width:2.0;stroke-linecap:round;stroke-linejoin:round;" /><path d="M 215.99999999999983,324.0 L 215.99999999999983,360.0 L 224.99999999999983,360.0 L 224.99999999999983,396.0 L 206.99999999999983,396.0 L 206.99999999999983,360.0 L 215.99999999999983,360.0 M 215.99999999999983,396.0 L 215.9999999999998,432.0" id="R6" class="7.0 \Omega" style="stroke:black;fill:none;stroke-width:2.0;stroke-linecap:round;stroke-linejoin:round;" /><path d="M 235.79999999999984,342.0 L 235.79999999999984,403.2" id="na" class="arrow" style="stroke:black;fill:none;stroke-width:2.0;stroke-linecap:round;stroke-linejoin:round;" /><path d="M 235.79999999999984 412.0 L 232.19999999999985 403.20000000000005 L 239.39999999999984 403.20000000000005 Z" style="stroke:black;fill:black;stroke-linecap:butt;stroke-linejoin:miter;" class="arrow" /><path d="M 215.9999999999998,432.0 L 161.9999999999998,432.0 L 107.9999999999998,432.0" id="na" class="na" style="stroke:black;fill:none;stroke-width:2.0;stroke-linecap:round;stroke-linejoin:round;" /><path d="M 107.9999999999998,432.0 L 53.99999999999981,432.0 L -1.9184653865522705e-13,432.0" id="na" class="na" style="stroke:black;fill:none;stroke-width:2.0;stroke-linecap:round;stroke-linejoin:round;" /><path d="M -1.9184653865522705e-13,432.0 L -1.885399922975292e-13,378.0 L -1.8523344593983135e-13,324.0" id="na" class="na" style="stroke:black;fill:none;stroke-width:2.0;stroke-linecap:round;stroke-linejoin:round;" /><path d="M -1.8523344593983135e-13,324.0 L -1.819268995821335e-13,270.0 L -1.7862035322443565e-13,216.0" id="na" class="na" style="stroke:black;fill:none;stroke-width:2.0;stroke-linecap:round;stroke-linejoin:round;" /><path d="M -1.7862035322443565e-13,216.0 L -1.753138068667378e-13,162.0 L -1.7200726050903996e-13,108.0" id="na" class="na" style="stroke:black;fill:none;stroke-width:2.0;stroke-linecap:round;stroke-linejoin:round;" /><path d="M -1.7200726050903996e-13,108.0 L -8.476785348968027e-14,54.0 L 2.4715535296794107e-15,-0.0" id="na" class="na" style="stroke:black;fill:none;stroke-width:2.0;stroke-linecap:round;stroke-linejoin:round;" /><text x="32.400000000000006" y="-59.6" fill="black" font-size="14.0" font-family="sans" text-anchor="start" class="arrow"><tspan x="32.400000000000006" dy="14.0">U<tspan baseline-shift="sub" font-size="smaller">ges</tspan></tspan></text><text x="199.79999999999995" y="-59.6" fill="black" font-size="14.0" font-family="sans" text-anchor="end" class="na"><tspan x="199.79999999999995" dy="14.0">R2</tspan></text><text x="239.39999999999998" y="-59.6" fill="black" font-size="14.0" font-family="sans" text-anchor="start" class="arrow"><tspan x="239.39999999999998" dy="14.0">U2</tspan></text><text x="307.79999999999995" y="-59.6" fill="black" font-size="14.0" font-family="sans" text-anchor="end" class="na"><tspan x="307.79999999999995" dy="14.0">R3</tspan></text><text x="347.40000000000003" y="-59.6" fill="black" font-size="14.0" font-family="sans" text-anchor="start" class="arrow"><tspan x="347.40000000000003" dy="14.0">U3</tspan></text><text x="91.79999999999995" y="-59.600000000000016" fill="black" font-size="14.0" font-family="sans" text-anchor="end" class="na"><tspan x="91.79999999999995" dy="14.0">R1</tspan></text><text x="131.39999999999995" y="-59.600000000000016" fill="black" font-size="14.0" font-family="sans" text-anchor="start" class="arrow"><tspan x="131.39999999999995" dy="14.0">U1</tspan></text><text x="199.7999999999999" y="156.4" fill="black" font-size="14.0" font-family="sans" text-anchor="end" class="na"><tspan x="199.7999999999999" dy="14.0">R4</tspan></text><text x="239.39999999999992" y="156.4" fill="black" font-size="14.0" font-family="sans" text-anchor="start" class="arrow"><tspan x="239.39999999999992" dy="14.0">U4</tspan></text><text x="307.79999999999984" y="156.4" fill="black" font-size="14.0" font-family="sans" text-anchor="end" class="na"><tspan x="307.79999999999984" dy="14.0">R5</tspan></text><text x="347.39999999999986" y="156.4" fill="black" font-size="14.0" font-family="sans" text-anchor="start" class="arrow"><tspan x="347.39999999999986" dy="14.0">U5</tspan></text><text x="199.79999999999984" y="372.40000000000003" fill="black" font-size="14.0" font-family="sans" text-anchor="end" class="na"><tspan x="199.79999999999984" dy="14.0">R6</tspan></text><text x="239.39999999999986" y="372.40000000000003" fill="black" font-size="14.0" font-family="sans" text-anchor="start" class="arrow"><tspan x="239.39999999999986" dy="14.0">U6</tspan></text><path d="M 8.817456953860937e-16,-14.399999999999997 L 8.81745695386094e-16,-14.399999999999999" id="na" class="arrow" style="stroke:black;fill:none;stroke-width:2.0;stroke-linecap:round;stroke-linejoin:round;" /><path d="M 1.4205902870109293e-15 -23.2 L 5.4 -14.400000000000002 L -5.399999999999999 -14.400000000000002 Z" style="stroke:black;fill:black;stroke-linecap:butt;stroke-linejoin:miter;" class="arrow" /><text x="-10.799999999999997" y="-25.4" fill="black" font-size="14.0" font-family="sans" text-anchor="end" class="arrow"><tspan x="-10.799999999999997" dy="14.0">I<tspan baseline-shift="sub" font-size="smaller">ges</tspan></tspan></text><path d="M 215.99999999999997,-93.60000000000001 L 215.99999999999997,-93.6" id="na" class="arrow" style="stroke:black;fill:none;stroke-width:2.0;stroke-linecap:round;stroke-linejoin:round;" /><path d="M 215.99999999999997 -84.8 L 210.59999999999997 -93.60000000000001 L 221.39999999999998 -93.60000000000001 Z" style="stroke:black;fill:black;stroke-linecap:butt;stroke-linejoin:miter;" class="arrow" /><text x="205.2" y="-93.80000000000001" fill="black" font-size="14.0" font-family="sans" text-anchor="end" class="arrow"><tspan x="205.2" dy="14.0">I2</tspan></text><path d="M 324.0,-93.60000000000001 L 324.0,-93.6" id="na" class="arrow" style="stroke:black;fill:none;stroke-width:2.0;stroke-linecap:round;stroke-linejoin:round;" /><path d="M 324.0 -84.8 L 318.6 -93.60000000000001 L 329.4 -93.60000000000001 Z" style="stroke:black;fill:black;stroke-linecap:butt;stroke-linejoin:miter;" class="arrow" /><text x="313.2" y="-93.80000000000001" fill="black" font-size="14.0" font-family="sans" text-anchor="end" class="arrow"><tspan x="313.2" dy="14.0">I3</tspan></text><path d="M 107.99999999999996,-93.60000000000002 L 107.99999999999996,-93.60000000000002" id="na" class="arrow" style="stroke:black;fill:none;stroke-width:2.0;stroke-linecap:round;stroke-linejoin:round;" /><path d="M 107.99999999999996 -84.80000000000003 L 102.59999999999995 -93.60000000000004 L 113.39999999999996 -93.60000000000004 Z" style="stroke:black;fill:black;stroke-linecap:butt;stroke-linejoin:miter;" class="arrow" /><text x="97.19999999999996" y="-93.80000000000003" fill="black" font-size="14.0" font-family="sans" text-anchor="end" class="arrow"><tspan x="97.19999999999996" dy="14.0">I1</tspan></text><path d="M 215.99999999999991,122.39999999999999 L 215.99999999999991,122.4" id="na" class="arrow" style="stroke:black;fill:none;stroke-width:2.0;stroke-linecap:round;stroke-linejoin:round;" /><path d="M 215.99999999999991 131.20000000000002 L 210.5999999999999 122.4 L 221.39999999999992 122.4 Z" style="stroke:black;fill:black;stroke-linecap:butt;stroke-linejoin:miter;" class="arrow" /><text x="205.1999999999999" y="122.2" fill="black" font-size="14.0" font-family="sans" text-anchor="end" class="arrow"><tspan x="205.1999999999999" dy="14.0">I4</tspan></text><path d="M 323.9999999999999,122.39999999999999 L 323.9999999999999,122.4" id="na" class="arrow" style="stroke:black;fill:none;stroke-width:2.0;stroke-linecap:round;stroke-linejoin:round;" /><path d="M 323.9999999999999 131.20000000000002 L 318.5999999999999 122.4 L 329.39999999999986 122.4 Z" style="stroke:black;fill:black;stroke-linecap:butt;stroke-linejoin:miter;" class="arrow" /><text x="313.1999999999998" y="122.2" fill="black" font-size="14.0" font-family="sans" text-anchor="end" class="arrow"><tspan x="313.1999999999998" dy="14.0">I5</tspan></text><path d="M 215.99999999999983,338.40000000000003 L 215.99999999999983,338.4" id="na" class="arrow" style="stroke:black;fill:none;stroke-width:2.0;stroke-linecap:round;stroke-linejoin:round;" /><path d="M 215.99999999999983 347.2 L 210.59999999999982 338.40000000000003 L 221.39999999999984 338.40000000000003 Z" style="stroke:black;fill:black;stroke-linecap:butt;stroke-linejoin:miter;" class="arrow" /><text x="205.19999999999985" y="338.20000000000005" fill="black" font-size="14.0" font-family="sans" text-anchor="end" class="arrow"><tspan x="205.19999999999985" dy="14.0">I6</tspan></text><circle cx="215.99999999999997" cy="-108.0" r="2.6999999999999997" style="stroke:black;fill:black;stroke-width:2.0;" /><circle cx="215.99999999999994" cy="-0.0" r="2.6999999999999997" style="stroke:black;fill:black;stroke-width:2.0;" /><circle cx="215.99999999999991" cy="108.0" r="2.6999999999999997" style="stroke:black;fill:black;stroke-width:2.0;" /><circle cx="215.9999999999999" cy="216.0" r="2.6999999999999997" style="stroke:black;fill:black;stroke-width:2.0;" /></svg>