<svg xmlns="http://www.w3.org/2000/svg" xml:lang="en" height="664.4pt" width="507.896pt" viewBox="-90.14800000000001 -227.79999999999998 507.896 664.4"><circle cx="3.3065463576978533e-15" cy="-54.0" r="18.0" style="stroke:black;fill:none;stroke-width:2.0;" /><path d="M 0.0,-0.0 L 2.204364238465236e-15,-36.0 L 2.204364238465236e-15,-36.0 M 4.408728476930472e-15,-72.0 L 4.408728476930472e-15,-72.0 L 6.613092715395707e-15,-108.0" id="na" class="na" style="stroke:black;fill:none;stroke-width:2.0;stroke-linecap:round;stroke-linejoin:round;" /><path d="M 2.7554552980815448e-15,-45.0 L 3.3065463576978533e-15,-54.0" id="na" class="na" style="stroke:black;fill:none;stroke-width:2.0;stroke-linecap:round;stroke-linejoin:round;" /><path d="M 3.7351727373994275e-15 -61.0 L 2.700000000000003 -54.0 L -2.6999999999999966 -54.0 Z" style="stroke:black;fill:black;stroke-linecap:butt;stroke-linejoin:miter;" class="na" /><path d="M 23.400000000000002,-37.800000000000004 L 23.400000000000006,-81.0" id="na" class="voltage-label arrow U1" style="stroke:black;fill:none;stroke-width:2.0;stroke-linecap:round;stroke-linejoin:round;" /><path d="M 23.400000000000002 -29.0 L 19.800000000000004 -37.8 L 27.000000000000004 -37.8 Z" style="stroke:black;fill:black;stroke-linecap:butt;stroke-linejoin:miter;" class="voltage-label arrow U1" /><path d="M 6.613092715395707e-15,-108.0 L 9.919639073093561e-15,-162.0 L 1.3226185430791413e-14,-216.0" id="na" class="na" style="stroke:black;fill:none;stroke-width:2.0;stroke-linecap:round;stroke-linejoin:round;" /><path d="M 1.3226185430791413e-14,-216.0 L 54.000000000000014,-216.0 L 108.00000000000001,-216.0" id="na" class="na" style="stroke:black;fill:none;stroke-width:2.0;stroke-linecap:round;stroke-linejoin:round;" /><path d="M 108.00000000000001,-216.0 L 162.0,-216.0 L 216.0,-216.0" id="na" class="na" style="stroke:black;fill:none;stroke-width:2.0;stroke-linecap:round;stroke-linejoin:round;" /><path d="M 216.0,-216.0 L 216.0,-162.0 L 215.99999999999997,-108.0" id="na" class="na" style="stroke:black;fill:none;stroke-width:2.0;stroke-linecap:round;stroke-linejoin:round;" /><path d="M 215.99999999999997,-108.0 L 161.99999999999997,-108.0 L 107.99999999999997,-108.00000000000001" id="na" class="na" style="stroke:black;fill:none;stroke-width:2.0;stroke-linecap:round;stroke-linejoin:round;" /><path d="M 215.99999999999997,-108.0 L 215.99999999999997,-72.0 L 224.99999999999997,-72.0 L 224.99999999999997,-36.0 L 206.99999999999997,-36.0 L 206.99999999999997,-72.0 L 215.99999999999997,-72.0 M 215.99999999999997,-36.0 L 215.99999999999994,-0.0" id="R2" class="6.0 \Omega" style="stroke:black;fill:transparent;stroke-width:2.0;stroke-linecap:round;stroke-linejoin:round;" /><path d="M 230.39999999999998,-81.0 L 230.39999999999995,-37.800000000000004" id="na" class="voltage-label arrow U2" style="stroke:black;fill:none;stroke-width:2.0;stroke-linecap:round;stroke-linejoin:round;" /><path d="M 230.39999999999995 -29.0 L 226.79999999999995 -37.800000000000004 L 233.99999999999994 -37.8 Z" style="stroke:black;fill:black;stroke-linecap:butt;stroke-linejoin:miter;" class="voltage-label arrow U2" /><path d="M 215.99999999999997,-108.0 L 269.99999999999994,-108.0 L 324.0,-108.0" id="na" class="na" style="stroke:black;fill:none;stroke-width:2.0;stroke-linecap:round;stroke-linejoin:round;" /><path d="M 324.0,-108.0 L 324.0,-72.0 L 333.0,-72.0 L 333.0,-36.0 L 315.0,-36.0 L 315.0,-72.0 L 324.0,-72.0 M 324.0,-36.0 L 324.0,-0.0" id="R3" class="2.0 \Omega" style="stroke:black;fill:transparent;stroke-width:2.0;stroke-linecap:round;stroke-linejoin:round;" /><path d="M 338.40000000000003,-81.0 L 338.40000000000003,-37.800000000000004" id="na" class="voltage-label arrow U3" style="stroke:black;fill:none;stroke-width:2.0;stroke-linecap:round;stroke-linejoin:round;" /><path d="M 338.40000000000003 -29.0 L 334.8 -37.8 L 342.00000000000006 -37.8 Z" style="stroke:black;fill:black;stroke-linecap:butt;stroke-linejoin:miter;" class="voltage-label arrow U3" /><path d="M 107.99999999999997,-108.00000000000001 L 107.99999999999997,-72.00000000000001 L 116.99999999999997,-72.00000000000001 L 116.99999999999996,-36.000000000000014 L 98.99999999999996,-36.000000000000014 L 98.99999999999997,-72.00000000000001 L 107.99999999999997,-72.00000000000001 M 107.99999999999996,-36.000000000000014 L 107.99999999999996,-1.5987211554602254e-14" id="R1" class="3.0 \Omega" style="stroke:black;fill:transparent;stroke-width:2.0;stroke-linecap:round;stroke-linejoin:round;" /><path d="M 122.39999999999995,-81.00000000000001 L 122.39999999999995,-37.80000000000002" id="na" class="voltage-label arrow U1" style="stroke:black;fill:none;stroke-width:2.0;stroke-linecap:round;stroke-linejoin:round;" /><path d="M 122.39999999999995 -29.000000000000014 L 118.79999999999995 -37.80000000000001 L 125.99999999999994 -37.80000000000001 Z" style="stroke:black;fill:black;stroke-linecap:butt;stroke-linejoin:miter;" class="voltage-label arrow U1" /><path d="M 107.99999999999996,-1.5987211554602254e-14 L 161.99999999999994,-7.993605777301127e-15 L 215.99999999999994,-0.0" id="na" class="na" style="stroke:black;fill:none;stroke-width:2.0;stroke-linecap:round;stroke-linejoin:round;" /><path d="M 215.99999999999994,-0.0 L 215.99999999999994,54.0 L 215.99999999999991,108.0" id="na" class="na" style="stroke:black;fill:none;stroke-width:2.0;stroke-linecap:round;stroke-linejoin:round;" /><path d="M 324.0,-0.0 L 269.99999999999994,-6.6130927153957114e-15 L 215.99999999999994,-1.3226185430791423e-14" id="na" class="na" style="stroke:black;fill:none;stroke-width:2.0;stroke-linecap:round;stroke-linejoin:round;" /><path d="M 215.99999999999991,108.0 L 215.99999999999991,144.0 L 224.99999999999991,144.0 L 224.99999999999991,180.0 L 206.99999999999991,180.0 L 206.99999999999991,144.0 L 215.99999999999991,144.0 M 215.99999999999991,180.0 L 215.9999999999999,216.0" id="R4" class="20.0 \Omega" style="stroke:black;fill:transparent;stroke-width:2.0;stroke-linecap:round;stroke-linejoin:round;" /><path d="M 230.39999999999992,135.0 L 230.3999999999999,178.20000000000002" id="na" class="voltage-label arrow U4" style="stroke:black;fill:none;stroke-width:2.0;stroke-linecap:round;stroke-linejoin:round;" /><path d="M 230.3999999999999 187.0 L 226.7999999999999 178.2 L 233.9999999999999 178.2 Z" style="stroke:black;fill:black;stroke-linecap:butt;stroke-linejoin:miter;" class="voltage-label arrow U4" /><path d="M 215.99999999999991,108.0 L 269.9999999999999,108.0 L 323.9999999999999,108.0" id="na" class="na" style="stroke:black;fill:none;stroke-width:2.0;stroke-linecap:round;stroke-linejoin:round;" /><path d="M 323.9999999999999,108.0 L 323.9999999999999,144.0 L 332.9999999999999,144.0 L 332.9999999999999,180.0 L 314.9999999999999,180.0 L 314.9999999999999,144.0 L 323.9999999999999,144.0 M 323.9999999999999,180.0 L 323.9999999999999,216.0" id="R5" class="30.0 \Omega" style="stroke:black;fill:transparent;stroke-width:2.0;stroke-linecap:round;stroke-linejoin:round;" /><path d="M 338.39999999999986,135.0 L 338.39999999999986,178.20000000000002" id="na" class="voltage-label arrow U5" style="stroke:black;fill:none;stroke-width:2.0;stroke-linecap:round;stroke-linejoin:round;" /><path d="M 338.39999999999986 187.0 L 334.79999999999984 178.2 L 341.9999999999999 178.2 Z" style="stroke:black;fill:black;stroke-linecap:butt;stroke-linejoin:miter;" class="voltage-label arrow U5" /><path d="M 215.9999999999999,216.0 L 215.9999999999999,270.0 L 215.99999999999983,324.0" id="na" class="na" style="stroke:black;fill:none;stroke-width:2.0;stroke-linecap:round;stroke-linejoin:round;" /><path d="M 323.9999999999999,216.0 L 269.9999999999999,216.0 L 215.9999999999999,216.0" id="na" class="na" style="stroke:black;fill:none;stroke-width:2.0;stroke-linecap:round;stroke-linejoin:round;" /><path d="M 215.99999999999983,324.0 L 215.99999999999983,360.0 L 224.99999999999983,360.0 L 224.99999999999983,396.0 L 206.99999999999983,396.0 L 206.99999999999983,360.0 L 215.99999999999983,360.0 M 215.99999999999983,396.0 L 215.9999999999998,432.0" id="R6" class="7.0 \Omega" style="stroke:black;fill:transparent;stroke-width:2.0;stroke-linecap:round;stroke-linejoin:round;" /><path d="M 230.39999999999986,351.0 L 230.3999999999998,394.2" id="na" class="voltage-label arrow U6" style="stroke:black;fill:none;stroke-width:2.0;stroke-linecap:round;stroke-linejoin:round;" /><path d="M 230.3999999999998 403.0 L 226.7999999999998 394.20000000000005 L 233.9999999999998 394.20000000000005 Z" style="stroke:black;fill:black;stroke-linecap:butt;stroke-linejoin:miter;" class="voltage-label arrow U6" /><path d="M 215.9999999999998,432.0 L 161.9999999999998,432.0 L 107.9999999999998,432.0" id="na" class="na" style="stroke:black;fill:none;stroke-width:2.0;stroke-linecap:round;stroke-linejoin:round;" /><path d="M 107.9999999999998,432.0 L 53.99999999999981,432.0 L -1.9184653865522705e-13,432.0" id="na" class="na" style="stroke:black;fill:none;stroke-width:2.0;stroke-linecap:round;stroke-linejoin:round;" /><path d="M -1.9184653865522705e-13,432.0 L -1.885399922975292e-13,378.0 L -1.8523344593983135e-13,324.0" id="na" class="na" style="stroke:black;fill:none;stroke-width:2.0;stroke-linecap:round;stroke-linejoin:round;" /><path d="M -1.8523344593983135e-13,324.0 L -1.819268995821335e-13,270.0 L -1.7862035322443565e-13,216.0" id="na" class="na" style="stroke:black;fill:none;stroke-width:2.0;stroke-linecap:round;stroke-linejoin:round;" /><path d="M -1.7862035322443565e-13,216.0 L -1.753138068667378e-13,162.0 L -1.7200726050903996e-13,108.0" id="na" class="na" style="stroke:black;fill:none;stroke-width:2.0;stroke-linecap:round;stroke-linejoin:round;" /><path d="M -1.7200726050903996e-13,108.0 L -8.476785348968027e-14,54.0 L 2.4715535296794107e-15,-0.0" id="na" class="na" style="stroke:black;fill:none;stroke-width:2.0;stroke-linecap:round;stroke-linejoin:round;" /><text x="-14.399999999999999" y="-45.2" fill="black" font-size="14.0" font-family="sans" text-anchor="end" class="element-label ###.### ##"><tspan x="-14.399999999999999" dy="14.0">###.### ##</tspan></text><text x="27.000000000000004" y="-52.400000000000006" fill="black" font-size="14.0" font-family="sans" text-anchor="start" class="voltage-label arrow Uges"><tspan x="27.000000000000004" dy="14.0">###.### ##</tspan></text><text x="203.39999999999995" y="-73.99999999999999" fill="black" font-size="14.0" font-family="sans" text-anchor="end" class="element-label ###.### ##"><tspan x="203.39999999999995" dy="14.0">###.### ##</tspan></text><text x="233.99999999999997" y="-52.4" fill="black" font-size="14.0" font-family="sans" text-anchor="start" class="voltage-label arrow U2"><tspan x="233.99999999999997" dy="14.0">###.### ##</tspan></text><text x="311.40000000000003" y="-73.99999999999999" fill="black" font-size="14.0" font-family="sans" text-anchor="end" class="element-label ###.### ##"><tspan x="311.40000000000003" dy="14.0">###.### ##</tspan></text><text x="342.0" y="-52.4" fill="black" font-size="14.0" font-family="sans" text-anchor="start" class="voltage-label arrow U3"><tspan x="342.0" dy="14.0">###.### ##</tspan></text><text x="95.39999999999996" y="-74.0" fill="black" font-size="14.0" font-family="sans" text-anchor="end" class="element-label ###.### ##"><tspan x="95.39999999999996" dy="14.0">###.### ##</tspan></text><text x="125.99999999999996" y="-52.40000000000001" fill="black" font-size="14.0" font-family="sans" text-anchor="start" class="voltage-label arrow U1"><tspan x="125.99999999999996" dy="14.0">###.### ##</tspan></text><text x="203.3999999999999" y="142.0" fill="black" font-size="14.0" font-family="sans" text-anchor="end" class="element-label ###.### ##"><tspan x="203.3999999999999" dy="14.0">###.### ##</tspan></text><text x="233.99999999999991" y="163.60000000000002" fill="black" font-size="14.0" font-family="sans" text-anchor="start" class="voltage-label arrow U4"><tspan x="233.99999999999991" dy="14.0">###.### ##</tspan></text><text x="311.39999999999986" y="142.0" fill="black" font-size="14.0" font-family="sans" text-anchor="end" class="element-label ###.### ##"><tspan x="311.39999999999986" dy="14.0">###.### ##</tspan></text><text x="341.9999999999999" y="163.60000000000002" fill="black" font-size="14.0" font-family="sans" text-anchor="start" class="voltage-label arrow U5"><tspan x="341.9999999999999" dy="14.0">###.### ##</tspan></text><text x="203.3999999999998" y="358.0" fill="black" font-size="14.0" font-family="sans" text-anchor="end" class="element-label ###.### ##"><tspan x="203.3999999999998" dy="14.0">###.### ##</tspan></text><text x="233.99999999999983" y="379.6" fill="black" font-size="14.0" font-family="sans" text-anchor="start" class="voltage-label arrow U6"><tspan x="233.99999999999983" dy="14.0">###.### ##</tspan></text><path d="M 8.817456953860937e-16,-14.399999999999997 L 8.81745695386094e-16,-14.399999999999999" id="na" class="current-label arrow I1" style="stroke:black;fill:none;stroke-width:2.0;stroke-linecap:round;stroke-linejoin:round;" /><path d="M 1.4205902870109293e-15 -23.2 L 5.4 -14.400000000000002 L -5.399999999999999 -14.400000000000002 Z" style="stroke:black;fill:black;stroke-linecap:butt;stroke-linejoin:miter;" class="current-label arrow I1" /><text x="-10.799999999999997" y="-29.0" fill="black" font-size="14.0" font-family="sans" text-anchor="end" class="current-label arrow Iges"><tspan x="-10.799999999999997" dy="14.0">###.### ##</tspan></text><path d="M 215.99999999999997,-93.60000000000001 L 215.99999999999997,-93.6" id="na" class="current-label arrow I2" style="stroke:black;fill:none;stroke-width:2.0;stroke-linecap:round;stroke-linejoin:round;" /><path d="M 215.99999999999997 -84.8 L 210.59999999999997 -93.60000000000001 L 221.39999999999998 -93.60000000000001 Z" style="stroke:black;fill:black;stroke-linecap:butt;stroke-linejoin:miter;" class="current-label arrow I2" /><text x="205.2" y="-97.4" fill="black" font-size="14.0" font-family="sans" text-anchor="end" class="current-label arrow I2"><tspan x="205.2" dy="14.0">###.### ##</tspan></text><path d="M 324.0,-93.60000000000001 L 324.0,-93.6" id="na" class="current-label arrow I3" style="stroke:black;fill:none;stroke-width:2.0;stroke-linecap:round;stroke-linejoin:round;" /><path d="M 324.0 -84.8 L 318.6 -93.60000000000001 L 329.4 -93.60000000000001 Z" style="stroke:black;fill:black;stroke-linecap:butt;stroke-linejoin:miter;" class="current-label arrow I3" /><text x="313.2" y="-97.4" fill="black" font-size="14.0" font-family="sans" text-anchor="end" class="current-label arrow I3"><tspan x="313.2" dy="14.0">###.### ##</tspan></text><path d="M 107.99999999999996,-93.60000000000002 L 107.99999999999996,-93.60000000000002" id="na" class="current-label arrow I1" style="stroke:black;fill:none;stroke-width:2.0;stroke-linecap:round;stroke-linejoin:round;" /><path d="M 107.99999999999996 -84.80000000000003 L 102.59999999999995 -93.60000000000004 L 113.39999999999996 -93.60000000000004 Z" style="stroke:black;fill:black;stroke-linecap:butt;stroke-linejoin:miter;" class="current-label arrow I1" /><text x="97.19999999999996" y="-97.40000000000003" fill="black" font-size="14.0" font-family="sans" text-anchor="end" class="current-label arrow I1"><tspan x="97.19999999999996" dy="14.0">###.### ##</tspan></text><path d="M 215.99999999999991,122.39999999999999 L 215.99999999999991,122.4" id="na" class="current-label arrow I4" style="stroke:black;fill:none;stroke-width:2.0;stroke-linecap:round;stroke-linejoin:round;" /><path d="M 215.99999999999991 131.20000000000002 L 210.5999999999999 122.4 L 221.39999999999992 122.4 Z" style="stroke:black;fill:black;stroke-linecap:butt;stroke-linejoin:miter;" class="current-label arrow I4" /><text x="205.1999999999999" y="118.60000000000001" fill="black" font-size="14.0" font-family="sans" text-anchor="end" class="current-label arrow I4"><tspan x="205.1999999999999" dy="14.0">###.### ##</tspan></text><path d="M 323.9999999999999,122.39999999999999 L 323.9999999999999,122.4" id="na" class="current-label arrow I5" style="stroke:black;fill:none;stroke-width:2.0;stroke-linecap:round;stroke-linejoin:round;" /><path d="M 323.9999999999999 131.20000000000002 L 318.5999999999999 122.4 L 329.39999999999986 122.4 Z" style="stroke:black;fill:black;stroke-linecap:butt;stroke-linejoin:miter;" class="current-label arrow I5" /><text x="313.1999999999998" y="118.60000000000001" fill="black" font-size="14.0" font-family="sans" text-anchor="end" class="current-label arrow I5"><tspan x="313.1999999999998" dy="14.0">###.### ##</tspan></text><path d="M 215.99999999999983,338.40000000000003 L 215.99999999999983,338.4" id="na" class="current-label arrow I6" style="stroke:black;fill:none;stroke-width:2.0;stroke-linecap:round;stroke-linejoin:round;" /><path d="M 215.99999999999983 347.2 L 210.59999999999982 338.40000000000003 L 221.39999999999984 338.40000000000003 Z" style="stroke:black;fill:black;stroke-linecap:butt;stroke-linejoin:miter;" class="current-label arrow I6" /><text x="205.19999999999985" y="334.6" fill="black" font-size="14.0" font-family="sans" text-anchor="end" class="current-label arrow I6"><tspan x="205.19999999999985" dy="14.0">###.### ##</tspan></text><circle cx="215.99999999999997" cy="-108.0" r="2.6999999999999997" style="stroke:black;fill:black;stroke-width:2.0;" /><circle cx="215.99999999999994" cy="-0.0" r="2.6999999999999997" style="stroke:black;fill:black;stroke-width:2.0;" /><circle cx="215.99999999999991" cy="108.0" r="2.6999999999999997" style="stroke:black;fill:black;stroke-width:2.0;" /><circle cx="215.9999999999999" cy="216.0" r="2.6999999999999997" style="stroke:black;fill:black;stroke-width:2.0;" /></svg>