<svg xmlns="http://www.w3.org/2000/svg" xml:lang="en" height="620.2pt" width="343.09999999999997pt" viewBox="-119.80000000000003 -572.0 343.09999999999997 620.2"><circle cx="54.0" cy="-0.0" r="18.0" style="stroke:black;fill:none;stroke-width:2.0;" /><path d="M 0.0,-0.0 L 36.0,-0.0 L 36.0,-0.0 M 72.0,-0.0 L 72.0,-0.0 L 108.0,-0.0" id="na" class="na" style="stroke:black;fill:none;stroke-width:2.0;stroke-linecap:round;stroke-linejoin:round;" /><path d="M 45.0,3.6 L 45.0,-3.6" id="na" class="na" style="stroke:black;fill:none;stroke-width:2.0;stroke-linecap:round;stroke-linejoin:round;" /><path d="M 59.4,-0.0 L 66.60000000000001,-0.0" id="na" class="na" style="stroke:black;fill:none;stroke-width:2.0;stroke-linecap:round;stroke-linejoin:round;" /><path d="M 63.0,3.6 L 63.0,-3.6" id="na" class="na" style="stroke:black;fill:none;stroke-width:2.0;stroke-linecap:round;stroke-linejoin:round;" /><path d="M 28.8,28.8 L 90.0,28.8" id="na" class="arrow" style="stroke:black;fill:none;stroke-width:2.0;stroke-linecap:round;stroke-linejoin:round;" /><path d="M 20.0 28.8 L 28.799999999999997 25.200000000000003 L 28.799999999999997 32.4 Z" style="stroke:black;fill:black;stroke-linecap:butt;stroke-linejoin:miter;" class="arrow" /><path d="M 0.0,-0.0 L -54.0,-6.613092715395707e-15 L -108.0,-1.3226185430791413e-14" id="na" class="na" style="stroke:black;fill:none;stroke-width:2.0;stroke-linecap:round;stroke-linejoin:round;" /><path d="M 108.0,-0.0 L 162.0,-0.0 L 216.0,-0.0" id="na" class="na" style="stroke:black;fill:none;stroke-width:2.0;stroke-linecap:round;stroke-linejoin:round;" /><path d="M 216.0,-0.0 L 216.0,-54.0 L 216.0,-108.0" id="na" class="na" style="stroke:black;fill:none;stroke-width:2.0;stroke-linecap:round;stroke-linejoin:round;" /><path d="M 216.0,-108.0 L 216.0,-162.0 L 216.0,-216.0" id="na" class="na" style="stroke:black;fill:none;stroke-width:2.0;stroke-linecap:round;stroke-linejoin:round;" /><path d="M 216.0,-108.0 L 162.0,-108.0 L 108.0,-108.00000000000001" id="na" class="na" style="stroke:black;fill:none;stroke-width:2.0;stroke-linecap:round;stroke-linejoin:round;" /><path d="M 216.0,-216.0 L 216.0,-270.0 L 216.0,-324.0" id="na" class="na" style="stroke:black;fill:none;stroke-width:2.0;stroke-linecap:round;stroke-linejoin:round;" /><path d="M 216.0,-324.0 L 216.0,-378.0 L 216.0,-432.0" id="na" class="na" style="stroke:black;fill:none;stroke-width:2.0;stroke-linecap:round;stroke-linejoin:round;" /><path d="M 216.0,-324.0 L 162.0,-324.0 L 108.0,-324.0" id="na" class="na" style="stroke:black;fill:none;stroke-width:2.0;stroke-linecap:round;stroke-linejoin:round;" /><path d="M 216.0,-432.0 L 216.0,-486.0 L 216.0,-540.0" id="na" class="na" style="stroke:black;fill:none;stroke-width:2.0;stroke-linecap:round;stroke-linejoin:round;" /><path d="M 216.0,-540.0 L 180.0,-540.0 L 180.0,-531.0 L 144.0,-531.0 L 144.0,-549.0 L 180.0,-549.0 L 180.0,-540.0 M 144.0,-540.0 L 108.0,-540.0" id="R4" class="8.0 \Omega" style="stroke:black;fill:none;stroke-width:2.0;stroke-linecap:round;stroke-linejoin:round;" /><path d="M 198.0,-520.1999999999999 L 136.79999999999998,-520.1999999999999" id="na" class="arrow" style="stroke:black;fill:none;stroke-width:2.0;stroke-linecap:round;stroke-linejoin:round;" /><path d="M 128.0 -520.1999999999999 L 136.8 -523.8 L 136.8 -516.5999999999999 Z" style="stroke:black;fill:black;stroke-linecap:butt;stroke-linejoin:miter;" class="arrow" /><path d="M 108.0,-540.0 L 72.0,-540.0 L 72.0,-531.0 L 36.0,-531.0 L 36.0,-549.0 L 72.0,-549.0 L 72.0,-540.0 M 36.0,-540.0 L 0.0,-540.0" id="R3" class="5.0 \Omega" style="stroke:black;fill:none;stroke-width:2.0;stroke-linecap:round;stroke-linejoin:round;" /><path d="M 90.0,-520.1999999999999 L 28.8,-520.1999999999999" id="na" class="arrow" style="stroke:black;fill:none;stroke-width:2.0;stroke-linecap:round;stroke-linejoin:round;" /><path d="M 20.0 -520.1999999999999 L 28.799999999999997 -523.8 L 28.799999999999997 -516.5999999999999 Z" style="stroke:black;fill:black;stroke-linecap:butt;stroke-linejoin:miter;" class="arrow" /><path d="M 0.0,-540.0 L -9.919639073093561e-15,-486.0 L -1.9839278146187122e-14,-432.0" id="na" class="na" style="stroke:black;fill:none;stroke-width:2.0;stroke-linecap:round;stroke-linejoin:round;" /><path d="M 108.0,-324.0 L 72.0,-324.0 L 72.0,-315.0 L 36.0,-315.0 L 36.0,-333.0 L 72.0,-333.0 L 72.0,-324.0 M 36.0,-324.0 L 0.0,-324.0" id="R5" class="17.0 \Omega" style="stroke:black;fill:none;stroke-width:2.0;stroke-linecap:round;stroke-linejoin:round;" /><path d="M 90.0,-304.2 L 28.8,-304.2" id="na" class="arrow" style="stroke:black;fill:none;stroke-width:2.0;stroke-linecap:round;stroke-linejoin:round;" /><path d="M 20.0 -304.2 L 28.799999999999997 -307.8 L 28.799999999999997 -300.59999999999997 Z" style="stroke:black;fill:black;stroke-linecap:butt;stroke-linejoin:miter;" class="arrow" /><path d="M 0.0,-324.0 L -9.919639073093561e-15,-270.0 L -1.9839278146187122e-14,-216.0" id="na" class="na" style="stroke:black;fill:none;stroke-width:2.0;stroke-linecap:round;stroke-linejoin:round;" /><path d="M 0.0,-324.0 L -8.683862308253837e-15,-378.0 L -1.7367724616507674e-14,-432.0" id="na" class="na" style="stroke:black;fill:none;stroke-width:2.0;stroke-linecap:round;stroke-linejoin:round;" /><path d="M 108.0,-108.00000000000001 L 72.0,-108.00000000000001 L 72.0,-99.00000000000001 L 36.0,-99.00000000000003 L 36.0,-117.00000000000003 L 72.0,-117.00000000000001 L 72.0,-108.00000000000001 M 36.0,-108.00000000000003 L 0.0,-108.00000000000003" id="R6" class="26.0 \Omega" style="stroke:black;fill:none;stroke-width:2.0;stroke-linecap:round;stroke-linejoin:round;" /><path d="M 90.0,-88.2 L 28.8,-88.20000000000002" id="na" class="arrow" style="stroke:black;fill:none;stroke-width:2.0;stroke-linecap:round;stroke-linejoin:round;" /><path d="M 20.0 -88.20000000000002 L 28.799999999999997 -91.80000000000001 L 28.799999999999997 -84.60000000000002 Z" style="stroke:black;fill:black;stroke-linecap:butt;stroke-linejoin:miter;" class="arrow" /><path d="M 0.0,-108.00000000000003 L -8.683862308253835e-15,-162.0 L -1.736772461650767e-14,-216.0" id="na" class="na" style="stroke:black;fill:none;stroke-width:2.0;stroke-linecap:round;stroke-linejoin:round;" /><path d="M -1.9839278146187122e-14,-216.0 L -36.000000000000014,-216.0 L -36.000000000000014,-207.0 L -72.00000000000001,-207.0 L -72.00000000000001,-225.0 L -36.000000000000014,-225.0 L -36.000000000000014,-216.0 M -72.00000000000001,-216.0 L -108.00000000000001,-216.0" id="R2" class="12.0 \Omega" style="stroke:black;fill:none;stroke-width:2.0;stroke-linecap:round;stroke-linejoin:round;" /><path d="M -18.000000000000014,-196.20000000000002 L -79.20000000000002,-196.20000000000002" id="na" class="arrow" style="stroke:black;fill:none;stroke-width:2.0;stroke-linecap:round;stroke-linejoin:round;" /><path d="M -88.00000000000001 -196.20000000000002 L -79.2 -199.8 L -79.2 -192.60000000000002 Z" style="stroke:black;fill:black;stroke-linecap:butt;stroke-linejoin:miter;" class="arrow" /><path d="M -1.9839278146187122e-14,-432.0 L -36.000000000000014,-432.0 L -36.000000000000014,-423.0 L -72.00000000000001,-423.0 L -72.00000000000001,-441.0 L -36.000000000000014,-441.0 L -36.000000000000014,-432.0 M -72.00000000000001,-432.0 L -108.00000000000001,-432.0" id="R1" class="24.0 \Omega" style="stroke:black;fill:none;stroke-width:2.0;stroke-linecap:round;stroke-linejoin:round;" /><path d="M -18.000000000000014,-412.2 L -79.20000000000002,-412.2" id="na" class="arrow" style="stroke:black;fill:none;stroke-width:2.0;stroke-linecap:round;stroke-linejoin:round;" /><path d="M -88.00000000000001 -412.2 L -79.2 -415.8 L -79.2 -408.59999999999997 Z" style="stroke:black;fill:black;stroke-linecap:butt;stroke-linejoin:miter;" class="arrow" /><path d="M -108.00000000000001,-432.0 L -108.00000000000003,-378.0 L -108.00000000000003,-324.0" id="na" class="na" style="stroke:black;fill:none;stroke-width:2.0;stroke-linecap:round;stroke-linejoin:round;" /><path d="M -108.00000000000003,-324.0 L -108.00000000000003,-270.0 L -108.00000000000003,-216.0" id="na" class="na" style="stroke:black;fill:none;stroke-width:2.0;stroke-linecap:round;stroke-linejoin:round;" /><path d="M -108.00000000000001,-216.0 L -108.00000000000003,-162.0 L -108.00000000000003,-108.0" id="na" class="na" style="stroke:black;fill:none;stroke-width:2.0;stroke-linecap:round;stroke-linejoin:round;" /><path d="M -108.00000000000003,-108.0 L -108.00000000000001,-54.00000000000001 L -108.0,-1.5987211554602254e-14" id="na" class="na" style="stroke:black;fill:none;stroke-width:2.0;stroke-linecap:round;stroke-linejoin:round;" /><text x="54.0" y="32.4" fill="black" font-size="14.0" font-family="sans" text-anchor="middle" class="arrow"><tspan x="54.0" dy="14.0">U<tspan baseline-shift="sub" font-size="smaller">ges</tspan></tspan></text><text x="162.0" y="-567.4" fill="black" font-size="14.0" font-family="sans" text-anchor="middle" class="na"><tspan x="162.0" dy="14.0">R4</tspan></text><text x="162.0" y="-516.6" fill="black" font-size="14.0" font-family="sans" text-anchor="middle" class="arrow"><tspan x="162.0" dy="14.0">U4</tspan></text><text x="54.0" y="-567.4" fill="black" font-size="14.0" font-family="sans" text-anchor="middle" class="na"><tspan x="54.0" dy="14.0">R3</tspan></text><text x="54.0" y="-516.6" fill="black" font-size="14.0" font-family="sans" text-anchor="middle" class="arrow"><tspan x="54.0" dy="14.0">U3</tspan></text><text x="54.0" y="-351.4" fill="black" font-size="14.0" font-family="sans" text-anchor="middle" class="na"><tspan x="54.0" dy="14.0">R5</tspan></text><text x="54.0" y="-300.59999999999997" fill="black" font-size="14.0" font-family="sans" text-anchor="middle" class="arrow"><tspan x="54.0" dy="14.0">U5</tspan></text><text x="54.0" y="-135.4" fill="black" font-size="14.0" font-family="sans" text-anchor="middle" class="na"><tspan x="54.0" dy="14.0">R6</tspan></text><text x="54.0" y="-84.60000000000002" fill="black" font-size="14.0" font-family="sans" text-anchor="middle" class="arrow"><tspan x="54.0" dy="14.0">U6</tspan></text><text x="-54.000000000000014" y="-243.4" fill="black" font-size="14.0" font-family="sans" text-anchor="middle" class="na"><tspan x="-54.000000000000014" dy="14.0">R2</tspan></text><text x="-54.000000000000014" y="-192.6" fill="black" font-size="14.0" font-family="sans" text-anchor="middle" class="arrow"><tspan x="-54.000000000000014" dy="14.0">U2</tspan></text><text x="-54.000000000000014" y="-459.4" fill="black" font-size="14.0" font-family="sans" text-anchor="middle" class="na"><tspan x="-54.000000000000014" dy="14.0">R1</tspan></text><text x="-54.000000000000014" y="-408.59999999999997" fill="black" font-size="14.0" font-family="sans" text-anchor="middle" class="arrow"><tspan x="-54.000000000000014" dy="14.0">U1</tspan></text><path d="M 14.399999999999997,-0.0 L 14.399999999999999,-0.0" id="na" class="arrow" style="stroke:black;fill:none;stroke-width:2.0;stroke-linecap:round;stroke-linejoin:round;" /><path d="M 23.2 0.0 L 14.400000000000002 5.3999999999999995 L 14.400000000000002 -5.3999999999999995 Z" style="stroke:black;fill:black;stroke-linecap:butt;stroke-linejoin:miter;" class="arrow" /><text x="19.799999999999997" y="-22.0" fill="black" font-size="14.0" font-family="sans" text-anchor="middle" class="arrow"><tspan x="19.799999999999997" dy="14.0">I<tspan baseline-shift="sub" font-size="smaller">ges</tspan></tspan></text><path d="M 201.6,-540.0 L 201.6,-540.0" id="na" class="arrow" style="stroke:black;fill:none;stroke-width:2.0;stroke-linecap:round;stroke-linejoin:round;" /><path d="M 192.79999999999998 -540.0 L 201.6 -545.4 L 201.6 -534.6 Z" style="stroke:black;fill:black;stroke-linecap:butt;stroke-linejoin:miter;" class="arrow" /><text x="196.20000000000002" y="-562.0000000000001" fill="black" font-size="14.0" font-family="sans" text-anchor="middle" class="arrow"><tspan x="196.20000000000002" dy="14.0">I4</tspan></text><path d="M 93.60000000000001,-540.0 L 93.6,-540.0" id="na" class="arrow" style="stroke:black;fill:none;stroke-width:2.0;stroke-linecap:round;stroke-linejoin:round;" /><path d="M 84.8 -540.0 L 93.60000000000001 -545.4 L 93.6 -534.6 Z" style="stroke:black;fill:black;stroke-linecap:butt;stroke-linejoin:miter;" class="arrow" /><text x="88.2" y="-562.0000000000001" fill="black" font-size="14.0" font-family="sans" text-anchor="middle" class="arrow"><tspan x="88.2" dy="14.0">I3</tspan></text><path d="M 93.60000000000001,-324.0 L 93.6,-324.0" id="na" class="arrow" style="stroke:black;fill:none;stroke-width:2.0;stroke-linecap:round;stroke-linejoin:round;" /><path d="M 84.8 -324.0 L 93.60000000000001 -329.4 L 93.6 -318.6 Z" style="stroke:black;fill:black;stroke-linecap:butt;stroke-linejoin:miter;" class="arrow" /><text x="88.2" y="-346.0" fill="black" font-size="14.0" font-family="sans" text-anchor="middle" class="arrow"><tspan x="88.2" dy="14.0">I5</tspan></text><path d="M 93.60000000000001,-108.00000000000001 L 93.6,-108.00000000000001" id="na" class="arrow" style="stroke:black;fill:none;stroke-width:2.0;stroke-linecap:round;stroke-linejoin:round;" /><path d="M 84.8 -108.00000000000001 L 93.60000000000001 -113.4 L 93.6 -102.60000000000001 Z" style="stroke:black;fill:black;stroke-linecap:butt;stroke-linejoin:miter;" class="arrow" /><text x="88.2" y="-130.0" fill="black" font-size="14.0" font-family="sans" text-anchor="middle" class="arrow"><tspan x="88.2" dy="14.0">I6</tspan></text><path d="M -14.400000000000013,-216.0 L -14.400000000000015,-216.0" id="na" class="arrow" style="stroke:black;fill:none;stroke-width:2.0;stroke-linecap:round;stroke-linejoin:round;" /><path d="M -23.200000000000014 -216.0 L -14.400000000000015 -221.4 L -14.400000000000016 -210.6 Z" style="stroke:black;fill:black;stroke-linecap:butt;stroke-linejoin:miter;" class="arrow" /><text x="-19.800000000000015" y="-237.99999999999997" fill="black" font-size="14.0" font-family="sans" text-anchor="middle" class="arrow"><tspan x="-19.800000000000015" dy="14.0">I2</tspan></text><path d="M -14.400000000000013,-432.0 L -14.400000000000015,-432.0" id="na" class="arrow" style="stroke:black;fill:none;stroke-width:2.0;stroke-linecap:round;stroke-linejoin:round;" /><path d="M -23.200000000000014 -432.0 L -14.400000000000015 -437.4 L -14.400000000000016 -426.6 Z" style="stroke:black;fill:black;stroke-linecap:butt;stroke-linejoin:miter;" class="arrow" /><text x="-19.800000000000015" y="-454.0" fill="black" font-size="14.0" font-family="sans" text-anchor="middle" class="arrow"><tspan x="-19.800000000000015" dy="14.0">I1</tspan></text><circle cx="216.0" cy="-108.0" r="2.6999999999999997" style="stroke:black;fill:black;stroke-width:2.0;" /><circle cx="216.0" cy="-324.0" r="2.6999999999999997" style="stroke:black;fill:black;stroke-width:2.0;" /><circle cx="-1.9839278146187122e-14" cy="-432.0" r="2.6999999999999997" style="stroke:black;fill:black;stroke-width:2.0;" /><circle cx="0.0" cy="-324.0" r="2.6999999999999997" style="stroke:black;fill:black;stroke-width:2.0;" /><circle cx="-1.9839278146187122e-14" cy="-216.0" r="2.6999999999999997" style="stroke:black;fill:black;stroke-width:2.0;" /><circle cx="-108.00000000000001" cy="-216.0" r="2.6999999999999997" style="stroke:black;fill:black;stroke-width:2.0;" /></svg>