<svg xmlns="http://www.w3.org/2000/svg" xml:lang="en" height="451.09999999999997pt" width="307.19599999999997pt" viewBox="-45.808 -227.79999999999998 307.19599999999997 451.09999999999997"><circle cx="3.3065463576978533e-15" cy="-54.0" r="18.0" style="stroke:black;fill:none;stroke-width:2.0;" /><path d="M 0.0,-0.0 L 2.204364238465236e-15,-36.0 L 2.204364238465236e-15,-36.0 M 4.408728476930472e-15,-72.0 L 4.408728476930472e-15,-72.0 L 6.613092715395707e-15,-108.0" id="na" class="na" style="stroke:black;fill:none;stroke-width:2.0;stroke-linecap:round;stroke-linejoin:round;" /><path d="M 9.000000000000004,-54.0 L 8.250000000000004,-55.86349712473816 L 7.500000000000004,-57.6 L 6.7500000000000036,-59.091168824543146 L 6.000000000000004,-60.23538290724795 L 5.250000000000004,-60.95466594928129 L 4.5000000000000036,-61.199999999999996 L 3.750000000000004,-60.9546659492813 L 3.000000000000004,-60.23538290724795 L 2.2500000000000036,-59.09116882454314 L 1.5000000000000042,-57.6 L 0.7500000000000037,-55.863497124738146 L 3.3065463576978533e-15,-54.0 L -0.7499999999999961,-52.136502875261854 L -1.4999999999999956,-50.400000000000006 L -2.249999999999997,-48.908831175456854 L -2.9999999999999964,-47.76461709275205 L -3.7499999999999956,-47.04533405071871 L -4.499999999999997,-46.800000000000004 L -5.2499999999999964,-47.0453340507187 L -5.999999999999996,-47.76461709275205 L -6.749999999999997,-48.90883117545686 L -7.4999999999999964,-50.4 L -8.249999999999996,-52.136502875261854 L -8.999999999999996,-54.0" id="na" class="na" style="stroke:black;fill:none;stroke-width:2.0;stroke-linecap:round;stroke-linejoin:round;" /><path d="M 28.8,-28.8 L 28.800000000000004,-90.0" id="na" class="arrow" style="stroke:black;fill:none;stroke-width:2.0;stroke-linecap:round;stroke-linejoin:round;" /><path d="M 28.8 -20.0 L 25.200000000000003 -28.799999999999997 L 32.4 -28.799999999999997 Z" style="stroke:black;fill:black;stroke-linecap:butt;stroke-linejoin:miter;" class="arrow" /><path d="M 6.613092715395707e-15,-108.0 L 9.919639073093561e-15,-162.0 L 1.3226185430791413e-14,-216.0" id="na" class="na" style="stroke:black;fill:none;stroke-width:2.0;stroke-linecap:round;stroke-linejoin:round;" /><path d="M 1.3226185430791413e-14,-216.0 L 54.000000000000014,-216.0 L 108.00000000000001,-216.0" id="na" class="na" style="stroke:black;fill:none;stroke-width:2.0;stroke-linecap:round;stroke-linejoin:round;" /><path d="M 108.00000000000001,-216.0 L 108.00000000000001,-180.0 L 117.00000000000001,-180.0 L 117.0,-144.0 L 99.0,-144.0 L 99.00000000000001,-180.0 L 108.00000000000001,-180.0 M 108.0,-144.0 L 108.0,-108.0" id="L1" class="100.0 \text{H}" style="stroke:black;fill:black;stroke-width:2.0;stroke-linecap:round;stroke-linejoin:round;" /><path d="M 127.80000000000001,-198.0 L 127.8,-136.79999999999998" id="na" class="arrow" style="stroke:black;fill:none;stroke-width:2.0;stroke-linecap:round;stroke-linejoin:round;" /><path d="M 127.8 -128.0 L 124.2 -136.8 L 131.4 -136.8 Z" style="stroke:black;fill:black;stroke-linecap:butt;stroke-linejoin:miter;" class="arrow" /><path d="M 108.0,-108.0 L 108.0,-72.0 L 117.0,-72.0 L 116.99999999999999,-36.0 L 98.99999999999999,-36.0 L 99.0,-72.0 L 108.0,-72.0 M 107.99999999999999,-36.0 L 107.99999999999999,-0.0" id="L2" class="100.0 \text{H}" style="stroke:black;fill:black;stroke-width:2.0;stroke-linecap:round;stroke-linejoin:round;" /><path d="M 127.8,-90.0 L 127.79999999999998,-28.8" id="na" class="arrow" style="stroke:black;fill:none;stroke-width:2.0;stroke-linecap:round;stroke-linejoin:round;" /><path d="M 127.79999999999998 -20.0 L 124.19999999999999 -28.799999999999997 L 131.39999999999998 -28.799999999999997 Z" style="stroke:black;fill:black;stroke-linecap:butt;stroke-linejoin:miter;" class="arrow" /><path d="M 107.99999999999999,-0.0 L 107.99999999999999,36.0 L 116.99999999999999,36.0 L 116.99999999999997,72.0 L 98.99999999999997,72.0 L 98.99999999999999,36.0 L 107.99999999999999,36.0 M 107.99999999999997,72.0 L 107.99999999999997,108.0" id="L3" class="100.0 \text{H}" style="stroke:black;fill:black;stroke-width:2.0;stroke-linecap:round;stroke-linejoin:round;" /><path d="M 127.79999999999998,18.0 L 127.79999999999995,79.2" id="na" class="arrow" style="stroke:black;fill:none;stroke-width:2.0;stroke-linecap:round;stroke-linejoin:round;" /><path d="M 127.79999999999995 88.0 L 124.19999999999996 79.19999999999999 L 131.39999999999995 79.19999999999999 Z" style="stroke:black;fill:black;stroke-linecap:butt;stroke-linejoin:miter;" class="arrow" /><path d="M 107.99999999999997,108.0 L 107.99999999999997,144.0 L 116.99999999999997,144.0 L 116.99999999999996,180.0 L 98.99999999999996,180.0 L 98.99999999999997,144.0 L 107.99999999999997,144.0 M 107.99999999999996,180.0 L 107.99999999999996,216.0" id="L4" class="100.0 \text{H}" style="stroke:black;fill:black;stroke-width:2.0;stroke-linecap:round;stroke-linejoin:round;" /><path d="M 127.79999999999995,126.0 L 127.79999999999994,187.20000000000002" id="na" class="arrow" style="stroke:black;fill:none;stroke-width:2.0;stroke-linecap:round;stroke-linejoin:round;" /><path d="M 127.79999999999994 196.0 L 124.19999999999995 187.2 L 131.39999999999995 187.2 Z" style="stroke:black;fill:black;stroke-linecap:butt;stroke-linejoin:miter;" class="arrow" /><path d="M 107.99999999999997,108.0 L 161.99999999999997,108.0 L 215.99999999999997,108.0" id="na" class="na" style="stroke:black;fill:none;stroke-width:2.0;stroke-linecap:round;stroke-linejoin:round;" /><path d="M 107.99999999999996,216.0 L 53.99999999999995,216.0 L -4.796163466380676e-14,216.0" id="na" class="na" style="stroke:black;fill:none;stroke-width:2.0;stroke-linecap:round;stroke-linejoin:round;" /><path d="M -4.796163466380676e-14,216.0 L -4.465508830610891e-14,162.0 L -4.134854194841106e-14,108.0" id="na" class="na" style="stroke:black;fill:none;stroke-width:2.0;stroke-linecap:round;stroke-linejoin:round;" /><path d="M -4.134854194841106e-14,108.0 L -2.6051586924761512e-14,54.0 L -1.0754631901111968e-14,-0.0" id="na" class="na" style="stroke:black;fill:none;stroke-width:2.0;stroke-linecap:round;stroke-linejoin:round;" /><path d="M 215.99999999999997,108.0 L 215.99999999999997,144.0 L 224.99999999999997,144.0 L 224.99999999999997,180.0 L 206.99999999999997,180.0 L 206.99999999999997,144.0 L 215.99999999999997,144.0 M 215.99999999999997,180.0 L 215.99999999999994,216.0" id="L5" class="100.0 \text{H}" style="stroke:black;fill:black;stroke-width:2.0;stroke-linecap:round;stroke-linejoin:round;" /><path d="M 235.79999999999995,126.0 L 235.79999999999995,187.20000000000002" id="na" class="arrow" style="stroke:black;fill:none;stroke-width:2.0;stroke-linecap:round;stroke-linejoin:round;" /><path d="M 235.79999999999995 196.0 L 232.19999999999996 187.2 L 239.39999999999995 187.2 Z" style="stroke:black;fill:black;stroke-linecap:butt;stroke-linejoin:miter;" class="arrow" /><path d="M 215.99999999999994,216.0 L 161.99999999999994,216.0 L 107.99999999999996,216.0" id="na" class="na" style="stroke:black;fill:none;stroke-width:2.0;stroke-linecap:round;stroke-linejoin:round;" /><text x="32.400000000000006" y="-59.6" fill="black" font-size="14.0" font-family="sans" text-anchor="start" class="arrow"><tspan x="32.400000000000006" dy="14.0">U<tspan baseline-shift="sub" font-size="smaller">ges</tspan></tspan></text><text x="91.80000000000001" y="-167.6" fill="black" font-size="14.0" font-family="sans" text-anchor="end" class="na"><tspan x="91.80000000000001" dy="14.0">L1</tspan></text><text x="131.4" y="-167.6" fill="black" font-size="14.0" font-family="sans" text-anchor="start" class="arrow"><tspan x="131.4" dy="14.0">U1</tspan></text><text x="91.8" y="-59.6" fill="black" font-size="14.0" font-family="sans" text-anchor="end" class="na"><tspan x="91.8" dy="14.0">L2</tspan></text><text x="131.39999999999998" y="-59.6" fill="black" font-size="14.0" font-family="sans" text-anchor="start" class="arrow"><tspan x="131.39999999999998" dy="14.0">U2</tspan></text><text x="91.79999999999998" y="48.4" fill="black" font-size="14.0" font-family="sans" text-anchor="end" class="na"><tspan x="91.79999999999998" dy="14.0">L3</tspan></text><text x="131.39999999999998" y="48.4" fill="black" font-size="14.0" font-family="sans" text-anchor="start" class="arrow"><tspan x="131.39999999999998" dy="14.0">U3</tspan></text><text x="91.79999999999995" y="156.4" fill="black" font-size="14.0" font-family="sans" text-anchor="end" class="na"><tspan x="91.79999999999995" dy="14.0">L4</tspan></text><text x="131.39999999999995" y="156.4" fill="black" font-size="14.0" font-family="sans" text-anchor="start" class="arrow"><tspan x="131.39999999999995" dy="14.0">U4</tspan></text><text x="199.79999999999995" y="156.4" fill="black" font-size="14.0" font-family="sans" text-anchor="end" class="na"><tspan x="199.79999999999995" dy="14.0">L5</tspan></text><text x="239.39999999999998" y="156.4" fill="black" font-size="14.0" font-family="sans" text-anchor="start" class="arrow"><tspan x="239.39999999999998" dy="14.0">U5</tspan></text><path d="M 8.817456953860937e-16,-14.399999999999997 L 8.81745695386094e-16,-14.399999999999999" id="na" class="arrow" style="stroke:black;fill:none;stroke-width:2.0;stroke-linecap:round;stroke-linejoin:round;" /><path d="M 1.4205902870109293e-15 -23.2 L 5.4 -14.400000000000002 L -5.399999999999999 -14.400000000000002 Z" style="stroke:black;fill:black;stroke-linecap:butt;stroke-linejoin:miter;" class="arrow" /><text x="-10.799999999999997" y="-25.4" fill="black" font-size="14.0" font-family="sans" text-anchor="end" class="arrow"><tspan x="-10.799999999999997" dy="14.0">I<tspan baseline-shift="sub" font-size="smaller">ges</tspan></tspan></text><path d="M 108.0,-201.6 L 108.0,-201.6" id="na" class="arrow" style="stroke:black;fill:none;stroke-width:2.0;stroke-linecap:round;stroke-linejoin:round;" /><path d="M 108.0 -192.79999999999998 L 102.6 -201.6 L 113.4 -201.6 Z" style="stroke:black;fill:black;stroke-linecap:butt;stroke-linejoin:miter;" class="arrow" /><text x="97.2" y="-201.8" fill="black" font-size="14.0" font-family="sans" text-anchor="end" class="arrow"><tspan x="97.2" dy="14.0">I1</tspan></text><path d="M 107.99999999999999,-93.60000000000001 L 107.99999999999999,-93.6" id="na" class="arrow" style="stroke:black;fill:none;stroke-width:2.0;stroke-linecap:round;stroke-linejoin:round;" /><path d="M 107.99999999999999 -84.8 L 102.59999999999998 -93.60000000000001 L 113.39999999999999 -93.60000000000001 Z" style="stroke:black;fill:black;stroke-linecap:butt;stroke-linejoin:miter;" class="arrow" /><text x="97.19999999999999" y="-93.80000000000001" fill="black" font-size="14.0" font-family="sans" text-anchor="end" class="arrow"><tspan x="97.19999999999999" dy="14.0">I2</tspan></text><path d="M 107.99999999999997,14.399999999999997 L 107.99999999999997,14.399999999999999" id="na" class="arrow" style="stroke:black;fill:none;stroke-width:2.0;stroke-linecap:round;stroke-linejoin:round;" /><path d="M 107.99999999999997 23.2 L 102.59999999999997 14.400000000000002 L 113.39999999999998 14.400000000000002 Z" style="stroke:black;fill:black;stroke-linecap:butt;stroke-linejoin:miter;" class="arrow" /><text x="97.19999999999997" y="14.199999999999998" fill="black" font-size="14.0" font-family="sans" text-anchor="end" class="arrow"><tspan x="97.19999999999997" dy="14.0">I3</tspan></text><path d="M 107.99999999999996,122.39999999999999 L 107.99999999999996,122.4" id="na" class="arrow" style="stroke:black;fill:none;stroke-width:2.0;stroke-linecap:round;stroke-linejoin:round;" /><path d="M 107.99999999999996 131.20000000000002 L 102.59999999999995 122.4 L 113.39999999999996 122.4 Z" style="stroke:black;fill:black;stroke-linecap:butt;stroke-linejoin:miter;" class="arrow" /><text x="97.19999999999996" y="122.2" fill="black" font-size="14.0" font-family="sans" text-anchor="end" class="arrow"><tspan x="97.19999999999996" dy="14.0">I4</tspan></text><path d="M 215.99999999999997,122.39999999999999 L 215.99999999999997,122.4" id="na" class="arrow" style="stroke:black;fill:none;stroke-width:2.0;stroke-linecap:round;stroke-linejoin:round;" /><path d="M 215.99999999999997 131.20000000000002 L 210.59999999999997 122.4 L 221.39999999999998 122.4 Z" style="stroke:black;fill:black;stroke-linecap:butt;stroke-linejoin:miter;" class="arrow" /><text x="205.2" y="122.2" fill="black" font-size="14.0" font-family="sans" text-anchor="end" class="arrow"><tspan x="205.2" dy="14.0">I5</tspan></text><circle cx="107.99999999999997" cy="108.0" r="2.6999999999999997" style="stroke:black;fill:black;stroke-width:2.0;" /><circle cx="107.99999999999996" cy="216.0" r="2.6999999999999997" style="stroke:black;fill:black;stroke-width:2.0;" /></svg>