<svg xmlns="http://www.w3.org/2000/svg" xml:lang="en" height="127.10000000000001pt" width="415.196pt" viewBox="-45.808 -119.80000000000001 415.196 127.10000000000001"><circle cx="3.3065463576978533e-15" cy="-54.0" r="18.0" style="stroke:black;fill:none;stroke-width:2.0;" /><path d="M 0.0,-0.0 L 2.204364238465236e-15,-36.0 L 2.204364238465236e-15,-36.0 M 4.408728476930472e-15,-72.0 L 4.408728476930472e-15,-72.0 L 6.613092715395707e-15,-108.0" id="na" class="na" style="stroke:black;fill:none;stroke-width:2.0;stroke-linecap:round;stroke-linejoin:round;" /><path d="M 3.600000000000003,-45.0 L -3.599999999999997,-45.0" id="na" class="na" style="stroke:black;fill:none;stroke-width:2.0;stroke-linecap:round;stroke-linejoin:round;" /><path d="M 3.637200993467639e-15,-59.4 L 4.078073841160686e-15,-66.60000000000001" id="na" class="na" style="stroke:black;fill:none;stroke-width:2.0;stroke-linecap:round;stroke-linejoin:round;" /><path d="M 3.600000000000004,-63.0 L -3.599999999999996,-63.0" id="na" class="na" style="stroke:black;fill:none;stroke-width:2.0;stroke-linecap:round;stroke-linejoin:round;" /><path d="M 28.8,-28.8 L 28.800000000000004,-90.0" id="na" class="arrow" style="stroke:black;fill:none;stroke-width:2.0;stroke-linecap:round;stroke-linejoin:round;" /><path d="M 28.8 -20.0 L 25.200000000000003 -28.799999999999997 L 32.4 -28.799999999999997 Z" style="stroke:black;fill:black;stroke-linecap:butt;stroke-linejoin:miter;" class="arrow" /><path d="M 6.613092715395707e-15,-108.0 L 54.00000000000001,-108.0 L 108.0,-108.0" id="na" class="na" style="stroke:black;fill:none;stroke-width:2.0;stroke-linecap:round;stroke-linejoin:round;" /><path d="M 108.0,-108.0 L 108.0,-72.0 L 117.0,-72.0 L 116.99999999999999,-36.0 L 98.99999999999999,-36.0 L 99.0,-72.0 L 108.0,-72.0 M 107.99999999999999,-36.0 L 107.99999999999999,-0.0" id="R1" class="R_{1}" style="stroke:black;fill:none;stroke-width:2.0;stroke-linecap:round;stroke-linejoin:round;" /><path d="M 127.8,-90.0 L 127.79999999999998,-28.8" id="na" class="arrow" style="stroke:black;fill:none;stroke-width:2.0;stroke-linecap:round;stroke-linejoin:round;" /><path d="M 127.79999999999998 -20.0 L 124.19999999999999 -28.799999999999997 L 131.39999999999998 -28.799999999999997 Z" style="stroke:black;fill:black;stroke-linecap:butt;stroke-linejoin:miter;" class="arrow" /><path d="M 108.0,-108.0 L 162.0,-108.0 L 216.0,-108.0" id="na" class="na" style="stroke:black;fill:none;stroke-width:2.0;stroke-linecap:round;stroke-linejoin:round;" /><path d="M 107.99999999999999,-0.0 L 53.999999999999986,-6.613092715395707e-15 L -1.5987211554602254e-14,-1.3226185430791413e-14" id="na" class="na" style="stroke:black;fill:none;stroke-width:2.0;stroke-linecap:round;stroke-linejoin:round;" /><path d="M 216.0,-108.0 L 216.0,-72.0 L 225.0,-72.0 L 225.0,-36.0 L 207.0,-36.0 L 207.0,-72.0 L 216.0,-72.0 M 216.0,-36.0 L 215.99999999999997,-0.0" id="R2" class="R_{2}" style="stroke:black;fill:none;stroke-width:2.0;stroke-linecap:round;stroke-linejoin:round;" /><path d="M 235.79999999999998,-90.0 L 235.79999999999998,-28.8" id="na" class="arrow" style="stroke:black;fill:none;stroke-width:2.0;stroke-linecap:round;stroke-linejoin:round;" /><path d="M 235.79999999999998 -20.0 L 232.2 -28.799999999999997 L 239.39999999999998 -28.799999999999997 Z" style="stroke:black;fill:black;stroke-linecap:butt;stroke-linejoin:miter;" class="arrow" /><path d="M 216.0,-108.0 L 270.0,-108.0 L 324.0,-108.0" id="na" class="na" style="stroke:black;fill:none;stroke-width:2.0;stroke-linecap:round;stroke-linejoin:round;" /><path d="M 215.99999999999997,-0.0 L 161.99999999999997,-6.613092715395706e-15 L 107.99999999999999,-1.3226185430791412e-14" id="na" class="na" style="stroke:black;fill:none;stroke-width:2.0;stroke-linecap:round;stroke-linejoin:round;" /><path d="M 324.0,-108.0 L 324.0,-72.0 L 333.0,-72.0 L 333.0,-36.0 L 315.0,-36.0 L 315.0,-72.0 L 324.0,-72.0 M 324.0,-36.0 L 324.0,-0.0" id="R3" class="R_{3}" style="stroke:black;fill:none;stroke-width:2.0;stroke-linecap:round;stroke-linejoin:round;" /><path d="M 343.8,-90.0 L 343.8,-28.8" id="na" class="arrow" style="stroke:black;fill:none;stroke-width:2.0;stroke-linecap:round;stroke-linejoin:round;" /><path d="M 343.8 -20.0 L 340.2 -28.799999999999997 L 347.40000000000003 -28.799999999999997 Z" style="stroke:black;fill:black;stroke-linecap:butt;stroke-linejoin:miter;" class="arrow" /><path d="M 324.0,-0.0 L 270.0,-6.61309271539571e-15 L 215.99999999999997,-1.322618543079142e-14" id="na" class="na" style="stroke:black;fill:none;stroke-width:2.0;stroke-linecap:round;stroke-linejoin:round;" /><path d="M -1.5987211554602254e-14,-1.3226185430791413e-14 L -7.993605777301127e-15,-6.613092715395707e-15 L 0.0,-0.0" id="na" class="na" style="stroke:black;fill:none;stroke-width:2.0;stroke-linecap:round;stroke-linejoin:round;" /><text x="32.400000000000006" y="-59.6" fill="black" font-size="14.0" font-family="sans" text-anchor="start" class="arrow"><tspan x="32.400000000000006" dy="14.0">U<tspan baseline-shift="sub" font-size="smaller">ges</tspan></tspan></text><text x="91.8" y="-59.6" fill="black" font-size="14.0" font-family="sans" text-anchor="end" class="na"><tspan x="91.8" dy="14.0">R1</tspan></text><text x="131.39999999999998" y="-59.6" fill="black" font-size="14.0" font-family="sans" text-anchor="start" class="arrow"><tspan x="131.39999999999998" dy="14.0">U1</tspan></text><text x="199.79999999999998" y="-59.6" fill="black" font-size="14.0" font-family="sans" text-anchor="end" class="na"><tspan x="199.79999999999998" dy="14.0">R2</tspan></text><text x="239.4" y="-59.6" fill="black" font-size="14.0" font-family="sans" text-anchor="start" class="arrow"><tspan x="239.4" dy="14.0">U2</tspan></text><text x="307.79999999999995" y="-59.6" fill="black" font-size="14.0" font-family="sans" text-anchor="end" class="na"><tspan x="307.79999999999995" dy="14.0">R3</tspan></text><text x="347.40000000000003" y="-59.6" fill="black" font-size="14.0" font-family="sans" text-anchor="start" class="arrow"><tspan x="347.40000000000003" dy="14.0">U3</tspan></text><path d="M 8.817456953860937e-16,-14.399999999999997 L 8.81745695386094e-16,-14.399999999999999" id="na" class="arrow" style="stroke:black;fill:none;stroke-width:2.0;stroke-linecap:round;stroke-linejoin:round;" /><path d="M 1.4205902870109293e-15 -23.2 L 5.4 -14.400000000000002 L -5.399999999999999 -14.400000000000002 Z" style="stroke:black;fill:black;stroke-linecap:butt;stroke-linejoin:miter;" class="arrow" /><text x="-10.799999999999997" y="-25.4" fill="black" font-size="14.0" font-family="sans" text-anchor="end" class="arrow"><tspan x="-10.799999999999997" dy="14.0">I<tspan baseline-shift="sub" font-size="smaller">ges</tspan></tspan></text><path d="M 107.99999999999999,-93.60000000000001 L 107.99999999999999,-93.6" id="na" class="arrow" style="stroke:black;fill:none;stroke-width:2.0;stroke-linecap:round;stroke-linejoin:round;" /><path d="M 107.99999999999999 -84.8 L 102.59999999999998 -93.60000000000001 L 113.39999999999999 -93.60000000000001 Z" style="stroke:black;fill:black;stroke-linecap:butt;stroke-linejoin:miter;" class="arrow" /><text x="97.19999999999999" y="-93.80000000000001" fill="black" font-size="14.0" font-family="sans" text-anchor="end" class="arrow"><tspan x="97.19999999999999" dy="14.0">I1</tspan></text><path d="M 216.0,-93.60000000000001 L 216.0,-93.6" id="na" class="arrow" style="stroke:black;fill:none;stroke-width:2.0;stroke-linecap:round;stroke-linejoin:round;" /><path d="M 216.0 -84.8 L 210.6 -93.60000000000001 L 221.4 -93.60000000000001 Z" style="stroke:black;fill:black;stroke-linecap:butt;stroke-linejoin:miter;" class="arrow" /><text x="205.20000000000002" y="-93.80000000000001" fill="black" font-size="14.0" font-family="sans" text-anchor="end" class="arrow"><tspan x="205.20000000000002" dy="14.0">I2</tspan></text><path d="M 324.0,-93.60000000000001 L 324.0,-93.6" id="na" class="arrow" style="stroke:black;fill:none;stroke-width:2.0;stroke-linecap:round;stroke-linejoin:round;" /><path d="M 324.0 -84.8 L 318.6 -93.60000000000001 L 329.4 -93.60000000000001 Z" style="stroke:black;fill:black;stroke-linecap:butt;stroke-linejoin:miter;" class="arrow" /><text x="313.2" y="-93.80000000000001" fill="black" font-size="14.0" font-family="sans" text-anchor="end" class="arrow"><tspan x="313.2" dy="14.0">I3</tspan></text><circle cx="108.0" cy="-108.0" r="2.6999999999999997" style="stroke:black;fill:black;stroke-width:2.0;" /><circle cx="107.99999999999999" cy="-0.0" r="2.6999999999999997" style="stroke:black;fill:black;stroke-width:2.0;" /><circle cx="216.0" cy="-108.0" r="2.6999999999999997" style="stroke:black;fill:black;stroke-width:2.0;" /><circle cx="215.99999999999997" cy="-0.0" r="2.6999999999999997" style="stroke:black;fill:black;stroke-width:2.0;" /></svg>