<svg xmlns="http://www.w3.org/2000/svg" xml:lang="en" height="451.09999999999997pt" width="399.896pt" viewBox="-90.14800000000001 -227.79999999999998 399.896 451.09999999999997"><circle cx="3.3065463576978533e-15" cy="-54.0" r="18.0" style="stroke:black;fill:none;stroke-width:2.0;" /><path d="M 0.0,-0.0 L 2.204364238465236e-15,-36.0 L 2.204364238465236e-15,-36.0 M 4.408728476930472e-15,-72.0 L 4.408728476930472e-15,-72.0 L 6.613092715395707e-15,-108.0" id="na" class="na" style="stroke:black;fill:none;stroke-width:2.0;stroke-linecap:round;stroke-linejoin:round;" /><path d="M 3.600000000000003,-45.0 L -3.599999999999997,-45.0" id="na" class="na" style="stroke:black;fill:none;stroke-width:2.0;stroke-linecap:round;stroke-linejoin:round;" /><path d="M 3.637200993467639e-15,-59.4 L 4.078073841160686e-15,-66.60000000000001" id="na" class="na" style="stroke:black;fill:none;stroke-width:2.0;stroke-linecap:round;stroke-linejoin:round;" /><path d="M 3.600000000000004,-63.0 L -3.599999999999996,-63.0" id="na" class="na" style="stroke:black;fill:none;stroke-width:2.0;stroke-linecap:round;stroke-linejoin:round;" /><path d="M 23.400000000000002,-37.800000000000004 L 23.400000000000006,-81.0" id="na" class="voltage-label arrow U1" style="stroke:black;fill:none;stroke-width:2.0;stroke-linecap:round;stroke-linejoin:round;" /><path d="M 23.400000000000002 -29.0 L 19.800000000000004 -37.8 L 27.000000000000004 -37.8 Z" style="stroke:black;fill:black;stroke-linecap:butt;stroke-linejoin:miter;" class="voltage-label arrow U1" /><path d="M 6.613092715395707e-15,-108.0 L 9.919639073093561e-15,-162.0 L 1.3226185430791413e-14,-216.0" id="na" class="na" style="stroke:black;fill:none;stroke-width:2.0;stroke-linecap:round;stroke-linejoin:round;" /><path d="M 1.3226185430791413e-14,-216.0 L 54.000000000000014,-216.0 L 108.00000000000001,-216.0" id="na" class="na" style="stroke:black;fill:none;stroke-width:2.0;stroke-linecap:round;stroke-linejoin:round;" /><path d="M 108.00000000000001,-216.0 L 108.00000000000001,-180.0 L 117.00000000000001,-180.0 L 117.0,-144.0 L 99.0,-144.0 L 99.00000000000001,-180.0 L 108.00000000000001,-180.0 M 108.0,-144.0 L 108.0,-108.0" id="R1" class="1.0 \text{k} \Omega" style="stroke:black;fill:transparent;stroke-width:2.0;stroke-linecap:round;stroke-linejoin:round;" /><path d="M 122.4,-189.0 L 122.39999999999999,-145.79999999999998" id="na" class="voltage-label arrow U1" style="stroke:black;fill:none;stroke-width:2.0;stroke-linecap:round;stroke-linejoin:round;" /><path d="M 122.39999999999999 -137.0 L 118.8 -145.8 L 126.0 -145.8 Z" style="stroke:black;fill:black;stroke-linecap:butt;stroke-linejoin:miter;" class="voltage-label arrow U1" /><path d="M 108.0,-108.0 L 108.0,-72.0 L 117.0,-72.0 L 116.99999999999999,-36.0 L 98.99999999999999,-36.0 L 99.0,-72.0 L 108.0,-72.0 M 107.99999999999999,-36.0 L 107.99999999999999,-0.0" id="R2" class="2.0 \text{k} \Omega" style="stroke:black;fill:transparent;stroke-width:2.0;stroke-linecap:round;stroke-linejoin:round;" /><path d="M 122.39999999999998,-81.0 L 122.39999999999998,-37.800000000000004" id="na" class="voltage-label arrow U2" style="stroke:black;fill:none;stroke-width:2.0;stroke-linecap:round;stroke-linejoin:round;" /><path d="M 122.39999999999998 -29.0 L 118.79999999999998 -37.8 L 125.99999999999997 -37.8 Z" style="stroke:black;fill:black;stroke-linecap:butt;stroke-linejoin:miter;" class="voltage-label arrow U2" /><path d="M 107.99999999999999,-0.0 L 107.99999999999999,36.0 L 116.99999999999999,36.0 L 116.99999999999997,72.0 L 98.99999999999997,72.0 L 98.99999999999999,36.0 L 107.99999999999999,36.0 M 107.99999999999997,72.0 L 107.99999999999997,108.0" id="R3" class="200.0 \Omega" style="stroke:black;fill:transparent;stroke-width:2.0;stroke-linecap:round;stroke-linejoin:round;" /><path d="M 122.39999999999998,27.0 L 122.39999999999996,70.2" id="na" class="voltage-label arrow U3" style="stroke:black;fill:none;stroke-width:2.0;stroke-linecap:round;stroke-linejoin:round;" /><path d="M 122.39999999999996 79.0 L 118.79999999999997 70.19999999999999 L 125.99999999999997 70.2 Z" style="stroke:black;fill:black;stroke-linecap:butt;stroke-linejoin:miter;" class="voltage-label arrow U3" /><path d="M 107.99999999999997,108.0 L 107.99999999999997,144.0 L 116.99999999999997,144.0 L 116.99999999999996,180.0 L 98.99999999999996,180.0 L 98.99999999999997,144.0 L 107.99999999999997,144.0 M 107.99999999999996,180.0 L 107.99999999999996,216.0" id="R4" class="400.0 \Omega" style="stroke:black;fill:transparent;stroke-width:2.0;stroke-linecap:round;stroke-linejoin:round;" /><path d="M 122.39999999999995,135.0 L 122.39999999999995,178.20000000000002" id="na" class="voltage-label arrow U4" style="stroke:black;fill:none;stroke-width:2.0;stroke-linecap:round;stroke-linejoin:round;" /><path d="M 122.39999999999995 187.0 L 118.79999999999995 178.2 L 125.99999999999994 178.2 Z" style="stroke:black;fill:black;stroke-linecap:butt;stroke-linejoin:miter;" class="voltage-label arrow U4" /><path d="M 107.99999999999997,108.0 L 161.99999999999997,108.0 L 215.99999999999997,108.0" id="na" class="na" style="stroke:black;fill:none;stroke-width:2.0;stroke-linecap:round;stroke-linejoin:round;" /><path d="M 107.99999999999996,216.0 L 53.99999999999995,216.0 L -4.796163466380676e-14,216.0" id="na" class="na" style="stroke:black;fill:none;stroke-width:2.0;stroke-linecap:round;stroke-linejoin:round;" /><path d="M -4.796163466380676e-14,216.0 L -4.465508830610891e-14,162.0 L -4.134854194841106e-14,108.0" id="na" class="na" style="stroke:black;fill:none;stroke-width:2.0;stroke-linecap:round;stroke-linejoin:round;" /><path d="M -4.134854194841106e-14,108.0 L -2.6051586924761512e-14,54.0 L -1.0754631901111968e-14,-0.0" id="na" class="na" style="stroke:black;fill:none;stroke-width:2.0;stroke-linecap:round;stroke-linejoin:round;" /><path d="M 215.99999999999997,108.0 L 215.99999999999997,144.0 L 224.99999999999997,144.0 L 224.99999999999997,180.0 L 206.99999999999997,180.0 L 206.99999999999997,144.0 L 215.99999999999997,144.0 M 215.99999999999997,180.0 L 215.99999999999994,216.0" id="R5" class="200.0 \Omega" style="stroke:black;fill:transparent;stroke-width:2.0;stroke-linecap:round;stroke-linejoin:round;" /><path d="M 230.39999999999998,135.0 L 230.39999999999995,178.20000000000002" id="na" class="voltage-label arrow U5" style="stroke:black;fill:none;stroke-width:2.0;stroke-linecap:round;stroke-linejoin:round;" /><path d="M 230.39999999999995 187.0 L 226.79999999999995 178.2 L 233.99999999999994 178.2 Z" style="stroke:black;fill:black;stroke-linecap:butt;stroke-linejoin:miter;" class="voltage-label arrow U5" /><path d="M 215.99999999999994,216.0 L 161.99999999999994,216.0 L 107.99999999999996,216.0" id="na" class="na" style="stroke:black;fill:none;stroke-width:2.0;stroke-linecap:round;stroke-linejoin:round;" /><text x="-14.399999999999999" y="-45.2" fill="black" font-size="14.0" font-family="sans" text-anchor="end" class="element-label ###.### ##"><tspan x="-14.399999999999999" dy="14.0">###.### ##</tspan></text><text x="27.000000000000004" y="-52.400000000000006" fill="black" font-size="14.0" font-family="sans" text-anchor="start" class="voltage-label arrow Uges"><tspan x="27.000000000000004" dy="14.0">###.### ##</tspan></text><text x="95.4" y="-182.0" fill="black" font-size="14.0" font-family="sans" text-anchor="end" class="element-label ###.### ##"><tspan x="95.4" dy="14.0">###.### ##</tspan></text><text x="126.0" y="-160.39999999999998" fill="black" font-size="14.0" font-family="sans" text-anchor="start" class="voltage-label arrow U1"><tspan x="126.0" dy="14.0">###.### ##</tspan></text><text x="95.39999999999999" y="-73.99999999999999" fill="black" font-size="14.0" font-family="sans" text-anchor="end" class="element-label ###.### ##"><tspan x="95.39999999999999" dy="14.0">###.### ##</tspan></text><text x="125.99999999999999" y="-52.4" fill="black" font-size="14.0" font-family="sans" text-anchor="start" class="voltage-label arrow U2"><tspan x="125.99999999999999" dy="14.0">###.### ##</tspan></text><text x="95.39999999999998" y="34.0" fill="black" font-size="14.0" font-family="sans" text-anchor="end" class="element-label ###.### ##"><tspan x="95.39999999999998" dy="14.0">###.### ##</tspan></text><text x="125.99999999999997" y="55.599999999999994" fill="black" font-size="14.0" font-family="sans" text-anchor="start" class="voltage-label arrow U3"><tspan x="125.99999999999997" dy="14.0">###.### ##</tspan></text><text x="95.39999999999996" y="142.0" fill="black" font-size="14.0" font-family="sans" text-anchor="end" class="element-label ###.### ##"><tspan x="95.39999999999996" dy="14.0">###.### ##</tspan></text><text x="125.99999999999996" y="163.60000000000002" fill="black" font-size="14.0" font-family="sans" text-anchor="start" class="voltage-label arrow U4"><tspan x="125.99999999999996" dy="14.0">###.### ##</tspan></text><text x="203.39999999999995" y="142.0" fill="black" font-size="14.0" font-family="sans" text-anchor="end" class="element-label ###.### ##"><tspan x="203.39999999999995" dy="14.0">###.### ##</tspan></text><text x="233.99999999999997" y="163.60000000000002" fill="black" font-size="14.0" font-family="sans" text-anchor="start" class="voltage-label arrow U5"><tspan x="233.99999999999997" dy="14.0">###.### ##</tspan></text><path d="M 8.817456953860937e-16,-14.399999999999997 L 8.81745695386094e-16,-14.399999999999999" id="na" class="current-label arrow I1" style="stroke:black;fill:none;stroke-width:2.0;stroke-linecap:round;stroke-linejoin:round;" /><path d="M 1.4205902870109293e-15 -23.2 L 5.4 -14.400000000000002 L -5.399999999999999 -14.400000000000002 Z" style="stroke:black;fill:black;stroke-linecap:butt;stroke-linejoin:miter;" class="current-label arrow I1" /><text x="-10.799999999999997" y="-29.0" fill="black" font-size="14.0" font-family="sans" text-anchor="end" class="current-label arrow Iges"><tspan x="-10.799999999999997" dy="14.0">###.### ##</tspan></text><path d="M 108.0,-201.6 L 108.0,-201.6" id="na" class="current-label arrow I1" style="stroke:black;fill:none;stroke-width:2.0;stroke-linecap:round;stroke-linejoin:round;" /><path d="M 108.0 -192.79999999999998 L 102.6 -201.6 L 113.4 -201.6 Z" style="stroke:black;fill:black;stroke-linecap:butt;stroke-linejoin:miter;" class="current-label arrow I1" /><text x="97.2" y="-205.39999999999998" fill="black" font-size="14.0" font-family="sans" text-anchor="end" class="current-label arrow I1"><tspan x="97.2" dy="14.0">###.### ##</tspan></text><path d="M 107.99999999999999,-93.60000000000001 L 107.99999999999999,-93.6" id="na" class="current-label arrow I2" style="stroke:black;fill:none;stroke-width:2.0;stroke-linecap:round;stroke-linejoin:round;" /><path d="M 107.99999999999999 -84.8 L 102.59999999999998 -93.60000000000001 L 113.39999999999999 -93.60000000000001 Z" style="stroke:black;fill:black;stroke-linecap:butt;stroke-linejoin:miter;" class="current-label arrow I2" /><text x="97.19999999999999" y="-97.4" fill="black" font-size="14.0" font-family="sans" text-anchor="end" class="current-label arrow I2"><tspan x="97.19999999999999" dy="14.0">###.### ##</tspan></text><path d="M 107.99999999999997,14.399999999999997 L 107.99999999999997,14.399999999999999" id="na" class="current-label arrow I3" style="stroke:black;fill:none;stroke-width:2.0;stroke-linecap:round;stroke-linejoin:round;" /><path d="M 107.99999999999997 23.2 L 102.59999999999997 14.400000000000002 L 113.39999999999998 14.400000000000002 Z" style="stroke:black;fill:black;stroke-linecap:butt;stroke-linejoin:miter;" class="current-label arrow I3" /><text x="97.19999999999997" y="10.6" fill="black" font-size="14.0" font-family="sans" text-anchor="end" class="current-label arrow I3"><tspan x="97.19999999999997" dy="14.0">###.### ##</tspan></text><path d="M 107.99999999999996,122.39999999999999 L 107.99999999999996,122.4" id="na" class="current-label arrow I4" style="stroke:black;fill:none;stroke-width:2.0;stroke-linecap:round;stroke-linejoin:round;" /><path d="M 107.99999999999996 131.20000000000002 L 102.59999999999995 122.4 L 113.39999999999996 122.4 Z" style="stroke:black;fill:black;stroke-linecap:butt;stroke-linejoin:miter;" class="current-label arrow I4" /><text x="97.19999999999996" y="118.60000000000001" fill="black" font-size="14.0" font-family="sans" text-anchor="end" class="current-label arrow I4"><tspan x="97.19999999999996" dy="14.0">###.### ##</tspan></text><path d="M 215.99999999999997,122.39999999999999 L 215.99999999999997,122.4" id="na" class="current-label arrow I5" style="stroke:black;fill:none;stroke-width:2.0;stroke-linecap:round;stroke-linejoin:round;" /><path d="M 215.99999999999997 131.20000000000002 L 210.59999999999997 122.4 L 221.39999999999998 122.4 Z" style="stroke:black;fill:black;stroke-linecap:butt;stroke-linejoin:miter;" class="current-label arrow I5" /><text x="205.2" y="118.60000000000001" fill="black" font-size="14.0" font-family="sans" text-anchor="end" class="current-label arrow I5"><tspan x="205.2" dy="14.0">###.### ##</tspan></text><circle cx="107.99999999999997" cy="108.0" r="2.6999999999999997" style="stroke:black;fill:black;stroke-width:2.0;" /><circle cx="107.99999999999996" cy="216.0" r="2.6999999999999997" style="stroke:black;fill:black;stroke-width:2.0;" /></svg>