<svg xmlns="http://www.w3.org/2000/svg" xml:lang="en" height="147.3pt" width="307.19599999999997pt" viewBox="-45.808 -140.0 307.19599999999997 147.3"><circle cx="3.3065463576978533e-15" cy="-54.0" r="18.0" style="stroke:black;fill:none;stroke-width:2.0;" /><path d="M 0.0,-0.0 L 2.204364238465236e-15,-36.0 L 2.204364238465236e-15,-36.0 M 4.408728476930472e-15,-72.0 L 4.408728476930472e-15,-72.0 L 6.613092715395707e-15,-108.0" id="na" class="na" style="stroke:black;fill:none;stroke-width:2.0;stroke-linecap:round;stroke-linejoin:round;" /><path d="M 3.600000000000003,-45.0 L -3.599999999999997,-45.0" id="na" class="na" style="stroke:black;fill:none;stroke-width:2.0;stroke-linecap:round;stroke-linejoin:round;" /><path d="M 3.637200993467639e-15,-59.4 L 4.078073841160686e-15,-66.60000000000001" id="na" class="na" style="stroke:black;fill:none;stroke-width:2.0;stroke-linecap:round;stroke-linejoin:round;" /><path d="M 3.600000000000004,-63.0 L -3.599999999999996,-63.0" id="na" class="na" style="stroke:black;fill:none;stroke-width:2.0;stroke-linecap:round;stroke-linejoin:round;" /><path d="M 28.8,-28.8 L 28.800000000000004,-90.0" id="na" class="arrow" style="stroke:black;fill:none;stroke-width:2.0;stroke-linecap:round;stroke-linejoin:round;" /><path d="M 28.8 -20.0 L 25.200000000000003 -28.799999999999997 L 32.4 -28.799999999999997 Z" style="stroke:black;fill:black;stroke-linecap:butt;stroke-linejoin:miter;" class="arrow" /><path d="M 6.613092715395707e-15,-108.0 L 36.00000000000001,-108.0 L 36.00000000000001,-117.0 L 72.0,-117.0 L 72.0,-99.0 L 36.00000000000001,-99.0 L 36.00000000000001,-108.0 M 72.0,-108.0 L 108.0,-108.0" id="R1" class="2.0 \Omega" style="stroke:black;fill:none;stroke-width:2.0;stroke-linecap:round;stroke-linejoin:round;" /><path d="M 18.000000000000007,-88.2 L 79.2,-88.2" id="na" class="arrow" style="stroke:black;fill:none;stroke-width:2.0;stroke-linecap:round;stroke-linejoin:round;" /><path d="M 88.0 -88.2 L 79.19999999999999 -84.60000000000001 L 79.19999999999999 -91.8 Z" style="stroke:black;fill:black;stroke-linecap:butt;stroke-linejoin:miter;" class="arrow" /><path d="M 108.0,-108.0 L 144.0,-108.0 L 144.0,-117.0 L 180.0,-117.0 L 180.0,-99.0 L 144.0,-99.0 L 144.0,-108.0 M 180.0,-108.0 L 216.0,-108.0" id="R2" class="1.0 \Omega" style="stroke:black;fill:none;stroke-width:2.0;stroke-linecap:round;stroke-linejoin:round;" /><path d="M 126.0,-88.2 L 187.20000000000002,-88.2" id="na" class="arrow" style="stroke:black;fill:none;stroke-width:2.0;stroke-linecap:round;stroke-linejoin:round;" /><path d="M 196.0 -88.2 L 187.2 -84.60000000000001 L 187.2 -91.8 Z" style="stroke:black;fill:black;stroke-linecap:butt;stroke-linejoin:miter;" class="arrow" /><path d="M 108.0,-108.0 L 108.0,-72.0 L 117.0,-72.0 L 116.99999999999999,-36.0 L 98.99999999999999,-36.0 L 99.0,-72.0 L 108.0,-72.0 M 107.99999999999999,-36.0 L 107.99999999999999,-0.0" id="R3" class="4.0 \Omega" style="stroke:black;fill:none;stroke-width:2.0;stroke-linecap:round;stroke-linejoin:round;" /><path d="M 127.8,-90.0 L 127.79999999999998,-28.8" id="na" class="arrow" style="stroke:black;fill:none;stroke-width:2.0;stroke-linecap:round;stroke-linejoin:round;" /><path d="M 127.79999999999998 -20.0 L 124.19999999999999 -28.799999999999997 L 131.39999999999998 -28.799999999999997 Z" style="stroke:black;fill:black;stroke-linecap:butt;stroke-linejoin:miter;" class="arrow" /><path d="M 216.0,-108.0 L 216.0,-72.0 L 225.0,-72.0 L 225.0,-36.0 L 207.0,-36.0 L 207.0,-72.0 L 216.0,-72.0 M 216.0,-36.0 L 215.99999999999997,-0.0" id="R4" class="3.0 \Omega" style="stroke:black;fill:none;stroke-width:2.0;stroke-linecap:round;stroke-linejoin:round;" /><path d="M 235.79999999999998,-90.0 L 235.79999999999998,-28.8" id="na" class="arrow" style="stroke:black;fill:none;stroke-width:2.0;stroke-linecap:round;stroke-linejoin:round;" /><path d="M 235.79999999999998 -20.0 L 232.2 -28.799999999999997 L 239.39999999999998 -28.799999999999997 Z" style="stroke:black;fill:black;stroke-linecap:butt;stroke-linejoin:miter;" class="arrow" /><path d="M 107.99999999999999,-0.0 L 53.99999999999999,-6.613092715395706e-15 L 0.0,-1.3226185430791412e-14" id="na" class="na" style="stroke:black;fill:none;stroke-width:2.0;stroke-linecap:round;stroke-linejoin:round;" /><path d="M 215.99999999999997,-0.0 L 161.99999999999997,-6.613092715395706e-15 L 107.99999999999999,-1.3226185430791412e-14" id="na" class="na" style="stroke:black;fill:none;stroke-width:2.0;stroke-linecap:round;stroke-linejoin:round;" /><text x="32.400000000000006" y="-59.6" fill="black" font-size="14.0" font-family="sans" text-anchor="start" class="arrow"><tspan x="32.400000000000006" dy="14.0">U<tspan baseline-shift="sub" font-size="smaller">ges</tspan></tspan></text><text x="54.00000000000001" y="-135.4" fill="black" font-size="14.0" font-family="sans" text-anchor="middle" class="na"><tspan x="54.00000000000001" dy="14.0">R1</tspan></text><text x="54.00000000000001" y="-84.60000000000001" fill="black" font-size="14.0" font-family="sans" text-anchor="middle" class="arrow"><tspan x="54.00000000000001" dy="14.0">U1</tspan></text><text x="162.0" y="-135.4" fill="black" font-size="14.0" font-family="sans" text-anchor="middle" class="na"><tspan x="162.0" dy="14.0">R2</tspan></text><text x="162.0" y="-84.60000000000001" fill="black" font-size="14.0" font-family="sans" text-anchor="middle" class="arrow"><tspan x="162.0" dy="14.0">U2</tspan></text><text x="91.8" y="-59.6" fill="black" font-size="14.0" font-family="sans" text-anchor="end" class="na"><tspan x="91.8" dy="14.0">R3</tspan></text><text x="131.39999999999998" y="-59.6" fill="black" font-size="14.0" font-family="sans" text-anchor="start" class="arrow"><tspan x="131.39999999999998" dy="14.0">U3</tspan></text><text x="199.79999999999998" y="-59.6" fill="black" font-size="14.0" font-family="sans" text-anchor="end" class="na"><tspan x="199.79999999999998" dy="14.0">R4</tspan></text><text x="239.4" y="-59.6" fill="black" font-size="14.0" font-family="sans" text-anchor="start" class="arrow"><tspan x="239.4" dy="14.0">U4</tspan></text><path d="M 8.817456953860937e-16,-14.399999999999997 L 8.81745695386094e-16,-14.399999999999999" id="na" class="arrow" style="stroke:black;fill:none;stroke-width:2.0;stroke-linecap:round;stroke-linejoin:round;" /><path d="M 1.4205902870109293e-15 -23.2 L 5.4 -14.400000000000002 L -5.399999999999999 -14.400000000000002 Z" style="stroke:black;fill:black;stroke-linecap:butt;stroke-linejoin:miter;" class="arrow" /><text x="-10.799999999999997" y="-25.4" fill="black" font-size="14.0" font-family="sans" text-anchor="end" class="arrow"><tspan x="-10.799999999999997" dy="14.0">I<tspan baseline-shift="sub" font-size="smaller">ges</tspan></tspan></text><path d="M 14.400000000000006,-108.0 L 14.400000000000007,-108.0" id="na" class="arrow" style="stroke:black;fill:none;stroke-width:2.0;stroke-linecap:round;stroke-linejoin:round;" /><path d="M 23.200000000000006 -108.0 L 14.40000000000001 -102.6 L 14.40000000000001 -113.4 Z" style="stroke:black;fill:black;stroke-linecap:butt;stroke-linejoin:miter;" class="arrow" /><text x="19.800000000000004" y="-130.0" fill="black" font-size="14.0" font-family="sans" text-anchor="middle" class="arrow"><tspan x="19.800000000000004" dy="14.0">I1</tspan></text><path d="M 122.39999999999999,-108.0 L 122.4,-108.0" id="na" class="arrow" style="stroke:black;fill:none;stroke-width:2.0;stroke-linecap:round;stroke-linejoin:round;" /><path d="M 131.20000000000002 -108.0 L 122.4 -102.6 L 122.4 -113.4 Z" style="stroke:black;fill:black;stroke-linecap:butt;stroke-linejoin:miter;" class="arrow" /><text x="127.8" y="-130.0" fill="black" font-size="14.0" font-family="sans" text-anchor="middle" class="arrow"><tspan x="127.8" dy="14.0">I2</tspan></text><path d="M 107.99999999999999,-93.60000000000001 L 107.99999999999999,-93.6" id="na" class="arrow" style="stroke:black;fill:none;stroke-width:2.0;stroke-linecap:round;stroke-linejoin:round;" /><path d="M 107.99999999999999 -84.8 L 102.59999999999998 -93.60000000000001 L 113.39999999999999 -93.60000000000001 Z" style="stroke:black;fill:black;stroke-linecap:butt;stroke-linejoin:miter;" class="arrow" /><text x="97.19999999999999" y="-93.80000000000001" fill="black" font-size="14.0" font-family="sans" text-anchor="end" class="arrow"><tspan x="97.19999999999999" dy="14.0">I3</tspan></text><path d="M 216.0,-93.60000000000001 L 216.0,-93.6" id="na" class="arrow" style="stroke:black;fill:none;stroke-width:2.0;stroke-linecap:round;stroke-linejoin:round;" /><path d="M 216.0 -84.8 L 210.6 -93.60000000000001 L 221.4 -93.60000000000001 Z" style="stroke:black;fill:black;stroke-linecap:butt;stroke-linejoin:miter;" class="arrow" /><text x="205.20000000000002" y="-93.80000000000001" fill="black" font-size="14.0" font-family="sans" text-anchor="end" class="arrow"><tspan x="205.20000000000002" dy="14.0">I4</tspan></text><circle cx="108.0" cy="-108.0" r="2.6999999999999997" style="stroke:black;fill:black;stroke-width:2.0;" /><circle cx="107.99999999999999" cy="-0.0" r="2.6999999999999997" style="stroke:black;fill:black;stroke-width:2.0;" /></svg>