<svg xmlns="http://www.w3.org/2000/svg" xml:lang="en" height="512.2pt" width="556.4000000000001pt" viewBox="-227.80000000000007 -464.0 556.4000000000001 512.2"><circle cx="54.0" cy="-0.0" r="18.0" style="stroke:black;fill:none;stroke-width:2.0;" /><path d="M 0.0,-0.0 L 36.0,-0.0 L 36.0,-0.0 M 72.0,-0.0 L 72.0,-0.0 L 108.0,-0.0" id="na" class="na" style="stroke:black;fill:none;stroke-width:2.0;stroke-linecap:round;stroke-linejoin:round;" /><path d="M 45.0,3.6 L 45.0,-3.6" id="na" class="na" style="stroke:black;fill:none;stroke-width:2.0;stroke-linecap:round;stroke-linejoin:round;" /><path d="M 59.4,-0.0 L 66.60000000000001,-0.0" id="na" class="na" style="stroke:black;fill:none;stroke-width:2.0;stroke-linecap:round;stroke-linejoin:round;" /><path d="M 63.0,3.6 L 63.0,-3.6" id="na" class="na" style="stroke:black;fill:none;stroke-width:2.0;stroke-linecap:round;stroke-linejoin:round;" /><path d="M 28.8,28.8 L 90.0,28.8" id="na" class="arrow" style="stroke:black;fill:none;stroke-width:2.0;stroke-linecap:round;stroke-linejoin:round;" /><path d="M 20.0 28.8 L 28.799999999999997 25.200000000000003 L 28.799999999999997 32.4 Z" style="stroke:black;fill:black;stroke-linecap:butt;stroke-linejoin:miter;" class="arrow" /><path d="M 0.0,-0.0 L -54.0,-6.613092715395707e-15 L -108.0,-1.3226185430791413e-14" id="na" class="na" style="stroke:black;fill:none;stroke-width:2.0;stroke-linecap:round;stroke-linejoin:round;" /><path d="M 108.0,-0.0 L 162.0,-0.0 L 216.0,-0.0" id="na" class="na" style="stroke:black;fill:none;stroke-width:2.0;stroke-linecap:round;stroke-linejoin:round;" /><path d="M 216.0,-0.0 L 270.0,-0.0 L 324.0,-0.0" id="na" class="na" style="stroke:black;fill:none;stroke-width:2.0;stroke-linecap:round;stroke-linejoin:round;" /><path d="M 324.0,-0.0 L 324.0,-54.0 L 324.0,-108.0" id="na" class="na" style="stroke:black;fill:none;stroke-width:2.0;stroke-linecap:round;stroke-linejoin:round;" /><path d="M 324.0,-108.0 L 324.0,-162.0 L 324.0,-216.0" id="na" class="na" style="stroke:black;fill:none;stroke-width:2.0;stroke-linecap:round;stroke-linejoin:round;" /><path d="M 324.0,-216.0 L 324.0,-270.0 L 324.0,-324.0" id="na" class="na" style="stroke:black;fill:none;stroke-width:2.0;stroke-linecap:round;stroke-linejoin:round;" /><path d="M 324.0,-324.0 L 288.0,-324.0 L 288.0,-315.0 L 252.0,-315.0 L 252.0,-333.0 L 288.0,-333.0 L 288.0,-324.0 M 252.0,-324.0 L 216.0,-324.0" id="R6" class="7.0 \Omega" style="stroke:black;fill:none;stroke-width:2.0;stroke-linecap:round;stroke-linejoin:round;" /><path d="M 306.0,-304.2 L 244.79999999999998,-304.2" id="na" class="arrow" style="stroke:black;fill:none;stroke-width:2.0;stroke-linecap:round;stroke-linejoin:round;" /><path d="M 236.0 -304.2 L 244.8 -307.8 L 244.8 -300.59999999999997 Z" style="stroke:black;fill:black;stroke-linecap:butt;stroke-linejoin:miter;" class="arrow" /><path d="M 216.0,-324.0 L 216.0,-378.0 L 216.0,-432.0" id="na" class="na" style="stroke:black;fill:none;stroke-width:2.0;stroke-linecap:round;stroke-linejoin:round;" /><path d="M 216.0,-324.0 L 216.0,-270.0 L 215.99999999999997,-216.0" id="na" class="na" style="stroke:black;fill:none;stroke-width:2.0;stroke-linecap:round;stroke-linejoin:round;" /><path d="M 216.0,-432.0 L 180.0,-432.0 L 180.0,-423.0 L 144.0,-423.0 L 144.0,-441.0 L 180.0,-441.0 L 180.0,-432.0 M 144.0,-432.0 L 108.0,-432.0" id="R4" class="20.0 \Omega" style="stroke:black;fill:none;stroke-width:2.0;stroke-linecap:round;stroke-linejoin:round;" /><path d="M 198.0,-412.2 L 136.79999999999998,-412.2" id="na" class="arrow" style="stroke:black;fill:none;stroke-width:2.0;stroke-linecap:round;stroke-linejoin:round;" /><path d="M 128.0 -412.2 L 136.8 -415.8 L 136.8 -408.59999999999997 Z" style="stroke:black;fill:black;stroke-linecap:butt;stroke-linejoin:miter;" class="arrow" /><path d="M 215.99999999999997,-216.0 L 179.99999999999997,-216.0 L 179.99999999999997,-207.0 L 143.99999999999997,-207.0 L 143.99999999999997,-225.0 L 179.99999999999997,-225.0 L 179.99999999999997,-216.0 M 143.99999999999997,-216.0 L 107.99999999999997,-216.0" id="R5" class="30.0 \Omega" style="stroke:black;fill:none;stroke-width:2.0;stroke-linecap:round;stroke-linejoin:round;" /><path d="M 197.99999999999997,-196.20000000000002 L 136.79999999999995,-196.20000000000002" id="na" class="arrow" style="stroke:black;fill:none;stroke-width:2.0;stroke-linecap:round;stroke-linejoin:round;" /><path d="M 127.99999999999997 -196.20000000000002 L 136.79999999999998 -199.8 L 136.79999999999998 -192.60000000000002 Z" style="stroke:black;fill:black;stroke-linecap:butt;stroke-linejoin:miter;" class="arrow" /><path d="M 108.0,-432.0 L 107.99999999999999,-378.0 L 107.99999999999999,-324.0" id="na" class="na" style="stroke:black;fill:none;stroke-width:2.0;stroke-linecap:round;stroke-linejoin:round;" /><path d="M 107.99999999999999,-324.0 L 53.999999999999986,-324.0 L -1.5987211554602254e-14,-324.0" id="na" class="na" style="stroke:black;fill:none;stroke-width:2.0;stroke-linecap:round;stroke-linejoin:round;" /><path d="M 107.99999999999997,-216.0 L 107.99999999999997,-270.0 L 107.99999999999997,-324.0" id="na" class="na" style="stroke:black;fill:none;stroke-width:2.0;stroke-linecap:round;stroke-linejoin:round;" /><path d="M -1.5987211554602254e-14,-324.0 L -1.2680665196904402e-14,-378.0 L -9.374118839206547e-15,-432.0" id="na" class="na" style="stroke:black;fill:none;stroke-width:2.0;stroke-linecap:round;stroke-linejoin:round;" /><path d="M -1.5987211554602254e-14,-324.0 L -2.5906850627695814e-14,-270.0 L -3.5826489700789373e-14,-216.0" id="na" class="na" style="stroke:black;fill:none;stroke-width:2.0;stroke-linecap:round;stroke-linejoin:round;" /><path d="M -1.5987211554602254e-14,-324.0 L -36.000000000000014,-324.0 L -36.000000000000014,-315.0 L -72.00000000000001,-315.0 L -72.00000000000001,-333.0 L -36.000000000000014,-333.0 L -36.000000000000014,-324.0 M -72.00000000000001,-324.0 L -108.00000000000001,-324.0" id="R2" class="6.0 \Omega" style="stroke:black;fill:none;stroke-width:2.0;stroke-linecap:round;stroke-linejoin:round;" /><path d="M -18.000000000000014,-304.2 L -79.20000000000002,-304.2" id="na" class="arrow" style="stroke:black;fill:none;stroke-width:2.0;stroke-linecap:round;stroke-linejoin:round;" /><path d="M -88.00000000000001 -304.2 L -79.2 -307.8 L -79.2 -300.59999999999997 Z" style="stroke:black;fill:black;stroke-linecap:butt;stroke-linejoin:miter;" class="arrow" /><path d="M -9.374118839206547e-15,-432.0 L -36.00000000000001,-432.0 L -36.00000000000001,-423.0 L -72.00000000000001,-423.0 L -72.00000000000001,-441.0 L -36.00000000000001,-441.0 L -36.00000000000001,-432.0 M -72.00000000000001,-432.0 L -108.00000000000001,-432.0" id="R1" class="3.0 \Omega" style="stroke:black;fill:none;stroke-width:2.0;stroke-linecap:round;stroke-linejoin:round;" /><path d="M -18.000000000000007,-412.2 L -79.2,-412.2" id="na" class="arrow" style="stroke:black;fill:none;stroke-width:2.0;stroke-linecap:round;stroke-linejoin:round;" /><path d="M -88.0 -412.2 L -79.19999999999999 -415.8 L -79.19999999999999 -408.59999999999997 Z" style="stroke:black;fill:black;stroke-linecap:butt;stroke-linejoin:miter;" class="arrow" /><path d="M -3.5826489700789373e-14,-216.0 L -36.00000000000003,-216.0 L -36.00000000000003,-207.0 L -72.00000000000003,-207.0 L -72.00000000000003,-225.0 L -36.00000000000003,-225.0 L -36.00000000000003,-216.0 M -72.00000000000003,-216.0 L -108.00000000000003,-216.0" id="R3" class="2.0 \Omega" style="stroke:black;fill:none;stroke-width:2.0;stroke-linecap:round;stroke-linejoin:round;" /><path d="M -18.000000000000032,-196.20000000000002 L -79.20000000000005,-196.20000000000002" id="na" class="arrow" style="stroke:black;fill:none;stroke-width:2.0;stroke-linecap:round;stroke-linejoin:round;" /><path d="M -88.00000000000003 -196.20000000000002 L -79.20000000000002 -199.8 L -79.20000000000002 -192.60000000000002 Z" style="stroke:black;fill:black;stroke-linecap:butt;stroke-linejoin:miter;" class="arrow" /><path d="M -108.00000000000001,-432.0 L -108.00000000000001,-378.0 L -108.00000000000001,-324.0" id="na" class="na" style="stroke:black;fill:none;stroke-width:2.0;stroke-linecap:round;stroke-linejoin:round;" /><path d="M -108.00000000000001,-324.0 L -162.0,-324.0 L -216.0,-324.0" id="na" class="na" style="stroke:black;fill:none;stroke-width:2.0;stroke-linecap:round;stroke-linejoin:round;" /><path d="M -108.00000000000003,-216.0 L -108.00000000000003,-270.0 L -108.00000000000003,-324.0" id="na" class="na" style="stroke:black;fill:none;stroke-width:2.0;stroke-linecap:round;stroke-linejoin:round;" /><path d="M -216.0,-324.0 L -216.0,-270.0 L -216.00000000000003,-216.0" id="na" class="na" style="stroke:black;fill:none;stroke-width:2.0;stroke-linecap:round;stroke-linejoin:round;" /><path d="M -216.00000000000003,-216.0 L -216.00000000000003,-162.0 L -216.00000000000006,-108.0" id="na" class="na" style="stroke:black;fill:none;stroke-width:2.0;stroke-linecap:round;stroke-linejoin:round;" /><path d="M -216.00000000000006,-108.0 L -216.00000000000006,-54.0 L -216.00000000000009,-0.0" id="na" class="na" style="stroke:black;fill:none;stroke-width:2.0;stroke-linecap:round;stroke-linejoin:round;" /><path d="M -216.00000000000009,-0.0 L -162.00000000000006,-6.613092715395707e-15 L -108.0,-1.3226185430791413e-14" id="na" class="na" style="stroke:black;fill:none;stroke-width:2.0;stroke-linecap:round;stroke-linejoin:round;" /><text x="54.0" y="32.4" fill="black" font-size="14.0" font-family="sans" text-anchor="middle" class="arrow"><tspan x="54.0" dy="14.0">U<tspan baseline-shift="sub" font-size="smaller">ges</tspan></tspan></text><text x="270.0" y="-351.4" fill="black" font-size="14.0" font-family="sans" text-anchor="middle" class="na"><tspan x="270.0" dy="14.0">R6</tspan></text><text x="270.0" y="-300.59999999999997" fill="black" font-size="14.0" font-family="sans" text-anchor="middle" class="arrow"><tspan x="270.0" dy="14.0">U6</tspan></text><text x="162.0" y="-459.4" fill="black" font-size="14.0" font-family="sans" text-anchor="middle" class="na"><tspan x="162.0" dy="14.0">R4</tspan></text><text x="162.0" y="-408.59999999999997" fill="black" font-size="14.0" font-family="sans" text-anchor="middle" class="arrow"><tspan x="162.0" dy="14.0">U4</tspan></text><text x="161.99999999999997" y="-243.4" fill="black" font-size="14.0" font-family="sans" text-anchor="middle" class="na"><tspan x="161.99999999999997" dy="14.0">R5</tspan></text><text x="161.99999999999997" y="-192.6" fill="black" font-size="14.0" font-family="sans" text-anchor="middle" class="arrow"><tspan x="161.99999999999997" dy="14.0">U5</tspan></text><text x="-54.000000000000014" y="-351.4" fill="black" font-size="14.0" font-family="sans" text-anchor="middle" class="na"><tspan x="-54.000000000000014" dy="14.0">R2</tspan></text><text x="-54.000000000000014" y="-300.59999999999997" fill="black" font-size="14.0" font-family="sans" text-anchor="middle" class="arrow"><tspan x="-54.000000000000014" dy="14.0">U2</tspan></text><text x="-54.00000000000001" y="-459.4" fill="black" font-size="14.0" font-family="sans" text-anchor="middle" class="na"><tspan x="-54.00000000000001" dy="14.0">R1</tspan></text><text x="-54.00000000000001" y="-408.59999999999997" fill="black" font-size="14.0" font-family="sans" text-anchor="middle" class="arrow"><tspan x="-54.00000000000001" dy="14.0">U1</tspan></text><text x="-54.00000000000003" y="-243.4" fill="black" font-size="14.0" font-family="sans" text-anchor="middle" class="na"><tspan x="-54.00000000000003" dy="14.0">R3</tspan></text><text x="-54.00000000000003" y="-192.6" fill="black" font-size="14.0" font-family="sans" text-anchor="middle" class="arrow"><tspan x="-54.00000000000003" dy="14.0">U3</tspan></text><path d="M 14.399999999999997,-0.0 L 14.399999999999999,-0.0" id="na" class="arrow" style="stroke:black;fill:none;stroke-width:2.0;stroke-linecap:round;stroke-linejoin:round;" /><path d="M 23.2 0.0 L 14.400000000000002 5.3999999999999995 L 14.400000000000002 -5.3999999999999995 Z" style="stroke:black;fill:black;stroke-linecap:butt;stroke-linejoin:miter;" class="arrow" /><text x="19.799999999999997" y="-22.0" fill="black" font-size="14.0" font-family="sans" text-anchor="middle" class="arrow"><tspan x="19.799999999999997" dy="14.0">I<tspan baseline-shift="sub" font-size="smaller">ges</tspan></tspan></text><path d="M 309.59999999999997,-324.0 L 309.6,-324.0" id="na" class="arrow" style="stroke:black;fill:none;stroke-width:2.0;stroke-linecap:round;stroke-linejoin:round;" /><path d="M 300.8 -324.0 L 309.59999999999997 -329.4 L 309.59999999999997 -318.6 Z" style="stroke:black;fill:black;stroke-linecap:butt;stroke-linejoin:miter;" class="arrow" /><text x="304.2" y="-346.0" fill="black" font-size="14.0" font-family="sans" text-anchor="middle" class="arrow"><tspan x="304.2" dy="14.0">I6</tspan></text><path d="M 201.6,-432.0 L 201.6,-432.0" id="na" class="arrow" style="stroke:black;fill:none;stroke-width:2.0;stroke-linecap:round;stroke-linejoin:round;" /><path d="M 192.79999999999998 -432.0 L 201.6 -437.4 L 201.6 -426.6 Z" style="stroke:black;fill:black;stroke-linecap:butt;stroke-linejoin:miter;" class="arrow" /><text x="196.20000000000002" y="-454.0" fill="black" font-size="14.0" font-family="sans" text-anchor="middle" class="arrow"><tspan x="196.20000000000002" dy="14.0">I4</tspan></text><path d="M 201.6,-216.0 L 201.59999999999997,-216.0" id="na" class="arrow" style="stroke:black;fill:none;stroke-width:2.0;stroke-linecap:round;stroke-linejoin:round;" /><path d="M 192.79999999999995 -216.0 L 201.59999999999997 -221.4 L 201.59999999999997 -210.6 Z" style="stroke:black;fill:black;stroke-linecap:butt;stroke-linejoin:miter;" class="arrow" /><text x="196.2" y="-237.99999999999997" fill="black" font-size="14.0" font-family="sans" text-anchor="middle" class="arrow"><tspan x="196.2" dy="14.0">I5</tspan></text><path d="M -14.400000000000013,-324.0 L -14.400000000000015,-324.0" id="na" class="arrow" style="stroke:black;fill:none;stroke-width:2.0;stroke-linecap:round;stroke-linejoin:round;" /><path d="M -23.200000000000014 -324.0 L -14.400000000000015 -329.4 L -14.400000000000016 -318.6 Z" style="stroke:black;fill:black;stroke-linecap:butt;stroke-linejoin:miter;" class="arrow" /><text x="-19.800000000000015" y="-346.0" fill="black" font-size="14.0" font-family="sans" text-anchor="middle" class="arrow"><tspan x="-19.800000000000015" dy="14.0">I2</tspan></text><path d="M -14.400000000000006,-432.0 L -14.400000000000007,-432.0" id="na" class="arrow" style="stroke:black;fill:none;stroke-width:2.0;stroke-linecap:round;stroke-linejoin:round;" /><path d="M -23.200000000000006 -432.0 L -14.400000000000007 -437.4 L -14.40000000000001 -426.6 Z" style="stroke:black;fill:black;stroke-linecap:butt;stroke-linejoin:miter;" class="arrow" /><text x="-19.800000000000004" y="-454.0" fill="black" font-size="14.0" font-family="sans" text-anchor="middle" class="arrow"><tspan x="-19.800000000000004" dy="14.0">I1</tspan></text><path d="M -14.400000000000029,-216.0 L -14.40000000000003,-216.0" id="na" class="arrow" style="stroke:black;fill:none;stroke-width:2.0;stroke-linecap:round;stroke-linejoin:round;" /><path d="M -23.20000000000003 -216.0 L -14.400000000000032 -221.4 L -14.400000000000034 -210.6 Z" style="stroke:black;fill:black;stroke-linecap:butt;stroke-linejoin:miter;" class="arrow" /><text x="-19.80000000000003" y="-237.99999999999997" fill="black" font-size="14.0" font-family="sans" text-anchor="middle" class="arrow"><tspan x="-19.80000000000003" dy="14.0">I3</tspan></text><circle cx="216.0" cy="-324.0" r="2.6999999999999997" style="stroke:black;fill:black;stroke-width:2.0;" /><circle cx="107.99999999999999" cy="-324.0" r="2.6999999999999997" style="stroke:black;fill:black;stroke-width:2.0;" /><circle cx="-1.5987211554602254e-14" cy="-324.0" r="2.6999999999999997" style="stroke:black;fill:black;stroke-width:2.0;" /><circle cx="-108.00000000000001" cy="-324.0" r="2.6999999999999997" style="stroke:black;fill:black;stroke-width:2.0;" /></svg>