<svg xmlns="http://www.w3.org/2000/svg" xml:lang="en" height="506.8pt" width="572.1740000000001pt" viewBox="-224.20000000000007 -464.0 572.1740000000001 506.8"><circle cx="54.0" cy="-0.0" r="18.0" style="stroke:black;fill:none;stroke-width:2.0;" /><path d="M 0.0,-0.0 L 36.0,-0.0 L 36.0,-0.0 M 72.0,-0.0 L 72.0,-0.0 L 108.0,-0.0" id="na" class="na" style="stroke:black;fill:none;stroke-width:2.0;stroke-linecap:round;stroke-linejoin:round;" /><path d="M 45.0,3.6 L 45.0,-3.6" id="na" class="na" style="stroke:black;fill:none;stroke-width:2.0;stroke-linecap:round;stroke-linejoin:round;" /><path d="M 59.4,-0.0 L 66.60000000000001,-0.0" id="na" class="na" style="stroke:black;fill:none;stroke-width:2.0;stroke-linecap:round;stroke-linejoin:round;" /><path d="M 63.0,3.6 L 63.0,-3.6" id="na" class="na" style="stroke:black;fill:none;stroke-width:2.0;stroke-linecap:round;stroke-linejoin:round;" /><path d="M 37.800000000000004,23.400000000000002 L 81.0,23.400000000000002" id="na" class="voltage-label arrow U1" style="stroke:black;fill:none;stroke-width:2.0;stroke-linecap:round;stroke-linejoin:round;" /><path d="M 29.0 23.400000000000002 L 37.8 19.800000000000004 L 37.8 27.000000000000004 Z" style="stroke:black;fill:black;stroke-linecap:butt;stroke-linejoin:miter;" class="voltage-label arrow U1" /><path d="M 0.0,-0.0 L -54.0,-6.613092715395707e-15 L -108.0,-1.3226185430791413e-14" id="na" class="na" style="stroke:black;fill:none;stroke-width:2.0;stroke-linecap:round;stroke-linejoin:round;" /><path d="M 108.0,-0.0 L 162.0,-0.0 L 216.0,-0.0" id="na" class="na" style="stroke:black;fill:none;stroke-width:2.0;stroke-linecap:round;stroke-linejoin:round;" /><path d="M 216.0,-0.0 L 270.0,-0.0 L 324.0,-0.0" id="na" class="na" style="stroke:black;fill:none;stroke-width:2.0;stroke-linecap:round;stroke-linejoin:round;" /><path d="M 324.0,-0.0 L 324.0,-54.0 L 324.0,-108.0" id="na" class="na" style="stroke:black;fill:none;stroke-width:2.0;stroke-linecap:round;stroke-linejoin:round;" /><path d="M 324.0,-108.0 L 324.0,-162.0 L 324.0,-216.0" id="na" class="na" style="stroke:black;fill:none;stroke-width:2.0;stroke-linecap:round;stroke-linejoin:round;" /><path d="M 324.0,-216.0 L 324.0,-270.0 L 324.0,-324.0" id="na" class="na" style="stroke:black;fill:none;stroke-width:2.0;stroke-linecap:round;stroke-linejoin:round;" /><path d="M 324.0,-324.0 L 288.0,-324.0 L 288.0,-315.0 L 252.0,-315.0 L 252.0,-333.0 L 288.0,-333.0 L 288.0,-324.0 M 252.0,-324.0 L 216.0,-324.0" id="R6" class="7.0 \Omega" style="stroke:black;fill:transparent;stroke-width:2.0;stroke-linecap:round;stroke-linejoin:round;" /><path d="M 297.0,-309.59999999999997 L 253.79999999999998,-309.59999999999997" id="na" class="voltage-label arrow U6" style="stroke:black;fill:none;stroke-width:2.0;stroke-linecap:round;stroke-linejoin:round;" /><path d="M 245.0 -309.59999999999997 L 253.8 -313.2 L 253.8 -305.99999999999994 Z" style="stroke:black;fill:black;stroke-linecap:butt;stroke-linejoin:miter;" class="voltage-label arrow U6" /><path d="M 216.0,-324.0 L 216.0,-378.0 L 216.0,-432.0" id="na" class="na" style="stroke:black;fill:none;stroke-width:2.0;stroke-linecap:round;stroke-linejoin:round;" /><path d="M 216.0,-324.0 L 216.0,-270.0 L 215.99999999999997,-216.0" id="na" class="na" style="stroke:black;fill:none;stroke-width:2.0;stroke-linecap:round;stroke-linejoin:round;" /><path d="M 216.0,-432.0 L 180.0,-432.0 L 180.0,-423.0 L 144.0,-423.0 L 144.0,-441.0 L 180.0,-441.0 L 180.0,-432.0 M 144.0,-432.0 L 108.0,-432.0" id="R4" class="20.0 \Omega" style="stroke:black;fill:transparent;stroke-width:2.0;stroke-linecap:round;stroke-linejoin:round;" /><path d="M 189.0,-417.59999999999997 L 145.79999999999998,-417.59999999999997" id="na" class="voltage-label arrow U4" style="stroke:black;fill:none;stroke-width:2.0;stroke-linecap:round;stroke-linejoin:round;" /><path d="M 137.0 -417.59999999999997 L 145.8 -421.2 L 145.8 -413.99999999999994 Z" style="stroke:black;fill:black;stroke-linecap:butt;stroke-linejoin:miter;" class="voltage-label arrow U4" /><path d="M 215.99999999999997,-216.0 L 179.99999999999997,-216.0 L 179.99999999999997,-207.0 L 143.99999999999997,-207.0 L 143.99999999999997,-225.0 L 179.99999999999997,-225.0 L 179.99999999999997,-216.0 M 143.99999999999997,-216.0 L 107.99999999999997,-216.0" id="R5" class="30.0 \Omega" style="stroke:black;fill:transparent;stroke-width:2.0;stroke-linecap:round;stroke-linejoin:round;" /><path d="M 188.99999999999997,-201.6 L 145.79999999999995,-201.6" id="na" class="voltage-label arrow U5" style="stroke:black;fill:none;stroke-width:2.0;stroke-linecap:round;stroke-linejoin:round;" /><path d="M 136.99999999999997 -201.6 L 145.79999999999998 -205.2 L 145.79999999999998 -198.0 Z" style="stroke:black;fill:black;stroke-linecap:butt;stroke-linejoin:miter;" class="voltage-label arrow U5" /><path d="M 108.0,-432.0 L 107.99999999999999,-378.0 L 107.99999999999999,-324.0" id="na" class="na" style="stroke:black;fill:none;stroke-width:2.0;stroke-linecap:round;stroke-linejoin:round;" /><path d="M 107.99999999999999,-324.0 L 53.999999999999986,-324.0 L -1.5987211554602254e-14,-324.0" id="na" class="na" style="stroke:black;fill:none;stroke-width:2.0;stroke-linecap:round;stroke-linejoin:round;" /><path d="M 107.99999999999997,-216.0 L 107.99999999999997,-270.0 L 107.99999999999997,-324.0" id="na" class="na" style="stroke:black;fill:none;stroke-width:2.0;stroke-linecap:round;stroke-linejoin:round;" /><path d="M -1.5987211554602254e-14,-324.0 L -1.2680665196904402e-14,-378.0 L -9.374118839206547e-15,-432.0" id="na" class="na" style="stroke:black;fill:none;stroke-width:2.0;stroke-linecap:round;stroke-linejoin:round;" /><path d="M -1.5987211554602254e-14,-324.0 L -2.5906850627695814e-14,-270.0 L -3.5826489700789373e-14,-216.0" id="na" class="na" style="stroke:black;fill:none;stroke-width:2.0;stroke-linecap:round;stroke-linejoin:round;" /><path d="M -1.5987211554602254e-14,-324.0 L -36.000000000000014,-324.0 L -36.000000000000014,-315.0 L -72.00000000000001,-315.0 L -72.00000000000001,-333.0 L -36.000000000000014,-333.0 L -36.000000000000014,-324.0 M -72.00000000000001,-324.0 L -108.00000000000001,-324.0" id="R2" class="6.0 \Omega" style="stroke:black;fill:transparent;stroke-width:2.0;stroke-linecap:round;stroke-linejoin:round;" /><path d="M -27.000000000000014,-309.59999999999997 L -70.20000000000002,-309.59999999999997" id="na" class="voltage-label arrow U2" style="stroke:black;fill:none;stroke-width:2.0;stroke-linecap:round;stroke-linejoin:round;" /><path d="M -79.00000000000001 -309.59999999999997 L -70.2 -313.2 L -70.2 -305.99999999999994 Z" style="stroke:black;fill:black;stroke-linecap:butt;stroke-linejoin:miter;" class="voltage-label arrow U2" /><path d="M -9.374118839206547e-15,-432.0 L -36.00000000000001,-432.0 L -36.00000000000001,-423.0 L -72.00000000000001,-423.0 L -72.00000000000001,-441.0 L -36.00000000000001,-441.0 L -36.00000000000001,-432.0 M -72.00000000000001,-432.0 L -108.00000000000001,-432.0" id="R1" class="3.0 \Omega" style="stroke:black;fill:transparent;stroke-width:2.0;stroke-linecap:round;stroke-linejoin:round;" /><path d="M -27.000000000000007,-417.59999999999997 L -70.2,-417.59999999999997" id="na" class="voltage-label arrow U1" style="stroke:black;fill:none;stroke-width:2.0;stroke-linecap:round;stroke-linejoin:round;" /><path d="M -79.0 -417.59999999999997 L -70.19999999999999 -421.2 L -70.19999999999999 -413.99999999999994 Z" style="stroke:black;fill:black;stroke-linecap:butt;stroke-linejoin:miter;" class="voltage-label arrow U1" /><path d="M -3.5826489700789373e-14,-216.0 L -36.00000000000003,-216.0 L -36.00000000000003,-207.0 L -72.00000000000003,-207.0 L -72.00000000000003,-225.0 L -36.00000000000003,-225.0 L -36.00000000000003,-216.0 M -72.00000000000003,-216.0 L -108.00000000000003,-216.0" id="R3" class="2.0 \Omega" style="stroke:black;fill:transparent;stroke-width:2.0;stroke-linecap:round;stroke-linejoin:round;" /><path d="M -27.000000000000032,-201.6 L -70.20000000000003,-201.6" id="na" class="voltage-label arrow U3" style="stroke:black;fill:none;stroke-width:2.0;stroke-linecap:round;stroke-linejoin:round;" /><path d="M -79.00000000000003 -201.6 L -70.20000000000002 -205.2 L -70.20000000000002 -198.0 Z" style="stroke:black;fill:black;stroke-linecap:butt;stroke-linejoin:miter;" class="voltage-label arrow U3" /><path d="M -108.00000000000001,-432.0 L -108.00000000000001,-378.0 L -108.00000000000001,-324.0" id="na" class="na" style="stroke:black;fill:none;stroke-width:2.0;stroke-linecap:round;stroke-linejoin:round;" /><path d="M -108.00000000000001,-324.0 L -162.0,-324.0 L -216.0,-324.0" id="na" class="na" style="stroke:black;fill:none;stroke-width:2.0;stroke-linecap:round;stroke-linejoin:round;" /><path d="M -108.00000000000003,-216.0 L -108.00000000000003,-270.0 L -108.00000000000003,-324.0" id="na" class="na" style="stroke:black;fill:none;stroke-width:2.0;stroke-linecap:round;stroke-linejoin:round;" /><path d="M -216.0,-324.0 L -216.0,-270.0 L -216.00000000000003,-216.0" id="na" class="na" style="stroke:black;fill:none;stroke-width:2.0;stroke-linecap:round;stroke-linejoin:round;" /><path d="M -216.00000000000003,-216.0 L -216.00000000000003,-162.0 L -216.00000000000006,-108.0" id="na" class="na" style="stroke:black;fill:none;stroke-width:2.0;stroke-linecap:round;stroke-linejoin:round;" /><path d="M -216.00000000000006,-108.0 L -216.00000000000006,-54.0 L -216.00000000000009,-0.0" id="na" class="na" style="stroke:black;fill:none;stroke-width:2.0;stroke-linecap:round;stroke-linejoin:round;" /><path d="M -216.00000000000009,-0.0 L -162.00000000000006,-6.613092715395707e-15 L -108.0,-1.3226185430791413e-14" id="na" class="na" style="stroke:black;fill:none;stroke-width:2.0;stroke-linecap:round;stroke-linejoin:round;" /><text x="54.0" y="-36.4" fill="black" font-size="14.0" font-family="sans" text-anchor="middle" class="element-label V1"><tspan x="54.0" dy="14.0">###.### ##</tspan></text><text x="46.800000000000004" y="27.0" fill="black" font-size="14.0" font-family="sans" text-anchor="middle" class="voltage-label arrow Uges"><tspan x="46.800000000000004" dy="14.0">###.### ##</tspan></text><text x="270.0" y="-351.4" fill="black" font-size="14.0" font-family="sans" text-anchor="middle" class="element-label R6"><tspan x="270.0" dy="14.0">###.### ##</tspan></text><text x="262.8" y="-306.0" fill="black" font-size="14.0" font-family="sans" text-anchor="middle" class="voltage-label arrow U6"><tspan x="262.8" dy="14.0">###.### ##</tspan></text><text x="162.0" y="-459.4" fill="black" font-size="14.0" font-family="sans" text-anchor="middle" class="element-label R4"><tspan x="162.0" dy="14.0">###.### ##</tspan></text><text x="154.79999999999998" y="-414.0" fill="black" font-size="14.0" font-family="sans" text-anchor="middle" class="voltage-label arrow U4"><tspan x="154.79999999999998" dy="14.0">###.### ##</tspan></text><text x="161.99999999999997" y="-243.4" fill="black" font-size="14.0" font-family="sans" text-anchor="middle" class="element-label R5"><tspan x="161.99999999999997" dy="14.0">###.### ##</tspan></text><text x="154.79999999999995" y="-198.0" fill="black" font-size="14.0" font-family="sans" text-anchor="middle" class="voltage-label arrow U5"><tspan x="154.79999999999995" dy="14.0">###.### ##</tspan></text><text x="-54.000000000000014" y="-351.4" fill="black" font-size="14.0" font-family="sans" text-anchor="middle" class="element-label R2"><tspan x="-54.000000000000014" dy="14.0">###.### ##</tspan></text><text x="-61.20000000000002" y="-306.0" fill="black" font-size="14.0" font-family="sans" text-anchor="middle" class="voltage-label arrow U2"><tspan x="-61.20000000000002" dy="14.0">###.### ##</tspan></text><text x="-54.00000000000001" y="-459.4" fill="black" font-size="14.0" font-family="sans" text-anchor="middle" class="element-label R1"><tspan x="-54.00000000000001" dy="14.0">###.### ##</tspan></text><text x="-61.2" y="-414.0" fill="black" font-size="14.0" font-family="sans" text-anchor="middle" class="voltage-label arrow U1"><tspan x="-61.2" dy="14.0">###.### ##</tspan></text><text x="-54.00000000000003" y="-243.4" fill="black" font-size="14.0" font-family="sans" text-anchor="middle" class="element-label R3"><tspan x="-54.00000000000003" dy="14.0">###.### ##</tspan></text><text x="-61.20000000000003" y="-198.0" fill="black" font-size="14.0" font-family="sans" text-anchor="middle" class="voltage-label arrow U3"><tspan x="-61.20000000000003" dy="14.0">###.### ##</tspan></text><path d="M 14.399999999999997,-0.0 L 14.399999999999999,-0.0" id="na" class="current-label arrow I1" style="stroke:black;fill:none;stroke-width:2.0;stroke-linecap:round;stroke-linejoin:round;" /><path d="M 23.2 0.0 L 14.400000000000002 5.3999999999999995 L 14.400000000000002 -5.3999999999999995 Z" style="stroke:black;fill:black;stroke-linecap:butt;stroke-linejoin:miter;" class="current-label arrow I1" /><text x="23.4" y="-22.0" fill="black" font-size="14.0" font-family="sans" text-anchor="middle" class="current-label arrow Iges"><tspan x="23.4" dy="14.0">###.### ##</tspan></text><path d="M 309.59999999999997,-324.0 L 309.6,-324.0" id="na" class="current-label arrow I6" style="stroke:black;fill:none;stroke-width:2.0;stroke-linecap:round;stroke-linejoin:round;" /><path d="M 300.8 -324.0 L 309.59999999999997 -329.4 L 309.59999999999997 -318.6 Z" style="stroke:black;fill:black;stroke-linecap:butt;stroke-linejoin:miter;" class="current-label arrow I6" /><text x="307.8" y="-346.0" fill="black" font-size="14.0" font-family="sans" text-anchor="middle" class="current-label arrow I6"><tspan x="307.8" dy="14.0">###.### ##</tspan></text><path d="M 201.6,-432.0 L 201.6,-432.0" id="na" class="current-label arrow I4" style="stroke:black;fill:none;stroke-width:2.0;stroke-linecap:round;stroke-linejoin:round;" /><path d="M 192.79999999999998 -432.0 L 201.6 -437.4 L 201.6 -426.6 Z" style="stroke:black;fill:black;stroke-linecap:butt;stroke-linejoin:miter;" class="current-label arrow I4" /><text x="199.79999999999998" y="-454.0" fill="black" font-size="14.0" font-family="sans" text-anchor="middle" class="current-label arrow I4"><tspan x="199.79999999999998" dy="14.0">###.### ##</tspan></text><path d="M 201.6,-216.0 L 201.59999999999997,-216.0" id="na" class="current-label arrow I5" style="stroke:black;fill:none;stroke-width:2.0;stroke-linecap:round;stroke-linejoin:round;" /><path d="M 192.79999999999995 -216.0 L 201.59999999999997 -221.4 L 201.59999999999997 -210.6 Z" style="stroke:black;fill:black;stroke-linecap:butt;stroke-linejoin:miter;" class="current-label arrow I5" /><text x="199.79999999999995" y="-237.99999999999997" fill="black" font-size="14.0" font-family="sans" text-anchor="middle" class="current-label arrow I5"><tspan x="199.79999999999995" dy="14.0">###.### ##</tspan></text><path d="M -14.400000000000013,-324.0 L -14.400000000000015,-324.0" id="na" class="current-label arrow I2" style="stroke:black;fill:none;stroke-width:2.0;stroke-linecap:round;stroke-linejoin:round;" /><path d="M -23.200000000000014 -324.0 L -14.400000000000015 -329.4 L -14.400000000000016 -318.6 Z" style="stroke:black;fill:black;stroke-linecap:butt;stroke-linejoin:miter;" class="current-label arrow I2" /><text x="-16.200000000000014" y="-346.0" fill="black" font-size="14.0" font-family="sans" text-anchor="middle" class="current-label arrow I2"><tspan x="-16.200000000000014" dy="14.0">###.### ##</tspan></text><path d="M -14.400000000000006,-432.0 L -14.400000000000007,-432.0" id="na" class="current-label arrow I1" style="stroke:black;fill:none;stroke-width:2.0;stroke-linecap:round;stroke-linejoin:round;" /><path d="M -23.200000000000006 -432.0 L -14.400000000000007 -437.4 L -14.40000000000001 -426.6 Z" style="stroke:black;fill:black;stroke-linecap:butt;stroke-linejoin:miter;" class="current-label arrow I1" /><text x="-16.200000000000006" y="-454.0" fill="black" font-size="14.0" font-family="sans" text-anchor="middle" class="current-label arrow I1"><tspan x="-16.200000000000006" dy="14.0">###.### ##</tspan></text><path d="M -14.400000000000029,-216.0 L -14.40000000000003,-216.0" id="na" class="current-label arrow I3" style="stroke:black;fill:none;stroke-width:2.0;stroke-linecap:round;stroke-linejoin:round;" /><path d="M -23.20000000000003 -216.0 L -14.400000000000032 -221.4 L -14.400000000000034 -210.6 Z" style="stroke:black;fill:black;stroke-linecap:butt;stroke-linejoin:miter;" class="current-label arrow I3" /><text x="-16.20000000000003" y="-237.99999999999997" fill="black" font-size="14.0" font-family="sans" text-anchor="middle" class="current-label arrow I3"><tspan x="-16.20000000000003" dy="14.0">###.### ##</tspan></text><circle cx="216.0" cy="-324.0" r="2.6999999999999997" style="stroke:black;fill:black;stroke-width:2.0;" /><circle cx="107.99999999999999" cy="-324.0" r="2.6999999999999997" style="stroke:black;fill:black;stroke-width:2.0;" /><circle cx="-1.5987211554602254e-14" cy="-324.0" r="2.6999999999999997" style="stroke:black;fill:black;stroke-width:2.0;" /><circle cx="-108.00000000000001" cy="-324.0" r="2.6999999999999997" style="stroke:black;fill:black;stroke-width:2.0;" /></svg>