<svg xmlns="http://www.w3.org/2000/svg" xml:lang="en" height="614.8000000000001pt" width="356.17400000000004pt" viewBox="-116.20000000000003 -572.0 356.17400000000004 614.8000000000001"><circle cx="54.0" cy="-0.0" r="18.0" style="stroke:black;fill:none;stroke-width:2.0;" /><path d="M 0.0,-0.0 L 36.0,-0.0 L 36.0,-0.0 M 72.0,-0.0 L 72.0,-0.0 L 108.0,-0.0" id="na" class="na" style="stroke:black;fill:none;stroke-width:2.0;stroke-linecap:round;stroke-linejoin:round;" /><path d="M 45.0,3.6 L 45.0,-3.6" id="na" class="na" style="stroke:black;fill:none;stroke-width:2.0;stroke-linecap:round;stroke-linejoin:round;" /><path d="M 59.4,-0.0 L 66.60000000000001,-0.0" id="na" class="na" style="stroke:black;fill:none;stroke-width:2.0;stroke-linecap:round;stroke-linejoin:round;" /><path d="M 63.0,3.6 L 63.0,-3.6" id="na" class="na" style="stroke:black;fill:none;stroke-width:2.0;stroke-linecap:round;stroke-linejoin:round;" /><path d="M 37.800000000000004,23.400000000000002 L 81.0,23.400000000000002" id="na" class="voltage-label arrow U1" style="stroke:black;fill:none;stroke-width:2.0;stroke-linecap:round;stroke-linejoin:round;" /><path d="M 29.0 23.400000000000002 L 37.8 19.800000000000004 L 37.8 27.000000000000004 Z" style="stroke:black;fill:black;stroke-linecap:butt;stroke-linejoin:miter;" class="voltage-label arrow U1" /><path d="M 0.0,-0.0 L -54.0,-6.613092715395707e-15 L -108.0,-1.3226185430791413e-14" id="na" class="na" style="stroke:black;fill:none;stroke-width:2.0;stroke-linecap:round;stroke-linejoin:round;" /><path d="M 108.0,-0.0 L 162.0,-0.0 L 216.0,-0.0" id="na" class="na" style="stroke:black;fill:none;stroke-width:2.0;stroke-linecap:round;stroke-linejoin:round;" /><path d="M 216.0,-0.0 L 216.0,-54.0 L 216.0,-108.0" id="na" class="na" style="stroke:black;fill:none;stroke-width:2.0;stroke-linecap:round;stroke-linejoin:round;" /><path d="M 216.0,-108.0 L 216.0,-162.0 L 216.0,-216.0" id="na" class="na" style="stroke:black;fill:none;stroke-width:2.0;stroke-linecap:round;stroke-linejoin:round;" /><path d="M 216.0,-108.0 L 162.0,-108.0 L 108.0,-108.00000000000001" id="na" class="na" style="stroke:black;fill:none;stroke-width:2.0;stroke-linecap:round;stroke-linejoin:round;" /><path d="M 216.0,-216.0 L 216.0,-270.0 L 216.0,-324.0" id="na" class="na" style="stroke:black;fill:none;stroke-width:2.0;stroke-linecap:round;stroke-linejoin:round;" /><path d="M 216.0,-324.0 L 216.0,-378.0 L 216.0,-432.0" id="na" class="na" style="stroke:black;fill:none;stroke-width:2.0;stroke-linecap:round;stroke-linejoin:round;" /><path d="M 216.0,-324.0 L 162.0,-324.0 L 108.0,-324.0" id="na" class="na" style="stroke:black;fill:none;stroke-width:2.0;stroke-linecap:round;stroke-linejoin:round;" /><path d="M 216.0,-432.0 L 216.0,-486.0 L 216.0,-540.0" id="na" class="na" style="stroke:black;fill:none;stroke-width:2.0;stroke-linecap:round;stroke-linejoin:round;" /><path d="M 216.0,-540.0 L 180.0,-540.0 L 180.0,-531.0 L 144.0,-531.0 L 144.0,-549.0 L 180.0,-549.0 L 180.0,-540.0 M 144.0,-540.0 L 108.0,-540.0" id="R4" class="8.0 \Omega" style="stroke:black;fill:transparent;stroke-width:2.0;stroke-linecap:round;stroke-linejoin:round;" /><path d="M 189.0,-525.6 L 145.79999999999998,-525.6" id="na" class="voltage-label arrow U4" style="stroke:black;fill:none;stroke-width:2.0;stroke-linecap:round;stroke-linejoin:round;" /><path d="M 137.0 -525.6 L 145.8 -529.2 L 145.8 -522.0 Z" style="stroke:black;fill:black;stroke-linecap:butt;stroke-linejoin:miter;" class="voltage-label arrow U4" /><path d="M 108.0,-540.0 L 72.0,-540.0 L 72.0,-531.0 L 36.0,-531.0 L 36.0,-549.0 L 72.0,-549.0 L 72.0,-540.0 M 36.0,-540.0 L 0.0,-540.0" id="R3" class="5.0 \Omega" style="stroke:black;fill:transparent;stroke-width:2.0;stroke-linecap:round;stroke-linejoin:round;" /><path d="M 81.0,-525.6 L 37.800000000000004,-525.6" id="na" class="voltage-label arrow U3" style="stroke:black;fill:none;stroke-width:2.0;stroke-linecap:round;stroke-linejoin:round;" /><path d="M 29.0 -525.6 L 37.8 -529.2 L 37.8 -522.0 Z" style="stroke:black;fill:black;stroke-linecap:butt;stroke-linejoin:miter;" class="voltage-label arrow U3" /><path d="M 0.0,-540.0 L -9.919639073093561e-15,-486.0 L -1.9839278146187122e-14,-432.0" id="na" class="na" style="stroke:black;fill:none;stroke-width:2.0;stroke-linecap:round;stroke-linejoin:round;" /><path d="M 108.0,-324.0 L 72.0,-324.0 L 72.0,-315.0 L 36.0,-315.0 L 36.0,-333.0 L 72.0,-333.0 L 72.0,-324.0 M 36.0,-324.0 L 0.0,-324.0" id="R5" class="17.0 \Omega" style="stroke:black;fill:transparent;stroke-width:2.0;stroke-linecap:round;stroke-linejoin:round;" /><path d="M 81.0,-309.59999999999997 L 37.800000000000004,-309.59999999999997" id="na" class="voltage-label arrow U5" style="stroke:black;fill:none;stroke-width:2.0;stroke-linecap:round;stroke-linejoin:round;" /><path d="M 29.0 -309.59999999999997 L 37.8 -313.2 L 37.8 -305.99999999999994 Z" style="stroke:black;fill:black;stroke-linecap:butt;stroke-linejoin:miter;" class="voltage-label arrow U5" /><path d="M 0.0,-324.0 L -9.919639073093561e-15,-270.0 L -1.9839278146187122e-14,-216.0" id="na" class="na" style="stroke:black;fill:none;stroke-width:2.0;stroke-linecap:round;stroke-linejoin:round;" /><path d="M 0.0,-324.0 L -8.683862308253838e-15,-378.0 L -1.7367724616507677e-14,-432.0" id="na" class="na" style="stroke:black;fill:none;stroke-width:2.0;stroke-linecap:round;stroke-linejoin:round;" /><path d="M 108.0,-108.00000000000001 L 72.0,-108.00000000000001 L 72.0,-99.00000000000001 L 36.0,-99.00000000000003 L 36.0,-117.00000000000003 L 72.0,-117.00000000000001 L 72.0,-108.00000000000001 M 36.0,-108.00000000000003 L 0.0,-108.00000000000003" id="R6" class="26.0 \Omega" style="stroke:black;fill:transparent;stroke-width:2.0;stroke-linecap:round;stroke-linejoin:round;" /><path d="M 81.0,-93.60000000000002 L 37.800000000000004,-93.60000000000002" id="na" class="voltage-label arrow U6" style="stroke:black;fill:none;stroke-width:2.0;stroke-linecap:round;stroke-linejoin:round;" /><path d="M 29.0 -93.60000000000002 L 37.8 -97.20000000000002 L 37.8 -90.00000000000003 Z" style="stroke:black;fill:black;stroke-linecap:butt;stroke-linejoin:miter;" class="voltage-label arrow U6" /><path d="M 0.0,-108.00000000000003 L -8.683862308253835e-15,-162.0 L -1.736772461650767e-14,-216.0" id="na" class="na" style="stroke:black;fill:none;stroke-width:2.0;stroke-linecap:round;stroke-linejoin:round;" /><path d="M -1.9839278146187122e-14,-216.0 L -36.000000000000014,-216.0 L -36.000000000000014,-207.0 L -72.00000000000001,-207.0 L -72.00000000000001,-225.0 L -36.000000000000014,-225.0 L -36.000000000000014,-216.0 M -72.00000000000001,-216.0 L -108.00000000000001,-216.0" id="R2" class="12.0 \Omega" style="stroke:black;fill:transparent;stroke-width:2.0;stroke-linecap:round;stroke-linejoin:round;" /><path d="M -27.000000000000014,-201.6 L -70.20000000000002,-201.6" id="na" class="voltage-label arrow U2" style="stroke:black;fill:none;stroke-width:2.0;stroke-linecap:round;stroke-linejoin:round;" /><path d="M -79.00000000000001 -201.6 L -70.2 -205.2 L -70.2 -198.0 Z" style="stroke:black;fill:black;stroke-linecap:butt;stroke-linejoin:miter;" class="voltage-label arrow U2" /><path d="M -1.9839278146187122e-14,-432.0 L -36.000000000000014,-432.0 L -36.000000000000014,-423.0 L -72.00000000000001,-423.0 L -72.00000000000001,-441.0 L -36.000000000000014,-441.0 L -36.000000000000014,-432.0 M -72.00000000000001,-432.0 L -108.00000000000001,-432.0" id="R1" class="24.0 \Omega" style="stroke:black;fill:transparent;stroke-width:2.0;stroke-linecap:round;stroke-linejoin:round;" /><path d="M -27.000000000000014,-417.59999999999997 L -70.20000000000002,-417.59999999999997" id="na" class="voltage-label arrow U1" style="stroke:black;fill:none;stroke-width:2.0;stroke-linecap:round;stroke-linejoin:round;" /><path d="M -79.00000000000001 -417.59999999999997 L -70.2 -421.2 L -70.2 -413.99999999999994 Z" style="stroke:black;fill:black;stroke-linecap:butt;stroke-linejoin:miter;" class="voltage-label arrow U1" /><path d="M -108.00000000000001,-432.0 L -108.00000000000003,-378.0 L -108.00000000000003,-324.0" id="na" class="na" style="stroke:black;fill:none;stroke-width:2.0;stroke-linecap:round;stroke-linejoin:round;" /><path d="M -108.00000000000003,-324.0 L -108.00000000000003,-270.0 L -108.00000000000003,-216.0" id="na" class="na" style="stroke:black;fill:none;stroke-width:2.0;stroke-linecap:round;stroke-linejoin:round;" /><path d="M -108.00000000000001,-216.0 L -108.00000000000003,-162.0 L -108.00000000000003,-108.0" id="na" class="na" style="stroke:black;fill:none;stroke-width:2.0;stroke-linecap:round;stroke-linejoin:round;" /><path d="M -108.00000000000003,-108.0 L -108.00000000000001,-54.00000000000001 L -108.0,-1.5987211554602254e-14" id="na" class="na" style="stroke:black;fill:none;stroke-width:2.0;stroke-linecap:round;stroke-linejoin:round;" /><text x="54.0" y="-36.4" fill="black" font-size="14.0" font-family="sans" text-anchor="middle" class="element-label V1"><tspan x="54.0" dy="14.0">###.### ##</tspan></text><text x="46.800000000000004" y="27.0" fill="black" font-size="14.0" font-family="sans" text-anchor="middle" class="voltage-label arrow Uges"><tspan x="46.800000000000004" dy="14.0">###.### ##</tspan></text><text x="162.0" y="-567.4" fill="black" font-size="14.0" font-family="sans" text-anchor="middle" class="element-label R4"><tspan x="162.0" dy="14.0">###.### ##</tspan></text><text x="154.79999999999998" y="-522.0" fill="black" font-size="14.0" font-family="sans" text-anchor="middle" class="voltage-label arrow U4"><tspan x="154.79999999999998" dy="14.0">###.### ##</tspan></text><text x="54.0" y="-567.4" fill="black" font-size="14.0" font-family="sans" text-anchor="middle" class="element-label R3"><tspan x="54.0" dy="14.0">###.### ##</tspan></text><text x="46.800000000000004" y="-522.0" fill="black" font-size="14.0" font-family="sans" text-anchor="middle" class="voltage-label arrow U3"><tspan x="46.800000000000004" dy="14.0">###.### ##</tspan></text><text x="54.0" y="-351.4" fill="black" font-size="14.0" font-family="sans" text-anchor="middle" class="element-label R5"><tspan x="54.0" dy="14.0">###.### ##</tspan></text><text x="46.800000000000004" y="-306.0" fill="black" font-size="14.0" font-family="sans" text-anchor="middle" class="voltage-label arrow U5"><tspan x="46.800000000000004" dy="14.0">###.### ##</tspan></text><text x="54.0" y="-135.4" fill="black" font-size="14.0" font-family="sans" text-anchor="middle" class="element-label R6"><tspan x="54.0" dy="14.0">###.### ##</tspan></text><text x="46.800000000000004" y="-90.00000000000001" fill="black" font-size="14.0" font-family="sans" text-anchor="middle" class="voltage-label arrow U6"><tspan x="46.800000000000004" dy="14.0">###.### ##</tspan></text><text x="-54.000000000000014" y="-243.4" fill="black" font-size="14.0" font-family="sans" text-anchor="middle" class="element-label R2"><tspan x="-54.000000000000014" dy="14.0">###.### ##</tspan></text><text x="-61.20000000000002" y="-198.0" fill="black" font-size="14.0" font-family="sans" text-anchor="middle" class="voltage-label arrow U2"><tspan x="-61.20000000000002" dy="14.0">###.### ##</tspan></text><text x="-54.000000000000014" y="-459.4" fill="black" font-size="14.0" font-family="sans" text-anchor="middle" class="element-label R1"><tspan x="-54.000000000000014" dy="14.0">###.### ##</tspan></text><text x="-61.20000000000002" y="-414.0" fill="black" font-size="14.0" font-family="sans" text-anchor="middle" class="voltage-label arrow U1"><tspan x="-61.20000000000002" dy="14.0">###.### ##</tspan></text><path d="M 14.399999999999997,-0.0 L 14.399999999999999,-0.0" id="na" class="current-label arrow I1" style="stroke:black;fill:none;stroke-width:2.0;stroke-linecap:round;stroke-linejoin:round;" /><path d="M 23.2 0.0 L 14.400000000000002 5.3999999999999995 L 14.400000000000002 -5.3999999999999995 Z" style="stroke:black;fill:black;stroke-linecap:butt;stroke-linejoin:miter;" class="current-label arrow I1" /><text x="23.4" y="-22.0" fill="black" font-size="14.0" font-family="sans" text-anchor="middle" class="current-label arrow Iges"><tspan x="23.4" dy="14.0">###.### ##</tspan></text><path d="M 201.6,-540.0 L 201.6,-540.0" id="na" class="current-label arrow I4" style="stroke:black;fill:none;stroke-width:2.0;stroke-linecap:round;stroke-linejoin:round;" /><path d="M 192.79999999999998 -540.0 L 201.6 -545.4 L 201.6 -534.6 Z" style="stroke:black;fill:black;stroke-linecap:butt;stroke-linejoin:miter;" class="current-label arrow I4" /><text x="199.79999999999998" y="-562.0000000000001" fill="black" font-size="14.0" font-family="sans" text-anchor="middle" class="current-label arrow I4"><tspan x="199.79999999999998" dy="14.0">###.### ##</tspan></text><path d="M 93.60000000000001,-540.0 L 93.6,-540.0" id="na" class="current-label arrow I3" style="stroke:black;fill:none;stroke-width:2.0;stroke-linecap:round;stroke-linejoin:round;" /><path d="M 84.8 -540.0 L 93.60000000000001 -545.4 L 93.6 -534.6 Z" style="stroke:black;fill:black;stroke-linecap:butt;stroke-linejoin:miter;" class="current-label arrow I3" /><text x="91.8" y="-562.0000000000001" fill="black" font-size="14.0" font-family="sans" text-anchor="middle" class="current-label arrow I3"><tspan x="91.8" dy="14.0">###.### ##</tspan></text><path d="M 93.60000000000001,-324.0 L 93.6,-324.0" id="na" class="current-label arrow I5" style="stroke:black;fill:none;stroke-width:2.0;stroke-linecap:round;stroke-linejoin:round;" /><path d="M 84.8 -324.0 L 93.60000000000001 -329.4 L 93.6 -318.6 Z" style="stroke:black;fill:black;stroke-linecap:butt;stroke-linejoin:miter;" class="current-label arrow I5" /><text x="91.8" y="-346.0" fill="black" font-size="14.0" font-family="sans" text-anchor="middle" class="current-label arrow I5"><tspan x="91.8" dy="14.0">###.### ##</tspan></text><path d="M 93.60000000000001,-108.00000000000001 L 93.6,-108.00000000000001" id="na" class="current-label arrow I6" style="stroke:black;fill:none;stroke-width:2.0;stroke-linecap:round;stroke-linejoin:round;" /><path d="M 84.8 -108.00000000000001 L 93.60000000000001 -113.4 L 93.6 -102.60000000000001 Z" style="stroke:black;fill:black;stroke-linecap:butt;stroke-linejoin:miter;" class="current-label arrow I6" /><text x="91.8" y="-130.0" fill="black" font-size="14.0" font-family="sans" text-anchor="middle" class="current-label arrow I6"><tspan x="91.8" dy="14.0">###.### ##</tspan></text><path d="M -14.400000000000013,-216.0 L -14.400000000000015,-216.0" id="na" class="current-label arrow I2" style="stroke:black;fill:none;stroke-width:2.0;stroke-linecap:round;stroke-linejoin:round;" /><path d="M -23.200000000000014 -216.0 L -14.400000000000015 -221.4 L -14.400000000000016 -210.6 Z" style="stroke:black;fill:black;stroke-linecap:butt;stroke-linejoin:miter;" class="current-label arrow I2" /><text x="-16.200000000000014" y="-237.99999999999997" fill="black" font-size="14.0" font-family="sans" text-anchor="middle" class="current-label arrow I2"><tspan x="-16.200000000000014" dy="14.0">###.### ##</tspan></text><path d="M -14.400000000000013,-432.0 L -14.400000000000015,-432.0" id="na" class="current-label arrow I1" style="stroke:black;fill:none;stroke-width:2.0;stroke-linecap:round;stroke-linejoin:round;" /><path d="M -23.200000000000014 -432.0 L -14.400000000000015 -437.4 L -14.400000000000016 -426.6 Z" style="stroke:black;fill:black;stroke-linecap:butt;stroke-linejoin:miter;" class="current-label arrow I1" /><text x="-16.200000000000014" y="-454.0" fill="black" font-size="14.0" font-family="sans" text-anchor="middle" class="current-label arrow I1"><tspan x="-16.200000000000014" dy="14.0">###.### ##</tspan></text><circle cx="216.0" cy="-108.0" r="2.6999999999999997" style="stroke:black;fill:black;stroke-width:2.0;" /><circle cx="216.0" cy="-324.0" r="2.6999999999999997" style="stroke:black;fill:black;stroke-width:2.0;" /><circle cx="-1.9839278146187122e-14" cy="-432.0" r="2.6999999999999997" style="stroke:black;fill:black;stroke-width:2.0;" /><circle cx="0.0" cy="-324.0" r="2.6999999999999997" style="stroke:black;fill:black;stroke-width:2.0;" /><circle cx="-1.9839278146187122e-14" cy="-216.0" r="2.6999999999999997" style="stroke:black;fill:black;stroke-width:2.0;" /><circle cx="-108.00000000000001" cy="-216.0" r="2.6999999999999997" style="stroke:black;fill:black;stroke-width:2.0;" /></svg>