<svg xmlns="http://www.w3.org/2000/svg" xml:lang="en" height="344.4pt" width="300.152pt" viewBox="-98.77599999999998 -123.8 300.152 344.4"><circle cx="3.3065463576978533e-15" cy="54.0" r="18.0" style="stroke:black;fill:none;stroke-width:2.0;" id="V1_Circle" class="10.0 \text{V}" /><path d="M 0.0,-0.0 L 2.204364238465236e-15,36.0 L 2.204364238465236e-15,36.0 M 4.408728476930472e-15,72.0 L 4.408728476930472e-15,72.0 L 6.613092715395707e-15,108.0" id="V1_line" class="10.0 \text{V}" style="stroke:black;fill:none;stroke-width:2.0;stroke-linecap:round;stroke-linejoin:round;" /><path d="M 2.204364238465236e-15,36.0 L 4.408728476930472e-15,72.0" id="V1_sourceLne" class="10.0 \text{V}" style="stroke:black;fill:none;stroke-width:2.0;stroke-linecap:round;stroke-linejoin:round;" /><path d="M 7.200000000000001,25.2 L 14.400000000000002,25.2" id="V1_plusSign1" class="10.0 \text{V}" style="stroke:black;fill:none;stroke-width:2.0;stroke-linecap:round;stroke-linejoin:round;" /><path d="M 10.8,21.599999999999998 L 10.8,28.8" id="V1_minusSign" class="10.0 \text{V}" style="stroke:black;fill:none;stroke-width:2.0;stroke-linecap:round;stroke-linejoin:round;" /><path d="M 7.200000000000005,82.8 L 14.400000000000007,82.8" id="V1_plusSign2" class="10.0 \text{V}" style="stroke:black;fill:none;stroke-width:2.0;stroke-linecap:round;stroke-linejoin:round;" /><path d="M 23.400000000000002,27.0 L 23.400000000000006,70.2" id="na" class="voltage-label arrow Uges" style="stroke:black;fill:none;stroke-width:2.0;stroke-linecap:round;stroke-linejoin:round;" /><path d="M 23.400000000000006 79.0 L 19.800000000000004 70.19999999999999 L 27.000000000000007 70.19999999999999 Z" style="stroke:black;fill:black;stroke-linecap:butt;stroke-linejoin:miter;" class="voltage-label arrow Uges" /><path d="M 0.0,216.0 L 3.3065463576978533e-15,162.0 L 6.613092715395707e-15,108.0" id="na" class="na" style="stroke:black;fill:none;stroke-width:2.0;stroke-linecap:round;stroke-linejoin:round;" /><path d="M 0.0,-0.0 L 3.3065463576978533e-15,-54.0 L 6.613092715395707e-15,-108.0" id="na" class="na" style="stroke:black;fill:none;stroke-width:2.0;stroke-linecap:round;stroke-linejoin:round;" /><path d="M 108.0,216.0 L 54.0,216.0 L 0.0,216.0" id="na" class="na" style="stroke:black;fill:none;stroke-width:2.0;stroke-linecap:round;stroke-linejoin:round;" /><path d="M 0.0,-108.0 L 54.0,-108.0 L 108.0,-108.0" id="na" class="na" style="stroke:black;fill:none;stroke-width:2.0;stroke-linecap:round;stroke-linejoin:round;" /><path d="M 108.0,108.0 L 108.0,144.0 L 117.0,144.0 L 117.0,180.0 L 99.0,180.0 L 99.0,144.0 L 108.0,144.0 M 108.0,180.0 L 108.0,216.0" id="R3" class="100.0 \Omega" style="stroke:black;fill:transparent;stroke-width:2.0;stroke-linecap:round;stroke-linejoin:round;" /><path d="M 122.39999999999999,135.0 L 122.39999999999999,178.20000000000002" id="na" class="voltage-label arrow UR3" style="stroke:black;fill:none;stroke-width:2.0;stroke-linecap:round;stroke-linejoin:round;" /><path d="M 122.39999999999999 187.0 L 118.8 178.2 L 125.99999999999999 178.2 Z" style="stroke:black;fill:black;stroke-linecap:butt;stroke-linejoin:miter;" class="voltage-label arrow UR3" /><path d="M 108.0,-108.0 L 108.0,-72.0 L 117.0,-72.0 L 117.0,-36.0 L 99.0,-36.0 L 99.0,-72.0 L 108.0,-72.0 M 108.0,-36.0 L 108.0,-0.0" id="R1" class="100.0 \Omega" style="stroke:black;fill:transparent;stroke-width:2.0;stroke-linecap:round;stroke-linejoin:round;" /><path d="M 122.39999999999999,-81.0 L 122.39999999999999,-37.800000000000004" id="na" class="voltage-label arrow UR1" style="stroke:black;fill:none;stroke-width:2.0;stroke-linecap:round;stroke-linejoin:round;" /><path d="M 122.39999999999999 -29.0 L 118.8 -37.8 L 125.99999999999999 -37.8 Z" style="stroke:black;fill:black;stroke-linecap:butt;stroke-linejoin:miter;" class="voltage-label arrow UR1" /><path d="M 108.0,-0.0 L 108.0,36.0 L 117.0,36.0 L 117.0,72.0 L 99.0,72.0 L 99.0,36.0 L 108.0,36.0 M 108.0,72.0 L 108.0,108.0" id="R2" class="100.0 \Omega" style="stroke:black;fill:transparent;stroke-width:2.0;stroke-linecap:round;stroke-linejoin:round;" /><path d="M 122.39999999999999,27.0 L 122.39999999999999,70.2" id="na" class="voltage-label arrow UR2" style="stroke:black;fill:none;stroke-width:2.0;stroke-linecap:round;stroke-linejoin:round;" /><path d="M 122.39999999999999 79.0 L 118.8 70.19999999999999 L 125.99999999999999 70.19999999999999 Z" style="stroke:black;fill:black;stroke-linecap:butt;stroke-linejoin:miter;" class="voltage-label arrow UR2" /><text x="-21.599999999999994" y="35.8" fill="black" font-size="14.0" font-family="sans" text-anchor="end" class="element-label V1"><tspan x="-21.599999999999994" dy="14.0">#E#.### ##</tspan></text><text x="25.200000000000003" y="48.4" fill="black" font-size="14.0" font-family="sans" text-anchor="start" class="voltage-label arrow Uges"><tspan x="25.200000000000003" dy="14.0">#V#.### ##</tspan></text><text x="3.3065463576978533e-15" y="156.4" fill="transparent" font-size="14.0" font-family="sans" text-anchor="end" class="na"><tspan x="3.3065463576978533e-15" dy="14.0">LLL.LLL LL</tspan></text><text x="79.2" y="156.4" fill="transparent" font-size="14.0" font-family="sans" text-anchor="end" class="na"><tspan x="79.2" dy="14.0">LLL.LLL LL</tspan></text><text x="3.3065463576978533e-15" y="-59.6" fill="transparent" font-size="14.0" font-family="sans" text-anchor="end" class="na"><tspan x="3.3065463576978533e-15" dy="14.0">LLL.LLL LL</tspan></text><text x="79.2" y="-59.599999999999994" fill="transparent" font-size="14.0" font-family="sans" text-anchor="end" class="na"><tspan x="79.2" dy="14.0">LLL.LLL LL</tspan></text><text x="54.0" y="204.8" fill="transparent" font-size="14.0" font-family="sans" text-anchor="middle" class="na"><tspan x="54.0" dy="14.0">LLL.LLL LL</tspan></text><text x="54.0" y="204.8" fill="transparent" font-size="14.0" font-family="sans" text-anchor="middle" class="na"><tspan x="54.0" dy="14.0">LLL.LLL LL</tspan></text><text x="54.0" y="-119.2" fill="transparent" font-size="14.0" font-family="sans" text-anchor="middle" class="na"><tspan x="54.0" dy="14.0">LLL.LLL LL</tspan></text><text x="54.0" y="-119.2" fill="transparent" font-size="14.0" font-family="sans" text-anchor="middle" class="na"><tspan x="54.0" dy="14.0">LLL.LLL LL</tspan></text><text x="95.39999999999999" y="143.8" fill="black" font-size="14.0" font-family="sans" text-anchor="end" class="element-label R3"><tspan x="95.39999999999999" dy="14.0">#E#.### ##</tspan></text><text x="124.2" y="156.4" fill="black" font-size="14.0" font-family="sans" text-anchor="start" class="voltage-label arrow UR3"><tspan x="124.2" dy="14.0">#V#.### ##</tspan></text><text x="95.39999999999999" y="-72.2" fill="black" font-size="14.0" font-family="sans" text-anchor="end" class="element-label R1"><tspan x="95.39999999999999" dy="14.0">#E#.### ##</tspan></text><text x="124.2" y="-59.6" fill="black" font-size="14.0" font-family="sans" text-anchor="start" class="voltage-label arrow UR1"><tspan x="124.2" dy="14.0">#V#.### ##</tspan></text><text x="95.39999999999999" y="35.8" fill="black" font-size="14.0" font-family="sans" text-anchor="end" class="element-label R2"><tspan x="95.39999999999999" dy="14.0">#E#.### ##</tspan></text><text x="124.2" y="48.4" fill="black" font-size="14.0" font-family="sans" text-anchor="start" class="voltage-label arrow UR2"><tspan x="124.2" dy="14.0">#V#.### ##</tspan></text><path d="M 1.7634913907721883e-15,28.8 L 1.7634913907721885e-15,28.8" id="na" class="current-label arrow Iges" style="stroke:black;fill:none;stroke-width:2.0;stroke-linecap:round;stroke-linejoin:round;" /><path d="M 1.423806649167945e-15 20.0 L 5.400000000000002 28.799999999999997 L -5.399999999999997 28.799999999999997 Z" style="stroke:black;fill:black;stroke-linecap:butt;stroke-linejoin:miter;" class="current-label arrow Iges" /><text x="-5.399999999999999" y="12.4" fill="black" font-size="14.0" font-family="sans" text-anchor="end" class="current-label arrow Iges"><tspan x="-5.399999999999999" dy="14.0">#C#.### ##</tspan></text><path d="M 108.0,126.0 L 108.0,126.0" id="na" class="current-label arrow IR3" style="stroke:black;fill:none;stroke-width:2.0;stroke-linecap:round;stroke-linejoin:round;" /><path d="M 108.0 134.79999999999998 L 102.6 125.99999999999997 L 113.4 125.99999999999997 Z" style="stroke:black;fill:black;stroke-linecap:butt;stroke-linejoin:miter;" class="current-label arrow IR3" /><text x="102.60000000000001" y="120.39999999999999" fill="black" font-size="14.0" font-family="sans" text-anchor="end" class="current-label arrow IR3"><tspan x="102.60000000000001" dy="14.0">#C#.### ##</tspan></text><path d="M 108.0,-90.0 L 108.0,-90.0" id="na" class="current-label arrow IR1" style="stroke:black;fill:none;stroke-width:2.0;stroke-linecap:round;stroke-linejoin:round;" /><path d="M 108.0 -81.2 L 102.6 -90.00000000000001 L 113.4 -90.00000000000001 Z" style="stroke:black;fill:black;stroke-linecap:butt;stroke-linejoin:miter;" class="current-label arrow IR1" /><text x="102.60000000000001" y="-95.60000000000001" fill="black" font-size="14.0" font-family="sans" text-anchor="end" class="current-label arrow IR1"><tspan x="102.60000000000001" dy="14.0">#C#.### ##</tspan></text><path d="M 108.0,18.0 L 108.0,18.0" id="na" class="current-label arrow IR2" style="stroke:black;fill:none;stroke-width:2.0;stroke-linecap:round;stroke-linejoin:round;" /><path d="M 108.0 26.8 L 102.6 18.000000000000004 L 113.4 18.000000000000004 Z" style="stroke:black;fill:black;stroke-linecap:butt;stroke-linejoin:miter;" class="current-label arrow IR2" /><text x="102.60000000000001" y="12.4" fill="black" font-size="14.0" font-family="sans" text-anchor="end" class="current-label arrow IR2"><tspan x="102.60000000000001" dy="14.0">#C#.### ##</tspan></text></svg>