<svg xmlns="http://www.w3.org/2000/svg" xml:lang="en" height="451.09999999999997pt" width="301.7959999999999pt" viewBox="-45.808 -119.80000000000001 301.7959999999999 451.09999999999997"><circle cx="3.3065463576978533e-15" cy="-54.0" r="18.0" style="stroke:black;fill:none;stroke-width:2.0;" /><path d="M 0.0,-0.0 L 2.204364238465236e-15,-36.0 L 2.204364238465236e-15,-36.0 M 4.408728476930472e-15,-72.0 L 4.408728476930472e-15,-72.0 L 6.613092715395707e-15,-108.0" id="na" class="na" style="stroke:black;fill:none;stroke-width:2.0;stroke-linecap:round;stroke-linejoin:round;" /><path d="M 9.000000000000004,-54.0 L 8.250000000000004,-55.86349712473816 L 7.500000000000004,-57.6 L 6.7500000000000036,-59.091168824543146 L 6.000000000000004,-60.23538290724795 L 5.250000000000004,-60.95466594928129 L 4.5000000000000036,-61.199999999999996 L 3.750000000000004,-60.9546659492813 L 3.000000000000004,-60.23538290724795 L 2.2500000000000036,-59.09116882454314 L 1.5000000000000042,-57.6 L 0.7500000000000037,-55.863497124738146 L 3.3065463576978533e-15,-54.0 L -0.7499999999999961,-52.136502875261854 L -1.4999999999999956,-50.400000000000006 L -2.249999999999997,-48.908831175456854 L -2.9999999999999964,-47.76461709275205 L -3.7499999999999956,-47.04533405071871 L -4.499999999999997,-46.800000000000004 L -5.2499999999999964,-47.0453340507187 L -5.999999999999996,-47.76461709275205 L -6.749999999999997,-48.90883117545686 L -7.4999999999999964,-50.4 L -8.249999999999996,-52.136502875261854 L -8.999999999999996,-54.0" id="na" class="na" style="stroke:black;fill:none;stroke-width:2.0;stroke-linecap:round;stroke-linejoin:round;" /><path d="M 23.400000000000002,-28.8 L 23.400000000000006,-90.0" id="na" class="arrow" style="stroke:black;fill:none;stroke-width:2.0;stroke-linecap:round;stroke-linejoin:round;" /><path d="M 23.400000000000002 -20.0 L 19.800000000000004 -28.799999999999997 L 27.000000000000004 -28.799999999999997 Z" style="stroke:black;fill:black;stroke-linecap:butt;stroke-linejoin:miter;" class="arrow" /><path d="M 0.0,-0.0 L 3.3065463576978533e-15,-54.0 L 6.613092715395707e-15,-108.0" id="na" class="na" style="stroke:black;fill:none;stroke-width:2.0;stroke-linecap:round;stroke-linejoin:round;" /><path d="M 6.613092715395707e-15,-108.0 L 54.00000000000001,-108.0 L 108.0,-108.0" id="na" class="na" style="stroke:black;fill:none;stroke-width:2.0;stroke-linecap:round;stroke-linejoin:round;" /><path d="M 108.0,-108.0 L 108.0,-72.0 L 117.0,-72.0 L 116.99999999999999,-36.0 L 98.99999999999999,-36.0 L 99.0,-72.0 L 108.0,-72.0 M 107.99999999999999,-36.0 L 107.99999999999999,-0.0" id="R1" class="100.0 \Omega" style="stroke:black;fill:transparent;stroke-width:4.0;stroke-linecap:round;stroke-linejoin:round;" /><path d="M 122.39999999999999,-90.0 L 122.39999999999998,-28.8" id="na" class="arrow" style="stroke:black;fill:none;stroke-width:2.0;stroke-linecap:round;stroke-linejoin:round;" /><path d="M 122.39999999999998 -20.0 L 118.79999999999998 -28.8 L 125.99999999999999 -28.799999999999997 Z" style="stroke:black;fill:black;stroke-linecap:butt;stroke-linejoin:miter;" class="arrow" /><path d="M 107.99999999999999,-0.0 L 107.99999999999997,50.76 M 116.99999999999997,50.76 L 98.99999999999997,50.76 M 116.99999999999997,57.239999999999995 L 98.99999999999997,57.239999999999995 M 107.99999999999997,57.239999999999995 L 107.99999999999997,108.0" id="C2" class="100.0 \text{F}" style="stroke:black;fill:none;stroke-width:2.0;stroke-linecap:round;stroke-linejoin:round;" /><path d="M 122.39999999999998,18.0 L 122.39999999999996,79.2" id="na" class="arrow" style="stroke:black;fill:none;stroke-width:2.0;stroke-linecap:round;stroke-linejoin:round;" /><path d="M 122.39999999999996 88.0 L 118.79999999999997 79.19999999999999 L 125.99999999999997 79.2 Z" style="stroke:black;fill:black;stroke-linecap:butt;stroke-linejoin:miter;" class="arrow" /><path d="M 107.99999999999997,108.0 L 107.99999999999997,144.0 L 116.99999999999997,144.0 L 116.99999999999996,180.0 L 98.99999999999996,180.0 L 98.99999999999997,144.0 L 107.99999999999997,144.0 M 107.99999999999996,180.0 L 107.99999999999996,216.0" id="L3" class="100.0 \text{H}" style="stroke:black;fill:black;stroke-width:2.0;stroke-linecap:round;stroke-linejoin:round;" /><path d="M 122.39999999999996,126.0 L 122.39999999999995,187.20000000000002" id="na" class="arrow" style="stroke:black;fill:none;stroke-width:2.0;stroke-linecap:round;stroke-linejoin:round;" /><path d="M 122.39999999999995 196.0 L 118.79999999999995 187.2 L 125.99999999999996 187.2 Z" style="stroke:black;fill:black;stroke-linecap:butt;stroke-linejoin:miter;" class="arrow" /><path d="M 107.99999999999996,216.0 L 107.99999999999996,252.0 L 116.99999999999996,252.0 L 116.99999999999994,288.0 L 98.99999999999994,288.0 L 98.99999999999996,252.0 L 107.99999999999996,252.0 M 107.99999999999994,288.0 L 107.99999999999994,324.0" id="R4" class="100.0 \Omega" style="stroke:black;fill:transparent;stroke-width:2.0;stroke-linecap:round;stroke-linejoin:round;" /><path d="M 122.39999999999995,234.0 L 122.39999999999993,295.2" id="na" class="arrow" style="stroke:black;fill:none;stroke-width:2.0;stroke-linecap:round;stroke-linejoin:round;" /><path d="M 122.39999999999993 304.0 L 118.79999999999994 295.20000000000005 L 125.99999999999994 295.20000000000005 Z" style="stroke:black;fill:black;stroke-linecap:butt;stroke-linejoin:miter;" class="arrow" /><path d="M 107.99999999999996,216.0 L 161.99999999999994,216.0 L 215.99999999999994,216.0" id="na" class="na" style="stroke:black;fill:none;stroke-width:2.0;stroke-linecap:round;stroke-linejoin:round;" /><path d="M 107.99999999999994,324.0 L 53.999999999999936,324.0 L -6.394884621840902e-14,324.0" id="na" class="na" style="stroke:black;fill:none;stroke-width:2.0;stroke-linecap:round;stroke-linejoin:round;" /><path d="M -6.394884621840902e-14,324.0 L -6.064229986071116e-14,270.0 L -5.73357535030133e-14,216.0" id="na" class="na" style="stroke:black;fill:none;stroke-width:2.0;stroke-linecap:round;stroke-linejoin:round;" /><path d="M -5.73357535030133e-14,216.0 L -1.1444888432064678e-14,54.0 L 3.444597663888396e-14,-108.0" id="na" class="na" style="stroke:black;fill:none;stroke-width:2.0;stroke-linecap:round;stroke-linejoin:round;" /><path d="M 215.99999999999994,216.0 L 215.99999999999994,252.0 L 224.99999999999994,252.0 L 224.99999999999994,288.0 L 206.99999999999994,288.0 L 206.99999999999994,252.0 L 215.99999999999994,252.0 M 215.99999999999994,288.0 L 215.99999999999991,324.0" id="R5" class="100.0 \Omega" style="stroke:black;fill:transparent;stroke-width:2.0;stroke-linecap:round;stroke-linejoin:round;" /><path d="M 230.39999999999995,234.0 L 230.39999999999992,295.2" id="na" class="arrow" style="stroke:black;fill:none;stroke-width:2.0;stroke-linecap:round;stroke-linejoin:round;" /><path d="M 230.39999999999992 304.0 L 226.79999999999993 295.20000000000005 L 233.99999999999991 295.20000000000005 Z" style="stroke:black;fill:black;stroke-linecap:butt;stroke-linejoin:miter;" class="arrow" /><path d="M 215.99999999999991,324.0 L 161.99999999999994,324.0 L 107.99999999999994,324.0" id="na" class="na" style="stroke:black;fill:none;stroke-width:2.0;stroke-linecap:round;stroke-linejoin:round;" /><text x="27.000000000000004" y="-59.6" fill="black" font-size="14.0" font-family="sans" text-anchor="start" class="arrow"><tspan x="27.000000000000004" dy="14.0">U<tspan baseline-shift="sub" font-size="smaller">ges</tspan></tspan></text><text x="91.8" y="-59.6" fill="black" font-size="14.0" font-family="sans" text-anchor="end" class="na"><tspan x="91.8" dy="14.0">R1</tspan></text><text x="125.99999999999999" y="-59.6" fill="black" font-size="14.0" font-family="sans" text-anchor="start" class="arrow"><tspan x="125.99999999999999" dy="14.0">U1</tspan></text><text x="91.79999999999998" y="48.4" fill="black" font-size="14.0" font-family="sans" text-anchor="end" class="na"><tspan x="91.79999999999998" dy="14.0">C2</tspan></text><text x="125.99999999999997" y="48.4" fill="black" font-size="14.0" font-family="sans" text-anchor="start" class="arrow"><tspan x="125.99999999999997" dy="14.0">U2</tspan></text><text x="91.79999999999995" y="156.4" fill="black" font-size="14.0" font-family="sans" text-anchor="end" class="na"><tspan x="91.79999999999995" dy="14.0">L3</tspan></text><text x="125.99999999999996" y="156.4" fill="black" font-size="14.0" font-family="sans" text-anchor="start" class="arrow"><tspan x="125.99999999999996" dy="14.0">U3</tspan></text><text x="91.79999999999994" y="264.40000000000003" fill="black" font-size="14.0" font-family="sans" text-anchor="end" class="na"><tspan x="91.79999999999994" dy="14.0">R4</tspan></text><text x="125.99999999999994" y="264.40000000000003" fill="black" font-size="14.0" font-family="sans" text-anchor="start" class="arrow"><tspan x="125.99999999999994" dy="14.0">U4</tspan></text><text x="199.79999999999993" y="264.40000000000003" fill="black" font-size="14.0" font-family="sans" text-anchor="end" class="na"><tspan x="199.79999999999993" dy="14.0">R5</tspan></text><text x="233.99999999999994" y="264.40000000000003" fill="black" font-size="14.0" font-family="sans" text-anchor="start" class="arrow"><tspan x="233.99999999999994" dy="14.0">U5</tspan></text><path d="M 8.817456953860937e-16,-14.399999999999997 L 8.81745695386094e-16,-14.399999999999999" id="na" class="arrow" style="stroke:black;fill:none;stroke-width:2.0;stroke-linecap:round;stroke-linejoin:round;" /><path d="M 1.4205902870109293e-15 -23.2 L 5.4 -14.400000000000002 L -5.399999999999999 -14.400000000000002 Z" style="stroke:black;fill:black;stroke-linecap:butt;stroke-linejoin:miter;" class="arrow" /><text x="-10.799999999999997" y="-25.4" fill="black" font-size="14.0" font-family="sans" text-anchor="end" class="arrow"><tspan x="-10.799999999999997" dy="14.0">I<tspan baseline-shift="sub" font-size="smaller">ges</tspan></tspan></text><path d="M 107.99999999999999,-93.60000000000001 L 107.99999999999999,-93.6" id="na" class="arrow" style="stroke:black;fill:none;stroke-width:2.0;stroke-linecap:round;stroke-linejoin:round;" /><path d="M 107.99999999999999 -84.8 L 102.59999999999998 -93.60000000000001 L 113.39999999999999 -93.60000000000001 Z" style="stroke:black;fill:black;stroke-linecap:butt;stroke-linejoin:miter;" class="arrow" /><text x="97.19999999999999" y="-93.80000000000001" fill="black" font-size="14.0" font-family="sans" text-anchor="end" class="arrow"><tspan x="97.19999999999999" dy="14.0">I1</tspan></text><path d="M 107.99999999999997,14.399999999999997 L 107.99999999999997,14.399999999999999" id="na" class="arrow" style="stroke:black;fill:none;stroke-width:2.0;stroke-linecap:round;stroke-linejoin:round;" /><path d="M 107.99999999999997 23.2 L 102.59999999999997 14.400000000000002 L 113.39999999999998 14.400000000000002 Z" style="stroke:black;fill:black;stroke-linecap:butt;stroke-linejoin:miter;" class="arrow" /><text x="97.19999999999997" y="14.199999999999998" fill="black" font-size="14.0" font-family="sans" text-anchor="end" class="arrow"><tspan x="97.19999999999997" dy="14.0">I2</tspan></text><path d="M 107.99999999999996,122.39999999999999 L 107.99999999999996,122.4" id="na" class="arrow" style="stroke:black;fill:none;stroke-width:2.0;stroke-linecap:round;stroke-linejoin:round;" /><path d="M 107.99999999999996 131.20000000000002 L 102.59999999999995 122.4 L 113.39999999999996 122.4 Z" style="stroke:black;fill:black;stroke-linecap:butt;stroke-linejoin:miter;" class="arrow" /><text x="97.19999999999996" y="122.2" fill="black" font-size="14.0" font-family="sans" text-anchor="end" class="arrow"><tspan x="97.19999999999996" dy="14.0">I3</tspan></text><path d="M 107.99999999999994,230.4 L 107.99999999999994,230.4" id="na" class="arrow" style="stroke:black;fill:none;stroke-width:2.0;stroke-linecap:round;stroke-linejoin:round;" /><path d="M 107.99999999999994 239.20000000000002 L 102.59999999999994 230.4 L 113.39999999999995 230.4 Z" style="stroke:black;fill:black;stroke-linecap:butt;stroke-linejoin:miter;" class="arrow" /><text x="97.19999999999995" y="230.2" fill="black" font-size="14.0" font-family="sans" text-anchor="end" class="arrow"><tspan x="97.19999999999995" dy="14.0">I4</tspan></text><path d="M 215.99999999999994,230.4 L 215.99999999999994,230.4" id="na" class="arrow" style="stroke:black;fill:none;stroke-width:2.0;stroke-linecap:round;stroke-linejoin:round;" /><path d="M 215.99999999999994 239.20000000000002 L 210.59999999999994 230.4 L 221.39999999999995 230.4 Z" style="stroke:black;fill:black;stroke-linecap:butt;stroke-linejoin:miter;" class="arrow" /><text x="205.19999999999993" y="230.2" fill="black" font-size="14.0" font-family="sans" text-anchor="end" class="arrow"><tspan x="205.19999999999993" dy="14.0">I5</tspan></text><circle cx="107.99999999999996" cy="216.0" r="2.6999999999999997" style="stroke:black;fill:black;stroke-width:2.0;" /><circle cx="107.99999999999994" cy="324.0" r="2.6999999999999997" style="stroke:black;fill:black;stroke-width:2.0;" /></svg>