<svg xmlns="http://www.w3.org/2000/svg" xml:lang="en" height="560.4pt" width="408.15200000000004pt" viewBox="-98.77599999999998 -15.8 408.15200000000004 560.4"><circle cx="3.3065463576978533e-15" cy="54.0" r="18.0" style="stroke:black;fill:none;stroke-width:2.0;" id="Va_Circle" class="10.0 \text{V}" /><path d="M 0.0,-0.0 L 2.204364238465236e-15,36.0 L 2.204364238465236e-15,36.0 M 4.408728476930472e-15,72.0 L 4.408728476930472e-15,72.0 L 6.613092715395707e-15,108.0" id="Va_line" class="10.0 \text{V}" style="stroke:black;fill:none;stroke-width:2.0;stroke-linecap:round;stroke-linejoin:round;" /><path d="M 2.204364238465236e-15,36.0 L 4.408728476930472e-15,72.0" id="Va_sourceLne" class="10.0 \text{V}" style="stroke:black;fill:none;stroke-width:2.0;stroke-linecap:round;stroke-linejoin:round;" /><path d="M 7.200000000000001,25.2 L 14.400000000000002,25.2" id="Va_minusSign" class="10.0 \text{V}" style="stroke:black;fill:none;stroke-width:2.0;stroke-linecap:round;stroke-linejoin:round;" /><path d="M 10.8,21.599999999999998 L 10.8,28.8" id="Va_plusSign1" class="10.0 \text{V}" style="stroke:black;fill:none;stroke-width:2.0;stroke-linecap:round;stroke-linejoin:round;" /><path d="M 7.200000000000005,82.8 L 14.400000000000007,82.8" id="Va_plusSign2" class="10.0 \text{V}" style="stroke:black;fill:none;stroke-width:2.0;stroke-linecap:round;stroke-linejoin:round;" /><path d="M 23.400000000000002,27.0 L 23.400000000000006,70.2" id="na" class="voltage-label arrow Uges" style="stroke:black;fill:none;stroke-width:2.0;stroke-linecap:round;stroke-linejoin:round;" /><path d="M 23.400000000000006 79.0 L 19.800000000000004 70.19999999999999 L 27.000000000000007 70.19999999999999 Z" style="stroke:black;fill:black;stroke-linecap:butt;stroke-linejoin:miter;" class="voltage-label arrow Uges" /><path d="M 108.0,-0.0 L 108.0,36.0 L 117.0,36.0 L 117.0,72.0 L 99.0,72.0 L 99.0,36.0 L 108.0,36.0 M 108.0,72.0 L 108.0,108.0" id="R1" class="2.0 \text{k} \Omega" style="stroke:black;fill:transparent;stroke-width:2.0;stroke-linecap:round;stroke-linejoin:round;" /><path d="M 122.39999999999999,27.0 L 122.39999999999999,70.2" id="na" class="voltage-label arrow U1" style="stroke:black;fill:none;stroke-width:2.0;stroke-linecap:round;stroke-linejoin:round;" /><path d="M 122.39999999999999 79.0 L 118.8 70.19999999999999 L 125.99999999999999 70.19999999999999 Z" style="stroke:black;fill:black;stroke-linecap:butt;stroke-linejoin:miter;" class="voltage-label arrow U1" /><path d="M 108.0,108.0 L 108.0,144.0 L 117.0,144.0 L 117.0,180.0 L 99.0,180.0 L 99.0,144.0 L 108.0,144.0 M 108.0,180.0 L 108.0,216.0" id="R2" class="200.0 \Omega" style="stroke:black;fill:transparent;stroke-width:2.0;stroke-linecap:round;stroke-linejoin:round;" /><path d="M 122.39999999999999,135.0 L 122.39999999999999,178.20000000000002" id="na" class="voltage-label arrow U2" style="stroke:black;fill:none;stroke-width:2.0;stroke-linecap:round;stroke-linejoin:round;" /><path d="M 122.39999999999999 187.0 L 118.8 178.2 L 125.99999999999999 178.2 Z" style="stroke:black;fill:black;stroke-linecap:butt;stroke-linejoin:miter;" class="voltage-label arrow U2" /><path d="M 108.0,216.0 L 108.0,252.0 L 117.0,252.0 L 117.0,288.0 L 99.0,288.0 L 99.0,252.0 L 108.0,252.0 M 108.0,288.0 L 108.0,324.0" id="R3" class="400.0 \Omega" style="stroke:black;fill:transparent;stroke-width:2.0;stroke-linecap:round;stroke-linejoin:round;" /><path d="M 122.39999999999999,243.0 L 122.39999999999999,286.2" id="na" class="voltage-label arrow U3" style="stroke:black;fill:none;stroke-width:2.0;stroke-linecap:round;stroke-linejoin:round;" /><path d="M 122.39999999999999 295.0 L 118.8 286.20000000000005 L 125.99999999999999 286.20000000000005 Z" style="stroke:black;fill:black;stroke-linecap:butt;stroke-linejoin:miter;" class="voltage-label arrow U3" /><path d="M 108.0,324.0 L 108.0,360.0 L 117.0,360.0 L 117.0,396.0 L 99.0,396.0 L 99.0,360.0 L 108.0,360.0 M 108.0,396.0 L 108.0,432.0" id="R4" class="40.0 \Omega" style="stroke:black;fill:transparent;stroke-width:2.0;stroke-linecap:round;stroke-linejoin:round;" /><path d="M 122.39999999999999,351.0 L 122.39999999999999,394.2" id="na" class="voltage-label arrow U4" style="stroke:black;fill:none;stroke-width:2.0;stroke-linecap:round;stroke-linejoin:round;" /><path d="M 122.39999999999999 403.0 L 118.8 394.20000000000005 L 125.99999999999999 394.20000000000005 Z" style="stroke:black;fill:black;stroke-linecap:butt;stroke-linejoin:miter;" class="voltage-label arrow U4" /><path d="M 216.0,324.0 L 216.0,360.0 L 225.0,360.0 L 225.0,396.0 L 207.0,396.0 L 207.0,360.0 L 216.0,360.0 M 216.0,396.0 L 216.0,432.0" id="R5" class="200.0 \Omega" style="stroke:black;fill:transparent;stroke-width:2.0;stroke-linecap:round;stroke-linejoin:round;" /><path d="M 230.4,351.0 L 230.4,394.2" id="na" class="voltage-label arrow U5" style="stroke:black;fill:none;stroke-width:2.0;stroke-linecap:round;stroke-linejoin:round;" /><path d="M 230.4 403.0 L 226.8 394.20000000000005 L 234.0 394.20000000000005 Z" style="stroke:black;fill:black;stroke-linecap:butt;stroke-linejoin:miter;" class="voltage-label arrow U5" /><path d="M 108.0,432.0 L 108.0,468.0 L 117.0,468.0 L 117.0,504.0 L 99.0,504.0 L 99.0,468.0 L 108.0,468.0 M 108.0,504.0 L 108.0,540.0" id="R6" class="40.0 \Omega" style="stroke:black;fill:transparent;stroke-width:2.0;stroke-linecap:round;stroke-linejoin:round;" /><path d="M 122.39999999999999,459.0 L 122.39999999999999,502.2" id="na" class="voltage-label arrow U6" style="stroke:black;fill:none;stroke-width:2.0;stroke-linecap:round;stroke-linejoin:round;" /><path d="M 122.39999999999999 511.0 L 118.8 502.20000000000005 L 125.99999999999999 502.20000000000005 Z" style="stroke:black;fill:black;stroke-linecap:butt;stroke-linejoin:miter;" class="voltage-label arrow U6" /><path d="M 0.0,540.0 L 1.3226185430791413e-14,324.0 L 2.6452370861582827e-14,108.0" id="na" class="na" style="stroke:black;fill:none;stroke-width:2.0;stroke-linecap:round;stroke-linejoin:round;" /><path d="M 0.0,-0.0 L 54.0,-0.0 L 108.0,-0.0" id="na" class="na" style="stroke:black;fill:none;stroke-width:2.0;stroke-linecap:round;stroke-linejoin:round;" /><path d="M 0.0,540.0 L 54.0,540.0 L 108.0,540.0" id="na" class="na" style="stroke:black;fill:none;stroke-width:2.0;stroke-linecap:round;stroke-linejoin:round;" /><path d="M 108.0,324.0 L 162.0,324.0 L 216.0,324.0" id="na" class="na" style="stroke:black;fill:none;stroke-width:2.0;stroke-linecap:round;stroke-linejoin:round;" /><path d="M 108.0,432.0 L 162.0,432.0 L 216.0,432.0" id="na" class="na" style="stroke:black;fill:none;stroke-width:2.0;stroke-linecap:round;stroke-linejoin:round;" /><text x="-21.599999999999994" y="35.8" fill="black" font-size="14.0" font-family="sans" text-anchor="end" class="element-label Va"><tspan x="-21.599999999999994" dy="14.0">#E#.### ##</tspan></text><text x="25.200000000000003" y="48.4" fill="black" font-size="14.0" font-family="sans" text-anchor="start" class="voltage-label arrow Uges"><tspan x="25.200000000000003" dy="14.0">#V#.### ##</tspan></text><text x="95.39999999999999" y="35.8" fill="black" font-size="14.0" font-family="sans" text-anchor="end" class="element-label R1"><tspan x="95.39999999999999" dy="14.0">#E#.### ##</tspan></text><text x="124.2" y="48.4" fill="black" font-size="14.0" font-family="sans" text-anchor="start" class="voltage-label arrow U1"><tspan x="124.2" dy="14.0">#V#.### ##</tspan></text><text x="95.39999999999999" y="143.8" fill="black" font-size="14.0" font-family="sans" text-anchor="end" class="element-label R2"><tspan x="95.39999999999999" dy="14.0">#E#.### ##</tspan></text><text x="124.2" y="156.4" fill="black" font-size="14.0" font-family="sans" text-anchor="start" class="voltage-label arrow U2"><tspan x="124.2" dy="14.0">#V#.### ##</tspan></text><text x="95.39999999999999" y="251.80000000000007" fill="black" font-size="14.0" font-family="sans" text-anchor="end" class="element-label R3"><tspan x="95.39999999999999" dy="14.0">#E#.### ##</tspan></text><text x="124.2" y="264.40000000000003" fill="black" font-size="14.0" font-family="sans" text-anchor="start" class="voltage-label arrow U3"><tspan x="124.2" dy="14.0">#V#.### ##</tspan></text><text x="95.39999999999999" y="359.80000000000007" fill="black" font-size="14.0" font-family="sans" text-anchor="end" class="element-label R4"><tspan x="95.39999999999999" dy="14.0">#E#.### ##</tspan></text><text x="124.2" y="372.40000000000003" fill="black" font-size="14.0" font-family="sans" text-anchor="start" class="voltage-label arrow U4"><tspan x="124.2" dy="14.0">#V#.### ##</tspan></text><text x="203.4" y="359.80000000000007" fill="black" font-size="14.0" font-family="sans" text-anchor="end" class="element-label R5"><tspan x="203.4" dy="14.0">#E#.### ##</tspan></text><text x="232.20000000000002" y="372.40000000000003" fill="black" font-size="14.0" font-family="sans" text-anchor="start" class="voltage-label arrow U5"><tspan x="232.20000000000002" dy="14.0">#V#.### ##</tspan></text><text x="95.39999999999999" y="467.80000000000007" fill="black" font-size="14.0" font-family="sans" text-anchor="end" class="element-label R6"><tspan x="95.39999999999999" dy="14.0">#E#.### ##</tspan></text><text x="124.2" y="480.40000000000003" fill="black" font-size="14.0" font-family="sans" text-anchor="start" class="voltage-label arrow U6"><tspan x="124.2" dy="14.0">#V#.### ##</tspan></text><text x="1.3226185430791413e-14" y="318.40000000000003" fill="transparent" font-size="14.0" font-family="sans" text-anchor="end" class="na"><tspan x="1.3226185430791413e-14" dy="14.0">LLL.LLL LL</tspan></text><text x="79.20000000000002" y="318.40000000000003" fill="transparent" font-size="14.0" font-family="sans" text-anchor="end" class="na"><tspan x="79.20000000000002" dy="14.0">LLL.LLL LL</tspan></text><text x="54.0" y="-11.200000000000001" fill="transparent" font-size="14.0" font-family="sans" text-anchor="middle" class="na"><tspan x="54.0" dy="14.0">LLL.LLL LL</tspan></text><text x="54.0" y="-11.200000000000001" fill="transparent" font-size="14.0" font-family="sans" text-anchor="middle" class="na"><tspan x="54.0" dy="14.0">LLL.LLL LL</tspan></text><text x="54.0" y="528.8" fill="transparent" font-size="14.0" font-family="sans" text-anchor="middle" class="na"><tspan x="54.0" dy="14.0">LLL.LLL LL</tspan></text><text x="54.0" y="528.8" fill="transparent" font-size="14.0" font-family="sans" text-anchor="middle" class="na"><tspan x="54.0" dy="14.0">LLL.LLL LL</tspan></text><text x="162.0" y="312.8" fill="transparent" font-size="14.0" font-family="sans" text-anchor="middle" class="na"><tspan x="162.0" dy="14.0">LLL.LLL LL</tspan></text><text x="162.0" y="312.8" fill="transparent" font-size="14.0" font-family="sans" text-anchor="middle" class="na"><tspan x="162.0" dy="14.0">LLL.LLL LL</tspan></text><text x="162.0" y="420.8" fill="transparent" font-size="14.0" font-family="sans" text-anchor="middle" class="na"><tspan x="162.0" dy="14.0">LLL.LLL LL</tspan></text><text x="162.0" y="420.8" fill="transparent" font-size="14.0" font-family="sans" text-anchor="middle" class="na"><tspan x="162.0" dy="14.0">LLL.LLL LL</tspan></text><path d="M 1.7634913907721883e-15,28.8 L 1.7634913907721885e-15,28.8" id="na" class="current-label arrow Iges" style="stroke:black;fill:none;stroke-width:2.0;stroke-linecap:round;stroke-linejoin:round;" /><path d="M 1.423806649167945e-15 20.0 L 5.400000000000002 28.799999999999997 L -5.399999999999997 28.799999999999997 Z" style="stroke:black;fill:black;stroke-linecap:butt;stroke-linejoin:miter;" class="current-label arrow Iges" /><text x="-5.399999999999999" y="12.4" fill="black" font-size="14.0" font-family="sans" text-anchor="end" class="current-label arrow Iges"><tspan x="-5.399999999999999" dy="14.0">#C#.### ##</tspan></text><path d="M 108.0,18.0 L 108.0,18.0" id="na" class="current-label arrow I1" style="stroke:black;fill:none;stroke-width:2.0;stroke-linecap:round;stroke-linejoin:round;" /><path d="M 108.0 26.8 L 102.6 18.000000000000004 L 113.4 18.000000000000004 Z" style="stroke:black;fill:black;stroke-linecap:butt;stroke-linejoin:miter;" class="current-label arrow I1" /><text x="102.60000000000001" y="12.4" fill="black" font-size="14.0" font-family="sans" text-anchor="end" class="current-label arrow I1"><tspan x="102.60000000000001" dy="14.0">#C#.### ##</tspan></text><path d="M 108.0,126.0 L 108.0,126.0" id="na" class="current-label arrow I2" style="stroke:black;fill:none;stroke-width:2.0;stroke-linecap:round;stroke-linejoin:round;" /><path d="M 108.0 134.79999999999998 L 102.6 125.99999999999997 L 113.4 125.99999999999997 Z" style="stroke:black;fill:black;stroke-linecap:butt;stroke-linejoin:miter;" class="current-label arrow I2" /><text x="102.60000000000001" y="120.39999999999999" fill="black" font-size="14.0" font-family="sans" text-anchor="end" class="current-label arrow I2"><tspan x="102.60000000000001" dy="14.0">#C#.### ##</tspan></text><path d="M 108.0,234.0 L 108.0,234.0" id="na" class="current-label arrow I3" style="stroke:black;fill:none;stroke-width:2.0;stroke-linecap:round;stroke-linejoin:round;" /><path d="M 108.0 242.79999999999998 L 102.6 233.99999999999997 L 113.4 233.99999999999997 Z" style="stroke:black;fill:black;stroke-linecap:butt;stroke-linejoin:miter;" class="current-label arrow I3" /><text x="102.60000000000001" y="228.4" fill="black" font-size="14.0" font-family="sans" text-anchor="end" class="current-label arrow I3"><tspan x="102.60000000000001" dy="14.0">#C#.### ##</tspan></text><path d="M 108.0,342.0 L 108.0,342.0" id="na" class="current-label arrow I4" style="stroke:black;fill:none;stroke-width:2.0;stroke-linecap:round;stroke-linejoin:round;" /><path d="M 108.0 350.8 L 102.6 342.00000000000006 L 113.4 342.00000000000006 Z" style="stroke:black;fill:black;stroke-linecap:butt;stroke-linejoin:miter;" class="current-label arrow I4" /><text x="102.60000000000001" y="336.40000000000003" fill="black" font-size="14.0" font-family="sans" text-anchor="end" class="current-label arrow I4"><tspan x="102.60000000000001" dy="14.0">#C#.### ##</tspan></text><path d="M 216.0,342.0 L 216.0,342.0" id="na" class="current-label arrow I5" style="stroke:black;fill:none;stroke-width:2.0;stroke-linecap:round;stroke-linejoin:round;" /><path d="M 216.0 350.8 L 210.6 342.00000000000006 L 221.4 342.00000000000006 Z" style="stroke:black;fill:black;stroke-linecap:butt;stroke-linejoin:miter;" class="current-label arrow I5" /><text x="210.6" y="336.40000000000003" fill="black" font-size="14.0" font-family="sans" text-anchor="end" class="current-label arrow I5"><tspan x="210.6" dy="14.0">#C#.### ##</tspan></text><path d="M 108.0,450.0 L 108.0,450.0" id="na" class="current-label arrow I6" style="stroke:black;fill:none;stroke-width:2.0;stroke-linecap:round;stroke-linejoin:round;" /><path d="M 108.0 458.8 L 102.6 450.00000000000006 L 113.4 450.00000000000006 Z" style="stroke:black;fill:black;stroke-linecap:butt;stroke-linejoin:miter;" class="current-label arrow I6" /><text x="102.60000000000001" y="444.40000000000003" fill="black" font-size="14.0" font-family="sans" text-anchor="end" class="current-label arrow I6"><tspan x="102.60000000000001" dy="14.0">#C#.### ##</tspan></text><circle cx="108.0" cy="324.0" r="2.6999999999999997" style="stroke:black;fill:black;stroke-width:2.0;" id="" class="" /><circle cx="108.0" cy="432.0" r="2.6999999999999997" style="stroke:black;fill:black;stroke-width:2.0;" id="" class="" /></svg>