<svg xmlns="http://www.w3.org/2000/svg" xml:lang="en" height="340.4pt" width="199.19599999999997pt" viewBox="-45.808 -227.79999999999998 199.19599999999997 340.4"><circle cx="3.3065463576978533e-15" cy="-54.0" r="18.0" style="stroke:black;fill:none;stroke-width:2.0;" /><path d="M 0.0,-0.0 L 2.204364238465236e-15,-36.0 L 2.204364238465236e-15,-36.0 M 4.408728476930472e-15,-72.0 L 4.408728476930472e-15,-72.0 L 6.613092715395707e-15,-108.0" id="na" class="na" style="stroke:black;fill:none;stroke-width:2.0;stroke-linecap:round;stroke-linejoin:round;" /><path d="M 3.600000000000003,-45.0 L -3.599999999999997,-45.0" id="na" class="na" style="stroke:black;fill:none;stroke-width:2.0;stroke-linecap:round;stroke-linejoin:round;" /><path d="M 3.637200993467639e-15,-59.4 L 4.078073841160686e-15,-66.60000000000001" id="na" class="na" style="stroke:black;fill:none;stroke-width:2.0;stroke-linecap:round;stroke-linejoin:round;" /><path d="M 3.600000000000004,-63.0 L -3.599999999999996,-63.0" id="na" class="na" style="stroke:black;fill:none;stroke-width:2.0;stroke-linecap:round;stroke-linejoin:round;" /><path d="M 28.8,-28.8 L 28.800000000000004,-90.0" id="na" class="arrow" style="stroke:black;fill:none;stroke-width:2.0;stroke-linecap:round;stroke-linejoin:round;" /><path d="M 28.8 -20.0 L 25.200000000000003 -28.799999999999997 L 32.4 -28.799999999999997 Z" style="stroke:black;fill:black;stroke-linecap:butt;stroke-linejoin:miter;" class="arrow" /><path d="M 6.613092715395707e-15,-108.0 L 9.919639073093561e-15,-162.0 L 1.3226185430791413e-14,-216.0" id="na" class="na" style="stroke:black;fill:none;stroke-width:2.0;stroke-linecap:round;stroke-linejoin:round;" /><path d="M 1.3226185430791413e-14,-216.0 L 54.000000000000014,-216.0 L 108.00000000000001,-216.0" id="na" class="na" style="stroke:black;fill:none;stroke-width:2.0;stroke-linecap:round;stroke-linejoin:round;" /><path d="M 108.00000000000001,-216.0 L 108.00000000000001,-180.0 L 117.00000000000001,-180.0 L 117.0,-144.0 L 99.0,-144.0 L 99.00000000000001,-180.0 L 108.00000000000001,-180.0 M 108.0,-144.0 L 108.0,-108.0" id="R1" class="100.0 \Omega" style="stroke:black;fill:none;stroke-width:2.0;stroke-linecap:round;stroke-linejoin:round;" /><path d="M 127.80000000000001,-198.0 L 127.8,-136.79999999999998" id="na" class="arrow" style="stroke:black;fill:none;stroke-width:2.0;stroke-linecap:round;stroke-linejoin:round;" /><path d="M 127.8 -128.0 L 124.2 -136.8 L 131.4 -136.8 Z" style="stroke:black;fill:black;stroke-linecap:butt;stroke-linejoin:miter;" class="arrow" /><path d="M 108.0,-108.0 L 108.0,-72.0 L 117.0,-72.0 L 116.99999999999999,-36.0 L 98.99999999999999,-36.0 L 99.0,-72.0 L 108.0,-72.0 M 107.99999999999999,-36.0 L 107.99999999999999,-0.0" id="R2" class="100.0 \Omega" style="stroke:black;fill:none;stroke-width:2.0;stroke-linecap:round;stroke-linejoin:round;" /><path d="M 127.8,-90.0 L 127.79999999999998,-28.8" id="na" class="arrow" style="stroke:black;fill:none;stroke-width:2.0;stroke-linecap:round;stroke-linejoin:round;" /><path d="M 127.79999999999998 -20.0 L 124.19999999999999 -28.799999999999997 L 131.39999999999998 -28.799999999999997 Z" style="stroke:black;fill:black;stroke-linecap:butt;stroke-linejoin:miter;" class="arrow" /><path d="M 107.99999999999999,-0.0 L 107.99999999999999,36.0 L 116.99999999999999,36.0 L 116.99999999999997,72.0 L 98.99999999999997,72.0 L 98.99999999999999,36.0 L 107.99999999999999,36.0 M 107.99999999999997,72.0 L 107.99999999999997,108.0" id="R3" class="100.0 \Omega" style="stroke:black;fill:none;stroke-width:2.0;stroke-linecap:round;stroke-linejoin:round;" /><path d="M 127.79999999999998,18.0 L 127.79999999999995,79.2" id="na" class="arrow" style="stroke:black;fill:none;stroke-width:2.0;stroke-linecap:round;stroke-linejoin:round;" /><path d="M 127.79999999999995 88.0 L 124.19999999999996 79.19999999999999 L 131.39999999999995 79.19999999999999 Z" style="stroke:black;fill:black;stroke-linecap:butt;stroke-linejoin:miter;" class="arrow" /><path d="M 107.99999999999997,108.0 L 53.99999999999997,108.0 L -3.197442310920451e-14,107.99999999999999" id="na" class="na" style="stroke:black;fill:none;stroke-width:2.0;stroke-linecap:round;stroke-linejoin:round;" /><path d="M -3.197442310920451e-14,107.99999999999999 L -1.6677468085554966e-14,53.99999999999999 L -1.380513061905422e-15,-0.0" id="na" class="na" style="stroke:black;fill:none;stroke-width:2.0;stroke-linecap:round;stroke-linejoin:round;" /><text x="32.400000000000006" y="-59.6" fill="black" font-size="14.0" font-family="sans" text-anchor="start" class="arrow"><tspan x="32.400000000000006" dy="14.0">U<tspan baseline-shift="sub" font-size="smaller">ges</tspan></tspan></text><text x="91.80000000000001" y="-167.6" fill="black" font-size="14.0" font-family="sans" text-anchor="end" class="na"><tspan x="91.80000000000001" dy="14.0">R1</tspan></text><text x="131.4" y="-167.6" fill="black" font-size="14.0" font-family="sans" text-anchor="start" class="arrow"><tspan x="131.4" dy="14.0">U1</tspan></text><text x="91.8" y="-59.6" fill="black" font-size="14.0" font-family="sans" text-anchor="end" class="na"><tspan x="91.8" dy="14.0">R2</tspan></text><text x="131.39999999999998" y="-59.6" fill="black" font-size="14.0" font-family="sans" text-anchor="start" class="arrow"><tspan x="131.39999999999998" dy="14.0">U2</tspan></text><text x="91.79999999999998" y="48.4" fill="black" font-size="14.0" font-family="sans" text-anchor="end" class="na"><tspan x="91.79999999999998" dy="14.0">R3</tspan></text><text x="131.39999999999998" y="48.4" fill="black" font-size="14.0" font-family="sans" text-anchor="start" class="arrow"><tspan x="131.39999999999998" dy="14.0">U3</tspan></text><path d="M 8.817456953860937e-16,-14.399999999999997 L 8.81745695386094e-16,-14.399999999999999" id="na" class="arrow" style="stroke:black;fill:none;stroke-width:2.0;stroke-linecap:round;stroke-linejoin:round;" /><path d="M 1.4205902870109293e-15 -23.2 L 5.4 -14.400000000000002 L -5.399999999999999 -14.400000000000002 Z" style="stroke:black;fill:black;stroke-linecap:butt;stroke-linejoin:miter;" class="arrow" /><text x="-10.799999999999997" y="-25.4" fill="black" font-size="14.0" font-family="sans" text-anchor="end" class="arrow"><tspan x="-10.799999999999997" dy="14.0">I<tspan baseline-shift="sub" font-size="smaller">ges</tspan></tspan></text><path d="M 108.0,-201.6 L 108.0,-201.6" id="na" class="arrow" style="stroke:black;fill:none;stroke-width:2.0;stroke-linecap:round;stroke-linejoin:round;" /><path d="M 108.0 -192.79999999999998 L 102.6 -201.6 L 113.4 -201.6 Z" style="stroke:black;fill:black;stroke-linecap:butt;stroke-linejoin:miter;" class="arrow" /><text x="97.2" y="-201.8" fill="black" font-size="14.0" font-family="sans" text-anchor="end" class="arrow"><tspan x="97.2" dy="14.0">I1</tspan></text><path d="M 107.99999999999999,-93.60000000000001 L 107.99999999999999,-93.6" id="na" class="arrow" style="stroke:black;fill:none;stroke-width:2.0;stroke-linecap:round;stroke-linejoin:round;" /><path d="M 107.99999999999999 -84.8 L 102.59999999999998 -93.60000000000001 L 113.39999999999999 -93.60000000000001 Z" style="stroke:black;fill:black;stroke-linecap:butt;stroke-linejoin:miter;" class="arrow" /><text x="97.19999999999999" y="-93.80000000000001" fill="black" font-size="14.0" font-family="sans" text-anchor="end" class="arrow"><tspan x="97.19999999999999" dy="14.0">I2</tspan></text><path d="M 107.99999999999997,14.399999999999997 L 107.99999999999997,14.399999999999999" id="na" class="arrow" style="stroke:black;fill:none;stroke-width:2.0;stroke-linecap:round;stroke-linejoin:round;" /><path d="M 107.99999999999997 23.2 L 102.59999999999997 14.400000000000002 L 113.39999999999998 14.400000000000002 Z" style="stroke:black;fill:black;stroke-linecap:butt;stroke-linejoin:miter;" class="arrow" /><text x="97.19999999999997" y="14.199999999999998" fill="black" font-size="14.0" font-family="sans" text-anchor="end" class="arrow"><tspan x="97.19999999999997" dy="14.0">I3</tspan></text></svg>