<svg xmlns="http://www.w3.org/2000/svg" xml:lang="en" height="451.09999999999997pt" width="399.896pt" viewBox="-90.14800000000001 -227.79999999999998 399.896 451.09999999999997"><circle cx="3.3065463576978533e-15" cy="-54.0" r="18.0" style="stroke:black;fill:none;stroke-width:2.0;" /><path d="M 0.0,-0.0 L 2.204364238465236e-15,-36.0 L 2.204364238465236e-15,-36.0 M 4.408728476930472e-15,-72.0 L 4.408728476930472e-15,-72.0 L 6.613092715395707e-15,-108.0" id="na" class="na" style="stroke:black;fill:none;stroke-width:2.0;stroke-linecap:round;stroke-linejoin:round;" /><path d="M 9.000000000000004,-54.0 L 8.250000000000004,-55.86349712473816 L 7.500000000000004,-57.6 L 6.7500000000000036,-59.091168824543146 L 6.000000000000004,-60.23538290724795 L 5.250000000000004,-60.95466594928129 L 4.5000000000000036,-61.199999999999996 L 3.750000000000004,-60.9546659492813 L 3.000000000000004,-60.23538290724795 L 2.2500000000000036,-59.09116882454314 L 1.5000000000000042,-57.6 L 0.7500000000000037,-55.863497124738146 L 3.3065463576978533e-15,-54.0 L -0.7499999999999961,-52.136502875261854 L -1.4999999999999956,-50.400000000000006 L -2.249999999999997,-48.908831175456854 L -2.9999999999999964,-47.76461709275205 L -3.7499999999999956,-47.04533405071871 L -4.499999999999997,-46.800000000000004 L -5.2499999999999964,-47.0453340507187 L -5.999999999999996,-47.76461709275205 L -6.749999999999997,-48.908831175456854 L -7.4999999999999964,-50.4 L -8.249999999999996,-52.136502875261854 L -8.999999999999996,-54.0" id="na" class="na" style="stroke:black;fill:none;stroke-width:2.0;stroke-linecap:round;stroke-linejoin:round;" /><path d="M 23.400000000000002,-37.800000000000004 L 23.400000000000006,-81.0" id="na" class="voltage-label arrow U1" style="stroke:black;fill:none;stroke-width:2.0;stroke-linecap:round;stroke-linejoin:round;" /><path d="M 23.400000000000002 -29.0 L 19.800000000000004 -37.8 L 27.000000000000004 -37.8 Z" style="stroke:black;fill:black;stroke-linecap:butt;stroke-linejoin:miter;" class="voltage-label arrow U1" /><path d="M 6.613092715395707e-15,-108.0 L 9.919639073093561e-15,-162.0 L 1.3226185430791413e-14,-216.0" id="na" class="na" style="stroke:black;fill:none;stroke-width:2.0;stroke-linecap:round;stroke-linejoin:round;" /><path d="M 1.3226185430791413e-14,-216.0 L 54.000000000000014,-216.0 L 108.00000000000001,-216.0" id="na" class="na" style="stroke:black;fill:none;stroke-width:2.0;stroke-linecap:round;stroke-linejoin:round;" /><path d="M 108.00000000000001,-216.0 L 108.0,-165.24 M 117.0,-165.24 L 99.0,-165.24 M 117.0,-158.76 L 99.0,-158.76 M 108.0,-158.76 L 108.0,-108.0" id="C1" class="0.1 \mu \text{F}" style="stroke:black;fill:none;stroke-width:2.0;stroke-linecap:round;stroke-linejoin:round;" /><path d="M 122.4,-189.0 L 122.39999999999999,-145.79999999999998" id="na" class="voltage-label arrow U1" style="stroke:black;fill:none;stroke-width:2.0;stroke-linecap:round;stroke-linejoin:round;" /><path d="M 122.39999999999999 -137.0 L 118.8 -145.8 L 126.0 -145.8 Z" style="stroke:black;fill:black;stroke-linecap:butt;stroke-linejoin:miter;" class="voltage-label arrow U1" /><path d="M 108.0,-108.0 L 107.99999999999999,-57.24 M 116.99999999999999,-57.24 L 98.99999999999999,-57.24 M 116.99999999999999,-50.760000000000005 L 98.99999999999999,-50.760000000000005 M 107.99999999999999,-50.760000000000005 L 107.99999999999999,-0.0" id="C2" class="0.1 \mu \text{F}" style="stroke:black;fill:none;stroke-width:2.0;stroke-linecap:round;stroke-linejoin:round;" /><path d="M 122.39999999999998,-81.0 L 122.39999999999998,-37.800000000000004" id="na" class="voltage-label arrow U2" style="stroke:black;fill:none;stroke-width:2.0;stroke-linecap:round;stroke-linejoin:round;" /><path d="M 122.39999999999998 -29.0 L 118.79999999999998 -37.8 L 125.99999999999997 -37.8 Z" style="stroke:black;fill:black;stroke-linecap:butt;stroke-linejoin:miter;" class="voltage-label arrow U2" /><path d="M 107.99999999999999,-0.0 L 107.99999999999997,50.76 M 116.99999999999997,50.76 L 98.99999999999997,50.76 M 116.99999999999997,57.239999999999995 L 98.99999999999997,57.239999999999995 M 107.99999999999997,57.239999999999995 L 107.99999999999997,108.0" id="C3" class="0.1 \mu \text{F}" style="stroke:black;fill:none;stroke-width:2.0;stroke-linecap:round;stroke-linejoin:round;" /><path d="M 122.39999999999998,27.0 L 122.39999999999996,70.2" id="na" class="voltage-label arrow U3" style="stroke:black;fill:none;stroke-width:2.0;stroke-linecap:round;stroke-linejoin:round;" /><path d="M 122.39999999999996 79.0 L 118.79999999999997 70.19999999999999 L 125.99999999999997 70.2 Z" style="stroke:black;fill:black;stroke-linecap:butt;stroke-linejoin:miter;" class="voltage-label arrow U3" /><path d="M 107.99999999999997,108.0 L 107.99999999999996,158.76 M 116.99999999999996,158.76 L 98.99999999999996,158.76 M 116.99999999999996,165.24 L 98.99999999999996,165.24 M 107.99999999999996,165.24 L 107.99999999999996,216.0" id="C4" class="0.1 \mu \text{F}" style="stroke:black;fill:none;stroke-width:2.0;stroke-linecap:round;stroke-linejoin:round;" /><path d="M 122.39999999999995,135.0 L 122.39999999999995,178.20000000000002" id="na" class="voltage-label arrow U4" style="stroke:black;fill:none;stroke-width:2.0;stroke-linecap:round;stroke-linejoin:round;" /><path d="M 122.39999999999995 187.0 L 118.79999999999995 178.2 L 125.99999999999994 178.2 Z" style="stroke:black;fill:black;stroke-linecap:butt;stroke-linejoin:miter;" class="voltage-label arrow U4" /><path d="M 107.99999999999997,108.0 L 161.99999999999997,108.0 L 215.99999999999997,108.0" id="na" class="na" style="stroke:black;fill:none;stroke-width:2.0;stroke-linecap:round;stroke-linejoin:round;" /><path d="M 107.99999999999996,216.0 L 53.99999999999995,216.0 L -4.796163466380676e-14,216.0" id="na" class="na" style="stroke:black;fill:none;stroke-width:2.0;stroke-linecap:round;stroke-linejoin:round;" /><path d="M -4.796163466380676e-14,216.0 L -4.465508830610891e-14,162.0 L -4.134854194841106e-14,108.0" id="na" class="na" style="stroke:black;fill:none;stroke-width:2.0;stroke-linecap:round;stroke-linejoin:round;" /><path d="M -4.134854194841106e-14,108.0 L -2.6051586924761512e-14,54.0 L -1.0754631901111968e-14,-0.0" id="na" class="na" style="stroke:black;fill:none;stroke-width:2.0;stroke-linecap:round;stroke-linejoin:round;" /><path d="M 215.99999999999997,108.0 L 215.99999999999997,158.76 M 224.99999999999997,158.76 L 206.99999999999997,158.76 M 224.99999999999997,165.24 L 206.99999999999997,165.24 M 215.99999999999997,165.24 L 215.99999999999994,216.0" id="C5" class="0.1 \mu \text{F}" style="stroke:black;fill:none;stroke-width:2.0;stroke-linecap:round;stroke-linejoin:round;" /><path d="M 230.39999999999998,135.0 L 230.39999999999995,178.20000000000002" id="na" class="voltage-label arrow U5" style="stroke:black;fill:none;stroke-width:2.0;stroke-linecap:round;stroke-linejoin:round;" /><path d="M 230.39999999999995 187.0 L 226.79999999999995 178.2 L 233.99999999999994 178.2 Z" style="stroke:black;fill:black;stroke-linecap:butt;stroke-linejoin:miter;" class="voltage-label arrow U5" /><path d="M 215.99999999999994,216.0 L 161.99999999999994,216.0 L 107.99999999999996,216.0" id="na" class="na" style="stroke:black;fill:none;stroke-width:2.0;stroke-linecap:round;stroke-linejoin:round;" /><text x="-14.399999999999999" y="-45.2" fill="black" font-size="14.0" font-family="sans" text-anchor="end" class="element-label ###.### ##"><tspan x="-14.399999999999999" dy="14.0">###.### ##</tspan></text><text x="27.000000000000004" y="-52.400000000000006" fill="black" font-size="14.0" font-family="sans" text-anchor="start" class="voltage-label arrow Uges"><tspan x="27.000000000000004" dy="14.0">###.### ##</tspan></text><text x="95.4" y="-182.0" fill="black" font-size="14.0" font-family="sans" text-anchor="end" class="element-label ###.### ##"><tspan x="95.4" dy="14.0">###.### ##</tspan></text><text x="126.0" y="-160.39999999999998" fill="black" font-size="14.0" font-family="sans" text-anchor="start" class="voltage-label arrow U1"><tspan x="126.0" dy="14.0">###.### ##</tspan></text><text x="95.39999999999999" y="-74.0" fill="black" font-size="14.0" font-family="sans" text-anchor="end" class="element-label ###.### ##"><tspan x="95.39999999999999" dy="14.0">###.### ##</tspan></text><text x="125.99999999999999" y="-52.4" fill="black" font-size="14.0" font-family="sans" text-anchor="start" class="voltage-label arrow U2"><tspan x="125.99999999999999" dy="14.0">###.### ##</tspan></text><text x="95.39999999999998" y="33.99999999999999" fill="black" font-size="14.0" font-family="sans" text-anchor="end" class="element-label ###.### ##"><tspan x="95.39999999999998" dy="14.0">###.### ##</tspan></text><text x="125.99999999999997" y="55.599999999999994" fill="black" font-size="14.0" font-family="sans" text-anchor="start" class="voltage-label arrow U3"><tspan x="125.99999999999997" dy="14.0">###.### ##</tspan></text><text x="95.39999999999996" y="142.0" fill="black" font-size="14.0" font-family="sans" text-anchor="end" class="element-label ###.### ##"><tspan x="95.39999999999996" dy="14.0">###.### ##</tspan></text><text x="125.99999999999996" y="163.60000000000002" fill="black" font-size="14.0" font-family="sans" text-anchor="start" class="voltage-label arrow U4"><tspan x="125.99999999999996" dy="14.0">###.### ##</tspan></text><text x="203.39999999999995" y="142.0" fill="black" font-size="14.0" font-family="sans" text-anchor="end" class="element-label ###.### ##"><tspan x="203.39999999999995" dy="14.0">###.### ##</tspan></text><text x="233.99999999999997" y="163.60000000000002" fill="black" font-size="14.0" font-family="sans" text-anchor="start" class="voltage-label arrow U5"><tspan x="233.99999999999997" dy="14.0">###.### ##</tspan></text><path d="M 8.817456953860937e-16,-14.399999999999997 L 8.81745695386094e-16,-14.399999999999999" id="na" class="current-label arrow I1" style="stroke:black;fill:none;stroke-width:2.0;stroke-linecap:round;stroke-linejoin:round;" /><path d="M 1.4205902870109293e-15 -23.2 L 5.4 -14.400000000000002 L -5.399999999999999 -14.400000000000002 Z" style="stroke:black;fill:black;stroke-linecap:butt;stroke-linejoin:miter;" class="current-label arrow I1" /><text x="-10.799999999999997" y="-29.0" fill="black" font-size="14.0" font-family="sans" text-anchor="end" class="current-label arrow Iges"><tspan x="-10.799999999999997" dy="14.0">###.### ##</tspan></text><path d="M 108.0,-201.6 L 108.0,-201.6" id="na" class="current-label arrow I1" style="stroke:black;fill:none;stroke-width:2.0;stroke-linecap:round;stroke-linejoin:round;" /><path d="M 108.0 -192.79999999999998 L 102.6 -201.6 L 113.4 -201.6 Z" style="stroke:black;fill:black;stroke-linecap:butt;stroke-linejoin:miter;" class="current-label arrow I1" /><text x="97.2" y="-205.39999999999998" fill="black" font-size="14.0" font-family="sans" text-anchor="end" class="current-label arrow I1"><tspan x="97.2" dy="14.0">###.### ##</tspan></text><path d="M 107.99999999999999,-93.60000000000001 L 107.99999999999999,-93.6" id="na" class="current-label arrow I2" style="stroke:black;fill:none;stroke-width:2.0;stroke-linecap:round;stroke-linejoin:round;" /><path d="M 107.99999999999999 -84.8 L 102.59999999999998 -93.60000000000001 L 113.39999999999999 -93.60000000000001 Z" style="stroke:black;fill:black;stroke-linecap:butt;stroke-linejoin:miter;" class="current-label arrow I2" /><text x="97.19999999999999" y="-97.4" fill="black" font-size="14.0" font-family="sans" text-anchor="end" class="current-label arrow I2"><tspan x="97.19999999999999" dy="14.0">###.### ##</tspan></text><path d="M 107.99999999999997,14.399999999999997 L 107.99999999999997,14.399999999999999" id="na" class="current-label arrow I3" style="stroke:black;fill:none;stroke-width:2.0;stroke-linecap:round;stroke-linejoin:round;" /><path d="M 107.99999999999997 23.2 L 102.59999999999997 14.400000000000002 L 113.39999999999998 14.400000000000002 Z" style="stroke:black;fill:black;stroke-linecap:butt;stroke-linejoin:miter;" class="current-label arrow I3" /><text x="97.19999999999997" y="10.6" fill="black" font-size="14.0" font-family="sans" text-anchor="end" class="current-label arrow I3"><tspan x="97.19999999999997" dy="14.0">###.### ##</tspan></text><path d="M 107.99999999999996,122.39999999999999 L 107.99999999999996,122.4" id="na" class="current-label arrow I4" style="stroke:black;fill:none;stroke-width:2.0;stroke-linecap:round;stroke-linejoin:round;" /><path d="M 107.99999999999996 131.20000000000002 L 102.59999999999995 122.4 L 113.39999999999996 122.4 Z" style="stroke:black;fill:black;stroke-linecap:butt;stroke-linejoin:miter;" class="current-label arrow I4" /><text x="97.19999999999996" y="118.60000000000001" fill="black" font-size="14.0" font-family="sans" text-anchor="end" class="current-label arrow I4"><tspan x="97.19999999999996" dy="14.0">###.### ##</tspan></text><path d="M 215.99999999999997,122.39999999999999 L 215.99999999999997,122.4" id="na" class="current-label arrow I5" style="stroke:black;fill:none;stroke-width:2.0;stroke-linecap:round;stroke-linejoin:round;" /><path d="M 215.99999999999997 131.20000000000002 L 210.59999999999997 122.4 L 221.39999999999998 122.4 Z" style="stroke:black;fill:black;stroke-linecap:butt;stroke-linejoin:miter;" class="current-label arrow I5" /><text x="205.2" y="118.60000000000001" fill="black" font-size="14.0" font-family="sans" text-anchor="end" class="current-label arrow I5"><tspan x="205.2" dy="14.0">###.### ##</tspan></text><circle cx="107.99999999999997" cy="108.0" r="2.6999999999999997" style="stroke:black;fill:black;stroke-width:2.0;" /><circle cx="107.99999999999996" cy="216.0" r="2.6999999999999997" style="stroke:black;fill:black;stroke-width:2.0;" /></svg>